<ttFont>
    <TTGlyph name=".notdef" xMin="100" yMin="161" xMax="269" yMax="327">
      <contour>
        <pt x="100" y="228" on="1"/>
        <pt x="100" y="247" on="0"/>
        <pt x="118" y="283" on="0"/>
        <pt x="146" y="310" on="0"/>
        <pt x="183" y="327" on="0"/>
        <pt x="203" y="327" on="1"/>
        <pt x="231" y="327" on="0"/>
        <pt x="269" y="285" on="0"/>
        <pt x="269" y="256" on="1"/>
        <pt x="269" y="236" on="0"/>
        <pt x="251" y="201" on="0"/>
        <pt x="222" y="176" on="0"/>
        <pt x="185" y="161" on="0"/>
        <pt x="167" y="161" on="1"/>
        <pt x="137" y="161" on="0"/>
        <pt x="100" y="199" on="0"/>
      </contour>
    </TTGlyph>
    <TTGlyph name="A" xMin="-52" yMin="0" xMax="585" yMax="660">
      <contour>
        <pt x="585" y="0" on="1"/>
        <pt x="460" y="0" on="1"/>
        <pt x="425" y="192" on="1"/>
        <pt x="176" y="192" on="1"/>
        <pt x="68" y="0" on="1"/>
        <pt x="-52" y="0" on="1"/>
        <pt x="344" y="660" on="1"/>
        <pt x="443" y="660" on="1"/>
      </contour>
      <contour>
        <pt x="227" y="282" on="1"/>
        <pt x="409" y="282" on="1"/>
        <pt x="365" y="525" on="1"/>
      </contour>
    </TTGlyph>
    <TTGlyph name="AE" xMin="-68" yMin="0" xMax="783" yMax="660">
      <contour>
        <pt x="663" y="0" on="1"/>
        <pt x="332" y="0" on="1"/>
        <pt x="372" y="190" on="1"/>
        <pt x="195" y="190" on="1"/>
        <pt x="54" y="0" on="1"/>
        <pt x="-68" y="0" on="1"/>
        <pt x="424" y="660" on="1"/>
        <pt x="783" y="660" on="1"/>
        <pt x="762" y="558" on="1"/>
        <pt x="559" y="558" on="1"/>
        <pt x="526" y="401" on="1"/>
        <pt x="661" y="401" on="1"/>
        <pt x="640" y="299" on="1"/>
        <pt x="504" y="299" on="1"/>
        <pt x="462" y="102" on="1"/>
        <pt x="685" y="102" on="1"/>
      </contour>
      <contour>
        <pt x="393" y="290" on="1"/>
        <pt x="443" y="524" on="1"/>
        <pt x="269" y="290" on="1"/>
      </contour>
    </TTGlyph>
    <TTGlyph name="Aacute" xMin="-52" yMin="0" xMax="585" yMax="849">
      <contour>
        <pt x="585" y="0" on="1"/>
        <pt x="460" y="0" on="1"/>
        <pt x="426" y="192" on="1"/>
        <pt x="177" y="192" on="1"/>
        <pt x="68" y="0" on="1"/>
        <pt x="-52" y="0" on="1"/>
        <pt x="344" y="660" on="1"/>
        <pt x="443" y="660" on="1"/>
      </contour>
      <contour>
        <pt x="228" y="282" on="1"/>
        <pt x="409" y="282" on="1"/>
        <pt x="366" y="525" on="1"/>
      </contour>
      <contour>
        <pt x="312" y="702" on="1"/>
        <pt x="305" y="738" on="1"/>
        <pt x="309" y="745" on="1"/>
        <pt x="511" y="846" on="1"/>
        <pt x="517" y="849" on="0"/>
        <pt x="521" y="849" on="1"/>
        <pt x="532" y="849" on="0"/>
        <pt x="542" y="824" on="0"/>
        <pt x="542" y="810" on="1"/>
        <pt x="542" y="796" on="0"/>
        <pt x="531" y="771" on="0"/>
        <pt x="521" y="768" on="1"/>
        <pt x="319" y="699" on="1"/>
      </contour>
    </TTGlyph>
    <TTGlyph name="Acircumflex" xMin="-52" yMin="0" xMax="585" yMax="842">
      <contour>
        <pt x="585" y="0" on="1"/>
        <pt x="460" y="0" on="1"/>
        <pt x="426" y="192" on="1"/>
        <pt x="177" y="192" on="1"/>
        <pt x="68" y="0" on="1"/>
        <pt x="-52" y="0" on="1"/>
        <pt x="344" y="660" on="1"/>
        <pt x="443" y="660" on="1"/>
      </contour>
      <contour>
        <pt x="228" y="282" on="1"/>
        <pt x="409" y="282" on="1"/>
        <pt x="366" y="525" on="1"/>
      </contour>
      <contour>
        <pt x="448" y="842" on="1"/>
        <pt x="537" y="743" on="1"/>
        <pt x="538" y="736" on="1"/>
        <pt x="516" y="707" on="1"/>
        <pt x="509" y="704" on="1"/>
        <pt x="423" y="745" on="1"/>
        <pt x="321" y="704" on="1"/>
        <pt x="314" y="707" on="1"/>
        <pt x="304" y="736" on="1"/>
        <pt x="309" y="743" on="1"/>
        <pt x="440" y="842" on="1"/>
      </contour>
    </TTGlyph>
    <TTGlyph name="Adieresis" xMin="-52" yMin="0" xMax="585" yMax="842">
      <contour>
        <pt x="585" y="0" on="1"/>
        <pt x="460" y="0" on="1"/>
        <pt x="426" y="192" on="1"/>
        <pt x="177" y="192" on="1"/>
        <pt x="68" y="0" on="1"/>
        <pt x="-52" y="0" on="1"/>
        <pt x="344" y="660" on="1"/>
        <pt x="443" y="660" on="1"/>
      </contour>
      <contour>
        <pt x="228" y="282" on="1"/>
        <pt x="409" y="282" on="1"/>
        <pt x="366" y="525" on="1"/>
      </contour>
      <contour>
        <pt x="303" y="774" on="1"/>
        <pt x="303" y="787" on="0"/>
        <pt x="315" y="811" on="0"/>
        <pt x="335" y="830" on="0"/>
        <pt x="361" y="842" on="0"/>
        <pt x="374" y="842" on="1"/>
        <pt x="394" y="842" on="0"/>
        <pt x="422" y="811" on="0"/>
        <pt x="422" y="791" on="1"/>
        <pt x="422" y="778" on="0"/>
        <pt x="409" y="755" on="0"/>
        <pt x="388" y="737" on="0"/>
        <pt x="362" y="726" on="0"/>
        <pt x="349" y="726" on="1"/>
        <pt x="329" y="726" on="0"/>
        <pt x="303" y="754" on="0"/>
      </contour>
      <contour>
        <pt x="439" y="774" on="1"/>
        <pt x="439" y="787" on="0"/>
        <pt x="451" y="811" on="0"/>
        <pt x="471" y="830" on="0"/>
        <pt x="497" y="842" on="0"/>
        <pt x="510" y="842" on="1"/>
        <pt x="530" y="842" on="0"/>
        <pt x="558" y="811" on="0"/>
        <pt x="558" y="791" on="1"/>
        <pt x="558" y="778" on="0"/>
        <pt x="544" y="755" on="0"/>
        <pt x="523" y="737" on="0"/>
        <pt x="497" y="726" on="0"/>
        <pt x="485" y="726" on="1"/>
        <pt x="465" y="726" on="0"/>
        <pt x="439" y="754" on="0"/>
      </contour>
    </TTGlyph>
    <TTGlyph name="Agrave" xMin="-51" yMin="1" xMax="586" yMax="848">
      <contour>
        <pt x="586" y="1" on="1"/>
        <pt x="461" y="1" on="1"/>
        <pt x="427" y="193" on="1"/>
        <pt x="178" y="193" on="1"/>
        <pt x="69" y="1" on="1"/>
        <pt x="-51" y="1" on="1"/>
        <pt x="345" y="661" on="1"/>
        <pt x="444" y="661" on="1"/>
      </contour>
      <contour>
        <pt x="229" y="283" on="1"/>
        <pt x="410" y="283" on="1"/>
        <pt x="367" y="526" on="1"/>
      </contour>
      <contour>
        <pt x="501" y="698" on="1"/>
        <pt x="328" y="767" on="1"/>
        <pt x="320" y="770" on="0"/>
        <pt x="320" y="786" on="1"/>
        <pt x="320" y="795" on="0"/>
        <pt x="327" y="817" on="0"/>
        <pt x="339" y="836" on="0"/>
        <pt x="354" y="848" on="0"/>
        <pt x="362" y="848" on="1"/>
        <pt x="366" y="848" on="0"/>
        <pt x="371" y="845" on="1"/>
        <pt x="530" y="744" on="1"/>
        <pt x="531" y="737" on="1"/>
        <pt x="509" y="701" on="1"/>
      </contour>
    </TTGlyph>
    <TTGlyph name="Aring" xMin="-53" yMin="0" xMax="592" yMax="792">
      <contour>
        <pt x="424" y="792" on="1"/>
        <pt x="462" y="792" on="0"/>
        <pt x="503" y="747" on="0"/>
        <pt x="503" y="717" on="1"/>
        <pt x="503" y="691" on="0"/>
        <pt x="471" y="648" on="0"/>
        <pt x="448" y="635" on="1"/>
        <pt x="592" y="0" on="1"/>
        <pt x="463" y="0" on="1"/>
        <pt x="431" y="202" on="1"/>
        <pt x="182" y="202" on="1"/>
        <pt x="71" y="0" on="1"/>
        <pt x="-53" y="0" on="1"/>
        <pt x="335" y="635" on="1"/>
        <pt x="321" y="643" on="0"/>
        <pt x="307" y="674" on="0"/>
        <pt x="307" y="691" on="1"/>
        <pt x="307" y="710" on="0"/>
        <pt x="325" y="747" on="0"/>
        <pt x="357" y="775" on="0"/>
        <pt x="400" y="792" on="0"/>
      </contour>
      <contour>
        <pt x="233" y="292" on="1"/>
        <pt x="414" y="292" on="1"/>
        <pt x="369" y="525" on="1"/>
      </contour>
      <contour>
        <pt x="398" y="664" on="1"/>
        <pt x="415" y="664" on="0"/>
        <pt x="442" y="693" on="0"/>
        <pt x="442" y="710" on="1"/>
        <pt x="442" y="724" on="0"/>
        <pt x="427" y="742" on="0"/>
        <pt x="413" y="742" on="1"/>
        <pt x="393" y="742" on="0"/>
        <pt x="367" y="716" on="0"/>
        <pt x="367" y="699" on="1"/>
        <pt x="367" y="685" on="0"/>
        <pt x="384" y="664" on="0"/>
      </contour>
    </TTGlyph>
    <TTGlyph name="Atilde" xMin="-52" yMin="0" xMax="593" yMax="841">
      <contour>
        <pt x="585" y="0" on="1"/>
        <pt x="460" y="0" on="1"/>
        <pt x="426" y="192" on="1"/>
        <pt x="177" y="192" on="1"/>
        <pt x="68" y="0" on="1"/>
        <pt x="-52" y="0" on="1"/>
        <pt x="344" y="660" on="1"/>
        <pt x="443" y="660" on="1"/>
      </contour>
      <contour>
        <pt x="228" y="282" on="1"/>
        <pt x="409" y="282" on="1"/>
        <pt x="366" y="525" on="1"/>
      </contour>
      <contour>
        <pt x="593" y="818" on="1"/>
        <pt x="587" y="802" on="0"/>
        <pt x="567" y="769" on="0"/>
        <pt x="540" y="743" on="0"/>
        <pt x="505" y="726" on="0"/>
        <pt x="483" y="726" on="1"/>
        <pt x="471" y="726" on="0"/>
        <pt x="441" y="730" on="0"/>
        <pt x="406" y="736" on="0"/>
        <pt x="370" y="740" on="0"/>
        <pt x="353" y="740" on="1"/>
        <pt x="330" y="740" on="0"/>
        <pt x="290" y="729" on="0"/>
        <pt x="273" y="715" on="1"/>
        <pt x="265" y="738" on="1"/>
        <pt x="274" y="756" on="0"/>
        <pt x="295" y="789" on="0"/>
        <pt x="322" y="814" on="0"/>
        <pt x="357" y="829" on="0"/>
        <pt x="382" y="829" on="1"/>
        <pt x="411" y="829" on="0"/>
        <pt x="477" y="815" on="0"/>
        <pt x="504" y="815" on="1"/>
        <pt x="522" y="815" on="0"/>
        <pt x="563" y="826" on="0"/>
        <pt x="586" y="841" on="1"/>
      </contour>
    </TTGlyph>
    <TTGlyph name="B" xMin="30" yMin="-12" xMax="520" yMax="665">
      <contour>
        <pt x="221" y="-12" on="1"/>
        <pt x="166" y="-12" on="0"/>
        <pt x="65" y="-5" on="0"/>
        <pt x="30" y="0" on="1"/>
        <pt x="170" y="660" on="1"/>
        <pt x="182" y="661" on="0"/>
        <pt x="222" y="662" on="0"/>
        <pt x="268" y="664" on="0"/>
        <pt x="314" y="665" on="0"/>
        <pt x="332" y="665" on="1"/>
        <pt x="424" y="665" on="0"/>
        <pt x="520" y="595" on="0"/>
        <pt x="520" y="528" on="1"/>
        <pt x="520" y="477" on="0"/>
        <pt x="470" y="393" on="0"/>
        <pt x="419" y="365" on="1"/>
        <pt x="465" y="348" on="0"/>
        <pt x="516" y="279" on="0"/>
        <pt x="516" y="228" on="1"/>
        <pt x="516" y="182" on="0"/>
        <pt x="477" y="95" on="0"/>
        <pt x="402" y="28" on="0"/>
        <pt x="292" y="-12" on="0"/>
      </contour>
      <contour>
        <pt x="285" y="311" on="1"/>
        <pt x="266" y="311" on="0"/>
        <pt x="228" y="310" on="0"/>
        <pt x="210" y="309" on="1"/>
        <pt x="163" y="86" on="1"/>
        <pt x="180" y="84" on="0"/>
        <pt x="219" y="84" on="0"/>
        <pt x="239" y="84" on="1"/>
        <pt x="311" y="84" on="0"/>
        <pt x="396" y="159" on="0"/>
        <pt x="396" y="225" on="1"/>
        <pt x="396" y="264" on="0"/>
        <pt x="344" y="311" on="0"/>
      </contour>
      <contour>
        <pt x="331" y="571" on="1"/>
        <pt x="311" y="571" on="0"/>
        <pt x="279" y="568" on="0"/>
        <pt x="265" y="566" on="1"/>
        <pt x="228" y="395" on="1"/>
        <pt x="240" y="394" on="0"/>
        <pt x="266" y="394" on="0"/>
        <pt x="279" y="394" on="1"/>
        <pt x="305" y="394" on="0"/>
        <pt x="349" y="414" on="0"/>
        <pt x="380" y="447" on="0"/>
        <pt x="397" y="491" on="0"/>
        <pt x="397" y="514" on="1"/>
        <pt x="397" y="539" on="0"/>
        <pt x="363" y="571" on="0"/>
      </contour>
    </TTGlyph>
    <TTGlyph name="C" xMin="53" yMin="-12" xMax="658" yMax="665">
      <contour>
        <pt x="607" y="518" on="1"/>
        <pt x="580" y="540" on="0"/>
        <pt x="496" y="567" on="0"/>
        <pt x="439" y="567" on="1"/>
        <pt x="367" y="567" on="0"/>
        <pt x="267" y="515" on="0"/>
        <pt x="205" y="429" on="0"/>
        <pt x="177" y="318" on="0"/>
        <pt x="177" y="260" on="1"/>
        <pt x="177" y="175" on="0"/>
        <pt x="257" y="86" on="0"/>
        <pt x="335" y="86" on="1"/>
        <pt x="395" y="86" on="0"/>
        <pt x="501" y="122" on="0"/>
        <pt x="539" y="148" on="1"/>
        <pt x="548" y="49" on="1"/>
        <pt x="503" y="25" on="0"/>
        <pt x="382" y="-12" on="0"/>
        <pt x="311" y="-12" on="1"/>
        <pt x="243" y="-12" on="0"/>
        <pt x="146" y="29" on="0"/>
        <pt x="83" y="100" on="0"/>
        <pt x="53" y="195" on="0"/>
        <pt x="53" y="248" on="1"/>
        <pt x="53" y="329" on="0"/>
        <pt x="109" y="480" on="0"/>
        <pt x="216" y="595" on="0"/>
        <pt x="369" y="665" on="0"/>
        <pt x="466" y="665" on="1"/>
        <pt x="520" y="665" on="0"/>
        <pt x="623" y="642" on="0"/>
        <pt x="658" y="622" on="1"/>
      </contour>
    </TTGlyph>
    <TTGlyph name="Ccedilla" xMin="54" yMin="-218" xMax="659" yMax="665">
      <contour>
        <pt x="161" y="-193" on="1"/>
        <pt x="200" y="-145" on="1"/>
        <pt x="207" y="-145" on="1"/>
        <pt x="217" y="-150" on="0"/>
        <pt x="250" y="-157" on="0"/>
        <pt x="267" y="-157" on="1"/>
        <pt x="287" y="-157" on="0"/>
        <pt x="318" y="-142" on="0"/>
        <pt x="318" y="-121" on="1"/>
        <pt x="318" y="-107" on="0"/>
        <pt x="297" y="-96" on="0"/>
        <pt x="282" y="-96" on="1"/>
        <pt x="270" y="-96" on="0"/>
        <pt x="244" y="-100" on="0"/>
        <pt x="233" y="-103" on="1"/>
        <pt x="219" y="-77" on="1"/>
        <pt x="277" y="-10" on="1"/>
        <pt x="219" y="-5" on="0"/>
        <pt x="135" y="40" on="0"/>
        <pt x="80" y="109" on="0"/>
        <pt x="54" y="198" on="0"/>
        <pt x="54" y="248" on="1"/>
        <pt x="54" y="329" on="0"/>
        <pt x="110" y="480" on="0"/>
        <pt x="217" y="595" on="0"/>
        <pt x="370" y="665" on="0"/>
        <pt x="467" y="665" on="1"/>
        <pt x="521" y="665" on="0"/>
        <pt x="624" y="642" on="0"/>
        <pt x="659" y="622" on="1"/>
        <pt x="608" y="518" on="1"/>
        <pt x="581" y="540" on="0"/>
        <pt x="497" y="567" on="0"/>
        <pt x="440" y="567" on="1"/>
        <pt x="368" y="567" on="0"/>
        <pt x="268" y="515" on="0"/>
        <pt x="206" y="429" on="0"/>
        <pt x="178" y="318" on="0"/>
        <pt x="178" y="260" on="1"/>
        <pt x="178" y="175" on="0"/>
        <pt x="258" y="86" on="0"/>
        <pt x="336" y="86" on="1"/>
        <pt x="396" y="86" on="0"/>
        <pt x="502" y="122" on="0"/>
        <pt x="540" y="148" on="1"/>
        <pt x="549" y="49" on="1"/>
        <pt x="507" y="26" on="0"/>
        <pt x="396" y="-9" on="0"/>
        <pt x="330" y="-11" on="1"/>
        <pt x="307" y="-41" on="1"/>
        <pt x="315" y="-39" on="0"/>
        <pt x="331" y="-37" on="0"/>
        <pt x="337" y="-37" on="1"/>
        <pt x="366" y="-37" on="0"/>
        <pt x="400" y="-74" on="0"/>
        <pt x="400" y="-103" on="1"/>
        <pt x="400" y="-126" on="0"/>
        <pt x="376" y="-167" on="0"/>
        <pt x="335" y="-199" on="0"/>
        <pt x="282" y="-218" on="0"/>
        <pt x="252" y="-218" on="1"/>
        <pt x="226" y="-218" on="0"/>
        <pt x="180" y="-207" on="0"/>
        <pt x="161" y="-199" on="1"/>
      </contour>
    </TTGlyph>
    <TTGlyph name="D" xMin="30" yMin="-11" xMax="678" yMax="665">
      <contour>
        <pt x="170" y="660" on="1"/>
        <pt x="184" y="661" on="0"/>
        <pt x="240" y="663" on="0"/>
        <pt x="302" y="664" on="0"/>
        <pt x="359" y="665" on="0"/>
        <pt x="375" y="665" on="1"/>
        <pt x="471" y="665" on="0"/>
        <pt x="589" y="625" on="0"/>
        <pt x="622" y="590" on="1"/>
        <pt x="651" y="559" on="0"/>
        <pt x="678" y="459" on="0"/>
        <pt x="678" y="405" on="1"/>
        <pt x="678" y="306" on="0"/>
        <pt x="620" y="152" on="0"/>
        <pt x="504" y="45" on="0"/>
        <pt x="329" y="-11" on="0"/>
        <pt x="213" y="-11" on="1"/>
        <pt x="171" y="-11" on="0"/>
        <pt x="76" y="-5" on="0"/>
        <pt x="30" y="0" on="1"/>
      </contour>
      <contour>
        <pt x="261" y="84" on="1"/>
        <pt x="349" y="84" on="0"/>
        <pt x="463" y="131" on="0"/>
        <pt x="530" y="216" on="0"/>
        <pt x="556" y="333" on="0"/>
        <pt x="556" y="403" on="1"/>
        <pt x="556" y="484" on="0"/>
        <pt x="464" y="569" on="0"/>
        <pt x="353" y="569" on="1"/>
        <pt x="339" y="569" on="0"/>
        <pt x="292" y="569" on="0"/>
        <pt x="265" y="568" on="1"/>
        <pt x="163" y="88" on="1"/>
        <pt x="191" y="86" on="0"/>
        <pt x="243" y="84" on="0"/>
      </contour>
    </TTGlyph>
    <TTGlyph name="Dcroat" xMin="28" yMin="-11" xMax="683" yMax="665">
      <contour>
        <pt x="176" y="660" on="1"/>
        <pt x="190" y="661" on="0"/>
        <pt x="246" y="663" on="0"/>
        <pt x="308" y="664" on="0"/>
        <pt x="365" y="665" on="0"/>
        <pt x="381" y="665" on="1"/>
        <pt x="477" y="665" on="0"/>
        <pt x="595" y="625" on="0"/>
        <pt x="628" y="590" on="1"/>
        <pt x="657" y="559" on="0"/>
        <pt x="683" y="459" on="0"/>
        <pt x="683" y="405" on="1"/>
        <pt x="683" y="306" on="0"/>
        <pt x="625" y="152" on="0"/>
        <pt x="509" y="45" on="0"/>
        <pt x="335" y="-11" on="0"/>
        <pt x="219" y="-11" on="1"/>
        <pt x="177" y="-11" on="0"/>
        <pt x="81" y="-5" on="0"/>
        <pt x="36" y="0" on="1"/>
        <pt x="102" y="311" on="1"/>
        <pt x="28" y="311" on="1"/>
        <pt x="44" y="385" on="1"/>
        <pt x="118" y="385" on="1"/>
      </contour>
      <contour>
        <pt x="381" y="385" on="1"/>
        <pt x="365" y="311" on="1"/>
        <pt x="217" y="311" on="1"/>
        <pt x="170" y="88" on="1"/>
        <pt x="197" y="86" on="0"/>
        <pt x="249" y="84" on="0"/>
        <pt x="267" y="84" on="1"/>
        <pt x="355" y="84" on="0"/>
        <pt x="469" y="131" on="0"/>
        <pt x="536" y="216" on="0"/>
        <pt x="562" y="333" on="0"/>
        <pt x="562" y="403" on="1"/>
        <pt x="562" y="484" on="0"/>
        <pt x="470" y="569" on="0"/>
        <pt x="359" y="569" on="1"/>
        <pt x="345" y="569" on="0"/>
        <pt x="298" y="569" on="0"/>
        <pt x="272" y="568" on="1"/>
        <pt x="233" y="385" on="1"/>
      </contour>
    </TTGlyph>
    <TTGlyph name="E" xMin="30" yMin="0" xMax="552" yMax="660">
      <contour>
        <pt x="409" y="300" on="1"/>
        <pt x="208" y="300" on="1"/>
        <pt x="166" y="100" on="1"/>
        <pt x="453" y="100" on="1"/>
        <pt x="432" y="0" on="1"/>
        <pt x="30" y="0" on="1"/>
        <pt x="170" y="660" on="1"/>
        <pt x="552" y="660" on="1"/>
        <pt x="531" y="560" on="1"/>
        <pt x="263" y="560" on="1"/>
        <pt x="229" y="400" on="1"/>
        <pt x="430" y="400" on="1"/>
      </contour>
    </TTGlyph>
    <TTGlyph name="Eacute" xMin="30" yMin="0" xMax="552" yMax="848">
      <contour>
        <pt x="409" y="300" on="1"/>
        <pt x="208" y="300" on="1"/>
        <pt x="166" y="100" on="1"/>
        <pt x="453" y="100" on="1"/>
        <pt x="432" y="0" on="1"/>
        <pt x="30" y="0" on="1"/>
        <pt x="170" y="660" on="1"/>
        <pt x="552" y="660" on="1"/>
        <pt x="531" y="560" on="1"/>
        <pt x="263" y="560" on="1"/>
        <pt x="229" y="400" on="1"/>
        <pt x="430" y="400" on="1"/>
      </contour>
      <contour>
        <pt x="292" y="701" on="1"/>
        <pt x="285" y="737" on="1"/>
        <pt x="289" y="744" on="1"/>
        <pt x="491" y="845" on="1"/>
        <pt x="497" y="848" on="0"/>
        <pt x="501" y="848" on="1"/>
        <pt x="512" y="848" on="0"/>
        <pt x="522" y="823" on="0"/>
        <pt x="522" y="809" on="1"/>
        <pt x="522" y="795" on="0"/>
        <pt x="511" y="770" on="0"/>
        <pt x="501" y="767" on="1"/>
        <pt x="299" y="698" on="1"/>
      </contour>
    </TTGlyph>
    <TTGlyph name="Ecircumflex" xMin="30" yMin="0" xMax="552" yMax="842">
      <contour>
        <pt x="409" y="300" on="1"/>
        <pt x="208" y="300" on="1"/>
        <pt x="166" y="100" on="1"/>
        <pt x="453" y="100" on="1"/>
        <pt x="432" y="0" on="1"/>
        <pt x="30" y="0" on="1"/>
        <pt x="170" y="660" on="1"/>
        <pt x="552" y="660" on="1"/>
        <pt x="531" y="560" on="1"/>
        <pt x="263" y="560" on="1"/>
        <pt x="229" y="400" on="1"/>
        <pt x="430" y="400" on="1"/>
      </contour>
      <contour>
        <pt x="421" y="842" on="1"/>
        <pt x="510" y="743" on="1"/>
        <pt x="511" y="736" on="1"/>
        <pt x="489" y="707" on="1"/>
        <pt x="482" y="704" on="1"/>
        <pt x="396" y="745" on="1"/>
        <pt x="294" y="704" on="1"/>
        <pt x="287" y="707" on="1"/>
        <pt x="277" y="736" on="1"/>
        <pt x="282" y="743" on="1"/>
        <pt x="413" y="842" on="1"/>
      </contour>
    </TTGlyph>
    <TTGlyph name="Edieresis" xMin="30" yMin="0" xMax="552" yMax="843">
      <contour>
        <pt x="409" y="300" on="1"/>
        <pt x="208" y="300" on="1"/>
        <pt x="166" y="100" on="1"/>
        <pt x="453" y="100" on="1"/>
        <pt x="432" y="0" on="1"/>
        <pt x="30" y="0" on="1"/>
        <pt x="170" y="660" on="1"/>
        <pt x="552" y="660" on="1"/>
        <pt x="531" y="560" on="1"/>
        <pt x="263" y="560" on="1"/>
        <pt x="229" y="400" on="1"/>
        <pt x="430" y="400" on="1"/>
      </contour>
      <contour>
        <pt x="268" y="775" on="1"/>
        <pt x="268" y="788" on="0"/>
        <pt x="281" y="812" on="0"/>
        <pt x="301" y="831" on="0"/>
        <pt x="326" y="843" on="0"/>
        <pt x="339" y="843" on="1"/>
        <pt x="359" y="843" on="0"/>
        <pt x="387" y="812" on="0"/>
        <pt x="387" y="792" on="1"/>
        <pt x="387" y="779" on="0"/>
        <pt x="374" y="756" on="0"/>
        <pt x="353" y="738" on="0"/>
        <pt x="327" y="727" on="0"/>
        <pt x="315" y="727" on="1"/>
        <pt x="294" y="727" on="0"/>
        <pt x="268" y="755" on="0"/>
      </contour>
      <contour>
        <pt x="404" y="775" on="1"/>
        <pt x="404" y="788" on="0"/>
        <pt x="417" y="812" on="0"/>
        <pt x="437" y="831" on="0"/>
        <pt x="462" y="843" on="0"/>
        <pt x="475" y="843" on="1"/>
        <pt x="495" y="843" on="0"/>
        <pt x="523" y="812" on="0"/>
        <pt x="523" y="792" on="1"/>
        <pt x="523" y="779" on="0"/>
        <pt x="510" y="756" on="0"/>
        <pt x="489" y="738" on="0"/>
        <pt x="463" y="727" on="0"/>
        <pt x="451" y="727" on="1"/>
        <pt x="430" y="727" on="0"/>
        <pt x="404" y="755" on="0"/>
      </contour>
    </TTGlyph>
    <TTGlyph name="Egrave" xMin="30" yMin="0" xMax="552" yMax="848">
      <contour>
        <pt x="409" y="300" on="1"/>
        <pt x="208" y="300" on="1"/>
        <pt x="166" y="100" on="1"/>
        <pt x="453" y="100" on="1"/>
        <pt x="432" y="0" on="1"/>
        <pt x="30" y="0" on="1"/>
        <pt x="170" y="660" on="1"/>
        <pt x="552" y="660" on="1"/>
        <pt x="531" y="560" on="1"/>
        <pt x="263" y="560" on="1"/>
        <pt x="229" y="400" on="1"/>
        <pt x="430" y="400" on="1"/>
      </contour>
      <contour>
        <pt x="465" y="698" on="1"/>
        <pt x="292" y="767" on="1"/>
        <pt x="284" y="770" on="0"/>
        <pt x="284" y="786" on="1"/>
        <pt x="284" y="795" on="0"/>
        <pt x="291" y="817" on="0"/>
        <pt x="303" y="836" on="0"/>
        <pt x="318" y="848" on="0"/>
        <pt x="326" y="848" on="1"/>
        <pt x="330" y="848" on="0"/>
        <pt x="336" y="845" on="1"/>
        <pt x="494" y="744" on="1"/>
        <pt x="496" y="737" on="1"/>
        <pt x="473" y="701" on="1"/>
      </contour>
    </TTGlyph>
    <TTGlyph name="Eth" xMin="28" yMin="-11" xMax="683" yMax="665">
      <contour>
        <pt x="176" y="660" on="1"/>
        <pt x="190" y="661" on="0"/>
        <pt x="246" y="663" on="0"/>
        <pt x="308" y="664" on="0"/>
        <pt x="365" y="665" on="0"/>
        <pt x="381" y="665" on="1"/>
        <pt x="477" y="665" on="0"/>
        <pt x="595" y="625" on="0"/>
        <pt x="628" y="590" on="1"/>
        <pt x="657" y="559" on="0"/>
        <pt x="683" y="459" on="0"/>
        <pt x="683" y="405" on="1"/>
        <pt x="683" y="306" on="0"/>
        <pt x="625" y="152" on="0"/>
        <pt x="509" y="45" on="0"/>
        <pt x="335" y="-11" on="0"/>
        <pt x="219" y="-11" on="1"/>
        <pt x="177" y="-11" on="0"/>
        <pt x="81" y="-5" on="0"/>
        <pt x="36" y="0" on="1"/>
        <pt x="102" y="311" on="1"/>
        <pt x="28" y="311" on="1"/>
        <pt x="44" y="385" on="1"/>
        <pt x="118" y="385" on="1"/>
      </contour>
      <contour>
        <pt x="381" y="385" on="1"/>
        <pt x="365" y="311" on="1"/>
        <pt x="217" y="311" on="1"/>
        <pt x="170" y="88" on="1"/>
        <pt x="197" y="86" on="0"/>
        <pt x="249" y="84" on="0"/>
        <pt x="267" y="84" on="1"/>
        <pt x="355" y="84" on="0"/>
        <pt x="469" y="131" on="0"/>
        <pt x="536" y="216" on="0"/>
        <pt x="562" y="333" on="0"/>
        <pt x="562" y="403" on="1"/>
        <pt x="562" y="484" on="0"/>
        <pt x="470" y="569" on="0"/>
        <pt x="359" y="569" on="1"/>
        <pt x="345" y="569" on="0"/>
        <pt x="298" y="569" on="0"/>
        <pt x="272" y="568" on="1"/>
        <pt x="233" y="385" on="1"/>
      </contour>
    </TTGlyph>
    <TTGlyph name="Euro" xMin="30" yMin="-12" xMax="637" yMax="665">
      <contour>
        <pt x="158" y="442" on="1"/>
        <pt x="180" y="490" on="0"/>
        <pt x="243" y="572" on="0"/>
        <pt x="324" y="631" on="0"/>
        <pt x="420" y="665" on="0"/>
        <pt x="476" y="665" on="1"/>
        <pt x="521" y="665" on="0"/>
        <pt x="609" y="642" on="0"/>
        <pt x="637" y="622" on="1"/>
        <pt x="582" y="511" on="1"/>
        <pt x="562" y="535" on="0"/>
        <pt x="497" y="567" on="0"/>
        <pt x="450" y="567" on="1"/>
        <pt x="414" y="567" on="0"/>
        <pt x="358" y="547" on="0"/>
        <pt x="315" y="512" on="0"/>
        <pt x="284" y="467" on="0"/>
        <pt x="273" y="442" on="1"/>
        <pt x="495" y="442" on="1"/>
        <pt x="478" y="360" on="1"/>
        <pt x="248" y="360" on="1"/>
        <pt x="245" y="346" on="0"/>
        <pt x="241" y="319" on="0"/>
        <pt x="240" y="307" on="1"/>
        <pt x="466" y="307" on="1"/>
        <pt x="449" y="225" on="1"/>
        <pt x="237" y="225" on="1"/>
        <pt x="240" y="157" on="0"/>
        <pt x="293" y="86" on="0"/>
        <pt x="341" y="86" on="1"/>
        <pt x="392" y="86" on="0"/>
        <pt x="487" y="122" on="0"/>
        <pt x="519" y="150" on="1"/>
        <pt x="528" y="49" on="1"/>
        <pt x="487" y="25" on="0"/>
        <pt x="383" y="-12" on="0"/>
        <pt x="321" y="-12" on="1"/>
        <pt x="268" y="-12" on="0"/>
        <pt x="192" y="25" on="0"/>
        <pt x="141" y="90" on="0"/>
        <pt x="116" y="176" on="0"/>
        <pt x="115" y="225" on="1"/>
        <pt x="30" y="225" on="1"/>
        <pt x="47" y="307" on="1"/>
        <pt x="120" y="307" on="1"/>
        <pt x="123" y="335" on="0"/>
        <pt x="130" y="360" on="1"/>
        <pt x="59" y="360" on="1"/>
        <pt x="76" y="442" on="1"/>
      </contour>
    </TTGlyph>
    <TTGlyph name="F" xMin="30" yMin="0" xMax="547" yMax="660">
      <contour>
        <pt x="398" y="300" on="1"/>
        <pt x="208" y="300" on="1"/>
        <pt x="145" y="0" on="1"/>
        <pt x="30" y="0" on="1"/>
        <pt x="170" y="660" on="1"/>
        <pt x="547" y="660" on="1"/>
        <pt x="526" y="560" on="1"/>
        <pt x="263" y="560" on="1"/>
        <pt x="229" y="400" on="1"/>
        <pt x="419" y="400" on="1"/>
      </contour>
    </TTGlyph>
    <TTGlyph name="G" xMin="53" yMin="-12" xMax="668" yMax="665">
      <contour>
        <pt x="556" y="55" on="1"/>
        <pt x="505" y="25" on="0"/>
        <pt x="381" y="-12" on="0"/>
        <pt x="312" y="-12" on="1"/>
        <pt x="244" y="-12" on="0"/>
        <pt x="146" y="29" on="0"/>
        <pt x="83" y="100" on="0"/>
        <pt x="53" y="194" on="0"/>
        <pt x="53" y="248" on="1"/>
        <pt x="53" y="329" on="0"/>
        <pt x="109" y="480" on="0"/>
        <pt x="215" y="595" on="0"/>
        <pt x="369" y="665" on="0"/>
        <pt x="468" y="665" on="1"/>
        <pt x="524" y="665" on="0"/>
        <pt x="629" y="642" on="0"/>
        <pt x="668" y="622" on="1"/>
        <pt x="614" y="518" on="1"/>
        <pt x="584" y="538" on="0"/>
        <pt x="500" y="567" on="0"/>
        <pt x="443" y="567" on="1"/>
        <pt x="360" y="567" on="0"/>
        <pt x="256" y="510" on="0"/>
        <pt x="197" y="420" on="0"/>
        <pt x="176" y="310" on="0"/>
        <pt x="176" y="257" on="1"/>
        <pt x="176" y="86" on="0"/>
        <pt x="342" y="86" on="1"/>
        <pt x="379" y="86" on="0"/>
        <pt x="426" y="98" on="0"/>
        <pt x="452" y="106" on="1"/>
        <pt x="487" y="272" on="1"/>
        <pt x="602" y="272" on="1"/>
      </contour>
    </TTGlyph>
    <TTGlyph name="H" xMin="30" yMin="0" xMax="716" yMax="660">
      <contour>
        <pt x="576" y="0" on="1"/>
        <pt x="461" y="0" on="1"/>
        <pt x="522" y="290" on="1"/>
        <pt x="206" y="290" on="1"/>
        <pt x="145" y="0" on="1"/>
        <pt x="30" y="0" on="1"/>
        <pt x="170" y="660" on="1"/>
        <pt x="285" y="660" on="1"/>
        <pt x="227" y="390" on="1"/>
        <pt x="543" y="390" on="1"/>
        <pt x="601" y="660" on="1"/>
        <pt x="716" y="660" on="1"/>
      </contour>
    </TTGlyph>
    <TTGlyph name="I" xMin="30" yMin="0" xMax="285" yMax="660">
      <contour>
        <pt x="145" y="0" on="1"/>
        <pt x="30" y="0" on="1"/>
        <pt x="170" y="660" on="1"/>
        <pt x="285" y="660" on="1"/>
      </contour>
    </TTGlyph>
    <TTGlyph name="IJ" xMin="30" yMin="-156" xMax="547" yMax="660">
      <contour>
        <pt x="145" y="0" on="1"/>
        <pt x="30" y="0" on="1"/>
        <pt x="170" y="660" on="1"/>
        <pt x="285" y="660" on="1"/>
      </contour>
      <contour>
        <pt x="428" y="101" on="1"/>
        <pt x="417" y="48" on="0"/>
        <pt x="374" y="-45" on="0"/>
        <pt x="311" y="-115" on="0"/>
        <pt x="230" y="-156" on="0"/>
        <pt x="180" y="-156" on="1"/>
        <pt x="176" y="-69" on="1"/>
        <pt x="211" y="-69" on="0"/>
        <pt x="258" y="-37" on="0"/>
        <pt x="289" y="12" on="0"/>
        <pt x="307" y="73" on="0"/>
        <pt x="313" y="102" on="1"/>
        <pt x="432" y="660" on="1"/>
        <pt x="547" y="660" on="1"/>
      </contour>
    </TTGlyph>
    <TTGlyph name="Iacute" xMin="30" yMin="0" xMax="382" yMax="848">
      <contour>
        <pt x="170" y="660" on="1"/>
        <pt x="285" y="660" on="1"/>
        <pt x="145" y="0" on="1"/>
        <pt x="30" y="0" on="1"/>
      </contour>
      <contour>
        <pt x="152" y="701" on="1"/>
        <pt x="145" y="737" on="1"/>
        <pt x="149" y="744" on="1"/>
        <pt x="351" y="845" on="1"/>
        <pt x="357" y="848" on="0"/>
        <pt x="361" y="848" on="1"/>
        <pt x="372" y="848" on="0"/>
        <pt x="382" y="823" on="0"/>
        <pt x="382" y="809" on="1"/>
        <pt x="382" y="795" on="0"/>
        <pt x="371" y="770" on="0"/>
        <pt x="361" y="767" on="1"/>
        <pt x="159" y="698" on="1"/>
      </contour>
    </TTGlyph>
    <TTGlyph name="Icircumflex" xMin="30" yMin="0" xMax="358" yMax="842">
      <contour>
        <pt x="145" y="0" on="1"/>
        <pt x="30" y="0" on="1"/>
        <pt x="170" y="660" on="1"/>
        <pt x="285" y="660" on="1"/>
      </contour>
      <contour>
        <pt x="268" y="842" on="1"/>
        <pt x="357" y="743" on="1"/>
        <pt x="358" y="736" on="1"/>
        <pt x="336" y="707" on="1"/>
        <pt x="329" y="704" on="1"/>
        <pt x="243" y="745" on="1"/>
        <pt x="141" y="704" on="1"/>
        <pt x="134" y="707" on="1"/>
        <pt x="124" y="736" on="1"/>
        <pt x="129" y="743" on="1"/>
        <pt x="260" y="842" on="1"/>
      </contour>
    </TTGlyph>
    <TTGlyph name="Idieresis" xMin="30" yMin="0" xMax="383" yMax="842">
      <contour>
        <pt x="145" y="0" on="1"/>
        <pt x="30" y="0" on="1"/>
        <pt x="170" y="660" on="1"/>
        <pt x="285" y="660" on="1"/>
      </contour>
      <contour>
        <pt x="128" y="774" on="1"/>
        <pt x="128" y="787" on="0"/>
        <pt x="140" y="811" on="0"/>
        <pt x="160" y="830" on="0"/>
        <pt x="186" y="842" on="0"/>
        <pt x="199" y="842" on="1"/>
        <pt x="219" y="842" on="0"/>
        <pt x="247" y="811" on="0"/>
        <pt x="247" y="791" on="1"/>
        <pt x="247" y="778" on="0"/>
        <pt x="234" y="755" on="0"/>
        <pt x="213" y="737" on="0"/>
        <pt x="187" y="726" on="0"/>
        <pt x="174" y="726" on="1"/>
        <pt x="154" y="726" on="0"/>
        <pt x="128" y="754" on="0"/>
      </contour>
      <contour>
        <pt x="264" y="774" on="1"/>
        <pt x="264" y="787" on="0"/>
        <pt x="276" y="811" on="0"/>
        <pt x="296" y="830" on="0"/>
        <pt x="322" y="842" on="0"/>
        <pt x="335" y="842" on="1"/>
        <pt x="355" y="842" on="0"/>
        <pt x="383" y="811" on="0"/>
        <pt x="383" y="791" on="1"/>
        <pt x="383" y="778" on="0"/>
        <pt x="370" y="755" on="0"/>
        <pt x="349" y="737" on="0"/>
        <pt x="323" y="726" on="0"/>
        <pt x="310" y="726" on="1"/>
        <pt x="290" y="726" on="0"/>
        <pt x="264" y="754" on="0"/>
      </contour>
    </TTGlyph>
    <TTGlyph name="Igrave" xMin="30" yMin="0" xMax="344" yMax="848">
      <contour>
        <pt x="145" y="0" on="1"/>
        <pt x="30" y="0" on="1"/>
        <pt x="170" y="660" on="1"/>
        <pt x="285" y="660" on="1"/>
      </contour>
      <contour>
        <pt x="313" y="698" on="1"/>
        <pt x="140" y="767" on="1"/>
        <pt x="132" y="770" on="0"/>
        <pt x="132" y="786" on="1"/>
        <pt x="132" y="795" on="0"/>
        <pt x="139" y="817" on="0"/>
        <pt x="151" y="836" on="0"/>
        <pt x="166" y="848" on="0"/>
        <pt x="174" y="848" on="1"/>
        <pt x="178" y="848" on="0"/>
        <pt x="184" y="845" on="1"/>
        <pt x="342" y="744" on="1"/>
        <pt x="344" y="737" on="1"/>
        <pt x="321" y="701" on="1"/>
      </contour>
    </TTGlyph>
    <TTGlyph name="J" xMin="-85" yMin="-156" xMax="286" yMax="660">
      <contour>
        <pt x="167" y="101" on="1"/>
        <pt x="156" y="48" on="0"/>
        <pt x="113" y="-45" on="0"/>
        <pt x="50" y="-115" on="0"/>
        <pt x="-31" y="-156" on="0"/>
        <pt x="-81" y="-156" on="1"/>
        <pt x="-85" y="-69" on="1"/>
        <pt x="-50" y="-69" on="0"/>
        <pt x="-3" y="-37" on="0"/>
        <pt x="28" y="12" on="0"/>
        <pt x="46" y="73" on="0"/>
        <pt x="52" y="102" on="1"/>
        <pt x="171" y="660" on="1"/>
        <pt x="286" y="660" on="1"/>
      </contour>
    </TTGlyph>
    <TTGlyph name="K" xMin="30" yMin="0" xMax="648" yMax="660">
      <contour>
        <pt x="145" y="0" on="1"/>
        <pt x="30" y="0" on="1"/>
        <pt x="170" y="660" on="1"/>
        <pt x="285" y="660" on="1"/>
        <pt x="224" y="372" on="1"/>
        <pt x="257" y="398" on="0"/>
        <pt x="320" y="451" on="0"/>
        <pt x="348" y="477" on="1"/>
        <pt x="400" y="525" on="0"/>
        <pt x="488" y="616" on="0"/>
        <pt x="522" y="660" on="1"/>
        <pt x="648" y="660" on="1"/>
        <pt x="592" y="600" on="0"/>
        <pt x="490" y="500" on="0"/>
        <pt x="431" y="446" on="1"/>
        <pt x="409" y="426" on="0"/>
        <pt x="362" y="384" on="0"/>
        <pt x="337" y="363" on="1"/>
        <pt x="555" y="0" on="1"/>
        <pt x="422" y="0" on="1"/>
        <pt x="248" y="289" on="1"/>
        <pt x="235" y="278" on="0"/>
        <pt x="210" y="259" on="0"/>
        <pt x="198" y="250" on="1"/>
      </contour>
    </TTGlyph>
    <TTGlyph name="L" xMin="30" yMin="0" xMax="441" yMax="660">
      <contour>
        <pt x="166" y="100" on="1"/>
        <pt x="441" y="100" on="1"/>
        <pt x="420" y="0" on="1"/>
        <pt x="30" y="0" on="1"/>
        <pt x="170" y="660" on="1"/>
        <pt x="285" y="660" on="1"/>
      </contour>
    </TTGlyph>
    <TTGlyph name="M" xMin="30" yMin="0" xMax="876" yMax="660">
      <contour>
        <pt x="419" y="156" on="1"/>
        <pt x="745" y="660" on="1"/>
        <pt x="876" y="660" on="1"/>
        <pt x="736" y="0" on="1"/>
        <pt x="622" y="0" on="1"/>
        <pt x="714" y="435" on="1"/>
        <pt x="432" y="0" on="1"/>
        <pt x="340" y="0" on="1"/>
        <pt x="237" y="435" on="1"/>
        <pt x="145" y="0" on="1"/>
        <pt x="30" y="0" on="1"/>
        <pt x="170" y="660" on="1"/>
        <pt x="301" y="660" on="1"/>
      </contour>
    </TTGlyph>
    <TTGlyph name="N" xMin="30" yMin="0" xMax="716" yMax="660">
      <contour>
        <pt x="498" y="175" on="1"/>
        <pt x="601" y="660" on="1"/>
        <pt x="716" y="660" on="1"/>
        <pt x="576" y="0" on="1"/>
        <pt x="435" y="0" on="1"/>
        <pt x="248" y="484" on="1"/>
        <pt x="145" y="0" on="1"/>
        <pt x="30" y="0" on="1"/>
        <pt x="170" y="660" on="1"/>
        <pt x="311" y="660" on="1"/>
      </contour>
    </TTGlyph>
    <TTGlyph name="Ntilde" xMin="30" yMin="0" xMax="716" yMax="841">
      <contour>
        <pt x="498" y="175" on="1"/>
        <pt x="601" y="660" on="1"/>
        <pt x="716" y="660" on="1"/>
        <pt x="576" y="0" on="1"/>
        <pt x="435" y="0" on="1"/>
        <pt x="248" y="484" on="1"/>
        <pt x="145" y="0" on="1"/>
        <pt x="30" y="0" on="1"/>
        <pt x="170" y="660" on="1"/>
        <pt x="311" y="660" on="1"/>
      </contour>
      <contour>
        <pt x="616" y="818" on="1"/>
        <pt x="610" y="802" on="0"/>
        <pt x="590" y="769" on="0"/>
        <pt x="563" y="743" on="0"/>
        <pt x="528" y="726" on="0"/>
        <pt x="506" y="726" on="1"/>
        <pt x="494" y="726" on="0"/>
        <pt x="464" y="730" on="0"/>
        <pt x="429" y="736" on="0"/>
        <pt x="393" y="740" on="0"/>
        <pt x="376" y="740" on="1"/>
        <pt x="353" y="740" on="0"/>
        <pt x="313" y="729" on="0"/>
        <pt x="296" y="715" on="1"/>
        <pt x="288" y="738" on="1"/>
        <pt x="297" y="756" on="0"/>
        <pt x="318" y="789" on="0"/>
        <pt x="345" y="814" on="0"/>
        <pt x="380" y="829" on="0"/>
        <pt x="405" y="829" on="1"/>
        <pt x="434" y="829" on="0"/>
        <pt x="500" y="815" on="0"/>
        <pt x="527" y="815" on="1"/>
        <pt x="545" y="815" on="0"/>
        <pt x="586" y="826" on="0"/>
        <pt x="609" y="841" on="1"/>
      </contour>
    </TTGlyph>
    <TTGlyph name="O" xMin="53" yMin="-12" xMax="718" yMax="665">
      <contour>
        <pt x="173" y="251" on="1"/>
        <pt x="173" y="177" on="0"/>
        <pt x="254" y="86" on="0"/>
        <pt x="335" y="86" on="1"/>
        <pt x="401" y="86" on="0"/>
        <pt x="501" y="142" on="0"/>
        <pt x="567" y="231" on="0"/>
        <pt x="600" y="342" on="0"/>
        <pt x="600" y="398" on="1"/>
        <pt x="600" y="435" on="0"/>
        <pt x="580" y="497" on="0"/>
        <pt x="538" y="542" on="0"/>
        <pt x="474" y="567" on="0"/>
        <pt x="429" y="567" on="1"/>
        <pt x="360" y="567" on="0"/>
        <pt x="263" y="510" on="0"/>
        <pt x="202" y="419" on="0"/>
        <pt x="173" y="306" on="0"/>
      </contour>
      <contour>
        <pt x="458" y="665" on="1"/>
        <pt x="524" y="665" on="0"/>
        <pt x="621" y="623" on="0"/>
        <pt x="686" y="550" on="0"/>
        <pt x="718" y="453" on="0"/>
        <pt x="718" y="398" on="1"/>
        <pt x="718" y="323" on="0"/>
        <pt x="662" y="177" on="0"/>
        <pt x="555" y="60" on="0"/>
        <pt x="403" y="-12" on="0"/>
        <pt x="307" y="-12" on="1"/>
        <pt x="241" y="-12" on="0"/>
        <pt x="145" y="29" on="0"/>
        <pt x="83" y="100" on="0"/>
        <pt x="53" y="195" on="0"/>
        <pt x="53" y="249" on="1"/>
        <pt x="53" y="331" on="0"/>
        <pt x="111" y="481" on="0"/>
        <pt x="218" y="596" on="0"/>
        <pt x="367" y="665" on="0"/>
      </contour>
    </TTGlyph>
    <TTGlyph name="OE" xMin="53" yMin="-12" xMax="872" yMax="665">
      <contour>
        <pt x="751" y="0" on="1"/>
        <pt x="405" y="0" on="1"/>
        <pt x="360" y="-12" on="0"/>
        <pt x="307" y="-12" on="1"/>
        <pt x="241" y="-12" on="0"/>
        <pt x="145" y="29" on="0"/>
        <pt x="83" y="100" on="0"/>
        <pt x="53" y="195" on="0"/>
        <pt x="53" y="249" on="1"/>
        <pt x="53" y="331" on="0"/>
        <pt x="111" y="481" on="0"/>
        <pt x="218" y="596" on="0"/>
        <pt x="367" y="665" on="0"/>
        <pt x="458" y="665" on="1"/>
        <pt x="477" y="665" on="0"/>
        <pt x="512" y="662" on="0"/>
        <pt x="529" y="660" on="1"/>
        <pt x="872" y="660" on="1"/>
        <pt x="850" y="560" on="1"/>
        <pt x="602" y="560" on="1"/>
        <pt x="568" y="400" on="1"/>
        <pt x="749" y="400" on="1"/>
        <pt x="728" y="300" on="1"/>
        <pt x="547" y="300" on="1"/>
        <pt x="505" y="100" on="1"/>
        <pt x="773" y="100" on="1"/>
      </contour>
      <contour>
        <pt x="329" y="84" on="1"/>
        <pt x="361" y="84" on="0"/>
        <pt x="388" y="93" on="1"/>
        <pt x="487" y="560" on="1"/>
        <pt x="464" y="569" on="0"/>
        <pt x="434" y="569" on="1"/>
        <pt x="362" y="569" on="0"/>
        <pt x="264" y="514" on="0"/>
        <pt x="203" y="425" on="0"/>
        <pt x="177" y="314" on="0"/>
        <pt x="177" y="258" on="1"/>
        <pt x="177" y="173" on="0"/>
        <pt x="254" y="84" on="0"/>
      </contour>
    </TTGlyph>
    <TTGlyph name="Oacute" xMin="53" yMin="-12" xMax="718" yMax="848">
      <contour>
        <pt x="458" y="665" on="1"/>
        <pt x="524" y="665" on="0"/>
        <pt x="621" y="623" on="0"/>
        <pt x="686" y="550" on="0"/>
        <pt x="718" y="453" on="0"/>
        <pt x="718" y="398" on="1"/>
        <pt x="718" y="323" on="0"/>
        <pt x="662" y="177" on="0"/>
        <pt x="555" y="60" on="0"/>
        <pt x="403" y="-12" on="0"/>
        <pt x="307" y="-12" on="1"/>
        <pt x="241" y="-12" on="0"/>
        <pt x="145" y="29" on="0"/>
        <pt x="83" y="100" on="0"/>
        <pt x="53" y="195" on="0"/>
        <pt x="53" y="249" on="1"/>
        <pt x="53" y="331" on="0"/>
        <pt x="111" y="481" on="0"/>
        <pt x="218" y="596" on="0"/>
        <pt x="367" y="665" on="0"/>
      </contour>
      <contour>
        <pt x="407" y="701" on="1"/>
        <pt x="400" y="737" on="1"/>
        <pt x="405" y="744" on="1"/>
        <pt x="606" y="845" on="1"/>
        <pt x="612" y="848" on="0"/>
        <pt x="617" y="848" on="1"/>
        <pt x="628" y="848" on="0"/>
        <pt x="637" y="823" on="0"/>
        <pt x="637" y="809" on="1"/>
        <pt x="637" y="795" on="0"/>
        <pt x="627" y="770" on="0"/>
        <pt x="617" y="767" on="1"/>
        <pt x="415" y="698" on="1"/>
      </contour>
      <contour>
        <pt x="173" y="251" on="1"/>
        <pt x="173" y="177" on="0"/>
        <pt x="254" y="86" on="0"/>
        <pt x="335" y="86" on="1"/>
        <pt x="401" y="86" on="0"/>
        <pt x="501" y="142" on="0"/>
        <pt x="567" y="231" on="0"/>
        <pt x="600" y="342" on="0"/>
        <pt x="600" y="398" on="1"/>
        <pt x="600" y="435" on="0"/>
        <pt x="580" y="497" on="0"/>
        <pt x="538" y="542" on="0"/>
        <pt x="474" y="567" on="0"/>
        <pt x="429" y="567" on="1"/>
        <pt x="360" y="567" on="0"/>
        <pt x="263" y="510" on="0"/>
        <pt x="202" y="419" on="0"/>
        <pt x="173" y="306" on="0"/>
      </contour>
    </TTGlyph>
    <TTGlyph name="Ocircumflex" xMin="53" yMin="-12" xMax="718" yMax="842">
      <contour>
        <pt x="458" y="665" on="1"/>
        <pt x="524" y="665" on="0"/>
        <pt x="621" y="623" on="0"/>
        <pt x="686" y="550" on="0"/>
        <pt x="718" y="453" on="0"/>
        <pt x="718" y="398" on="1"/>
        <pt x="718" y="323" on="0"/>
        <pt x="662" y="177" on="0"/>
        <pt x="555" y="60" on="0"/>
        <pt x="403" y="-12" on="0"/>
        <pt x="307" y="-12" on="1"/>
        <pt x="241" y="-12" on="0"/>
        <pt x="145" y="29" on="0"/>
        <pt x="83" y="100" on="0"/>
        <pt x="53" y="195" on="0"/>
        <pt x="53" y="249" on="1"/>
        <pt x="53" y="331" on="0"/>
        <pt x="111" y="481" on="0"/>
        <pt x="218" y="596" on="0"/>
        <pt x="367" y="665" on="0"/>
      </contour>
      <contour>
        <pt x="509" y="842" on="1"/>
        <pt x="598" y="743" on="1"/>
        <pt x="600" y="736" on="1"/>
        <pt x="578" y="707" on="1"/>
        <pt x="570" y="704" on="1"/>
        <pt x="485" y="745" on="1"/>
        <pt x="382" y="704" on="1"/>
        <pt x="376" y="707" on="1"/>
        <pt x="366" y="736" on="1"/>
        <pt x="370" y="743" on="1"/>
        <pt x="501" y="842" on="1"/>
      </contour>
      <contour>
        <pt x="173" y="251" on="1"/>
        <pt x="173" y="177" on="0"/>
        <pt x="254" y="86" on="0"/>
        <pt x="335" y="86" on="1"/>
        <pt x="401" y="86" on="0"/>
        <pt x="501" y="142" on="0"/>
        <pt x="567" y="231" on="0"/>
        <pt x="600" y="342" on="0"/>
        <pt x="600" y="398" on="1"/>
        <pt x="600" y="435" on="0"/>
        <pt x="580" y="497" on="0"/>
        <pt x="538" y="542" on="0"/>
        <pt x="474" y="567" on="0"/>
        <pt x="429" y="567" on="1"/>
        <pt x="360" y="567" on="0"/>
        <pt x="263" y="510" on="0"/>
        <pt x="202" y="419" on="0"/>
        <pt x="173" y="306" on="0"/>
      </contour>
    </TTGlyph>
    <TTGlyph name="Odieresis" xMin="53" yMin="-12" xMax="718" yMax="842">
      <contour>
        <pt x="458" y="665" on="1"/>
        <pt x="524" y="665" on="0"/>
        <pt x="621" y="623" on="0"/>
        <pt x="686" y="550" on="0"/>
        <pt x="718" y="453" on="0"/>
        <pt x="718" y="398" on="1"/>
        <pt x="718" y="323" on="0"/>
        <pt x="662" y="177" on="0"/>
        <pt x="555" y="60" on="0"/>
        <pt x="403" y="-12" on="0"/>
        <pt x="307" y="-12" on="1"/>
        <pt x="241" y="-12" on="0"/>
        <pt x="145" y="29" on="0"/>
        <pt x="83" y="100" on="0"/>
        <pt x="53" y="195" on="0"/>
        <pt x="53" y="249" on="1"/>
        <pt x="53" y="331" on="0"/>
        <pt x="111" y="481" on="0"/>
        <pt x="218" y="596" on="0"/>
        <pt x="367" y="665" on="0"/>
      </contour>
      <contour>
        <pt x="357" y="774" on="1"/>
        <pt x="357" y="787" on="0"/>
        <pt x="369" y="811" on="0"/>
        <pt x="389" y="830" on="0"/>
        <pt x="414" y="842" on="0"/>
        <pt x="427" y="842" on="1"/>
        <pt x="447" y="842" on="0"/>
        <pt x="475" y="811" on="0"/>
        <pt x="475" y="791" on="1"/>
        <pt x="475" y="778" on="0"/>
        <pt x="462" y="755" on="0"/>
        <pt x="441" y="737" on="0"/>
        <pt x="415" y="726" on="0"/>
        <pt x="403" y="726" on="1"/>
        <pt x="383" y="726" on="0"/>
        <pt x="357" y="754" on="0"/>
      </contour>
      <contour>
        <pt x="493" y="774" on="1"/>
        <pt x="493" y="787" on="0"/>
        <pt x="505" y="811" on="0"/>
        <pt x="525" y="830" on="0"/>
        <pt x="550" y="842" on="0"/>
        <pt x="563" y="842" on="1"/>
        <pt x="583" y="842" on="0"/>
        <pt x="611" y="811" on="0"/>
        <pt x="611" y="791" on="1"/>
        <pt x="611" y="778" on="0"/>
        <pt x="598" y="755" on="0"/>
        <pt x="577" y="737" on="0"/>
        <pt x="551" y="726" on="0"/>
        <pt x="539" y="726" on="1"/>
        <pt x="519" y="726" on="0"/>
        <pt x="493" y="754" on="0"/>
      </contour>
      <contour>
        <pt x="173" y="251" on="1"/>
        <pt x="173" y="177" on="0"/>
        <pt x="254" y="86" on="0"/>
        <pt x="335" y="86" on="1"/>
        <pt x="401" y="86" on="0"/>
        <pt x="501" y="142" on="0"/>
        <pt x="567" y="231" on="0"/>
        <pt x="600" y="342" on="0"/>
        <pt x="600" y="398" on="1"/>
        <pt x="600" y="435" on="0"/>
        <pt x="580" y="497" on="0"/>
        <pt x="538" y="542" on="0"/>
        <pt x="474" y="567" on="0"/>
        <pt x="429" y="567" on="1"/>
        <pt x="360" y="567" on="0"/>
        <pt x="263" y="510" on="0"/>
        <pt x="202" y="419" on="0"/>
        <pt x="173" y="306" on="0"/>
      </contour>
    </TTGlyph>
    <TTGlyph name="Ograve" xMin="53" yMin="-12" xMax="718" yMax="848">
      <contour>
        <pt x="458" y="665" on="1"/>
        <pt x="524" y="665" on="0"/>
        <pt x="621" y="623" on="0"/>
        <pt x="686" y="550" on="0"/>
        <pt x="718" y="453" on="0"/>
        <pt x="718" y="398" on="1"/>
        <pt x="718" y="323" on="0"/>
        <pt x="662" y="177" on="0"/>
        <pt x="555" y="60" on="0"/>
        <pt x="403" y="-12" on="0"/>
        <pt x="307" y="-12" on="1"/>
        <pt x="241" y="-12" on="0"/>
        <pt x="145" y="29" on="0"/>
        <pt x="83" y="100" on="0"/>
        <pt x="53" y="195" on="0"/>
        <pt x="53" y="249" on="1"/>
        <pt x="53" y="331" on="0"/>
        <pt x="111" y="481" on="0"/>
        <pt x="218" y="596" on="0"/>
        <pt x="367" y="665" on="0"/>
      </contour>
      <contour>
        <pt x="524" y="698" on="1"/>
        <pt x="351" y="767" on="1"/>
        <pt x="343" y="770" on="0"/>
        <pt x="343" y="786" on="1"/>
        <pt x="343" y="795" on="0"/>
        <pt x="351" y="817" on="0"/>
        <pt x="363" y="836" on="0"/>
        <pt x="378" y="848" on="0"/>
        <pt x="386" y="848" on="1"/>
        <pt x="390" y="848" on="0"/>
        <pt x="395" y="845" on="1"/>
        <pt x="554" y="744" on="1"/>
        <pt x="555" y="737" on="1"/>
        <pt x="532" y="701" on="1"/>
      </contour>
      <contour>
        <pt x="173" y="251" on="1"/>
        <pt x="173" y="177" on="0"/>
        <pt x="254" y="86" on="0"/>
        <pt x="335" y="86" on="1"/>
        <pt x="401" y="86" on="0"/>
        <pt x="501" y="142" on="0"/>
        <pt x="567" y="231" on="0"/>
        <pt x="600" y="342" on="0"/>
        <pt x="600" y="398" on="1"/>
        <pt x="600" y="435" on="0"/>
        <pt x="580" y="497" on="0"/>
        <pt x="538" y="542" on="0"/>
        <pt x="474" y="567" on="0"/>
        <pt x="429" y="567" on="1"/>
        <pt x="360" y="567" on="0"/>
        <pt x="263" y="510" on="0"/>
        <pt x="202" y="419" on="0"/>
        <pt x="173" y="306" on="0"/>
      </contour>
    </TTGlyph>
    <TTGlyph name="Oslash" xMin="-15" yMin="-48" xMax="773" yMax="699">
      <contour>
        <pt x="459" y="665" on="1"/>
        <pt x="509" y="665" on="0"/>
        <pt x="588" y="640" on="0"/>
        <pt x="619" y="618" on="1"/>
        <pt x="705" y="699" on="1"/>
        <pt x="773" y="637" on="1"/>
        <pt x="681" y="550" on="1"/>
        <pt x="719" y="483" on="0"/>
        <pt x="719" y="398" on="1"/>
        <pt x="719" y="323" on="0"/>
        <pt x="663" y="177" on="0"/>
        <pt x="556" y="60" on="0"/>
        <pt x="404" y="-12" on="0"/>
        <pt x="308" y="-12" on="1"/>
        <pt x="254" y="-12" on="0"/>
        <pt x="171" y="15" on="0"/>
        <pt x="140" y="40" on="1"/>
        <pt x="47" y="-48" on="1"/>
        <pt x="-15" y="20" on="1"/>
        <pt x="83" y="112" on="1"/>
        <pt x="68" y="142" on="0"/>
        <pt x="54" y="211" on="0"/>
        <pt x="54" y="249" on="1"/>
        <pt x="54" y="331" on="0"/>
        <pt x="112" y="481" on="0"/>
        <pt x="219" y="596" on="0"/>
        <pt x="368" y="665" on="0"/>
      </contour>
      <contour>
        <pt x="600" y="398" on="1"/>
        <pt x="600" y="436" on="0"/>
        <pt x="590" y="465" on="1"/>
        <pt x="225" y="120" on="1"/>
        <pt x="267" y="86" on="0"/>
        <pt x="335" y="86" on="1"/>
        <pt x="401" y="86" on="0"/>
        <pt x="501" y="142" on="0"/>
        <pt x="567" y="231" on="0"/>
        <pt x="600" y="342" on="0"/>
      </contour>
      <contour>
        <pt x="173" y="251" on="1"/>
        <pt x="173" y="237" on="0"/>
        <pt x="175" y="213" on="0"/>
        <pt x="178" y="202" on="1"/>
        <pt x="535" y="539" on="1"/>
        <pt x="495" y="567" on="0"/>
        <pt x="429" y="567" on="1"/>
        <pt x="360" y="567" on="0"/>
        <pt x="263" y="510" on="0"/>
        <pt x="202" y="419" on="0"/>
        <pt x="173" y="306" on="0"/>
      </contour>
    </TTGlyph>
    <TTGlyph name="Otilde" xMin="53" yMin="-12" xMax="718" yMax="841">
      <contour>
        <pt x="458" y="665" on="1"/>
        <pt x="524" y="665" on="0"/>
        <pt x="621" y="623" on="0"/>
        <pt x="686" y="550" on="0"/>
        <pt x="718" y="453" on="0"/>
        <pt x="718" y="398" on="1"/>
        <pt x="718" y="323" on="0"/>
        <pt x="662" y="177" on="0"/>
        <pt x="555" y="60" on="0"/>
        <pt x="403" y="-12" on="0"/>
        <pt x="307" y="-12" on="1"/>
        <pt x="241" y="-12" on="0"/>
        <pt x="145" y="29" on="0"/>
        <pt x="83" y="100" on="0"/>
        <pt x="53" y="195" on="0"/>
        <pt x="53" y="249" on="1"/>
        <pt x="53" y="331" on="0"/>
        <pt x="111" y="481" on="0"/>
        <pt x="218" y="596" on="0"/>
        <pt x="367" y="665" on="0"/>
      </contour>
      <contour>
        <pt x="646" y="818" on="1"/>
        <pt x="640" y="802" on="0"/>
        <pt x="620" y="769" on="0"/>
        <pt x="593" y="743" on="0"/>
        <pt x="559" y="726" on="0"/>
        <pt x="537" y="726" on="1"/>
        <pt x="525" y="726" on="0"/>
        <pt x="495" y="730" on="0"/>
        <pt x="460" y="736" on="0"/>
        <pt x="424" y="740" on="0"/>
        <pt x="407" y="740" on="1"/>
        <pt x="384" y="740" on="0"/>
        <pt x="343" y="729" on="0"/>
        <pt x="326" y="715" on="1"/>
        <pt x="318" y="738" on="1"/>
        <pt x="328" y="756" on="0"/>
        <pt x="348" y="789" on="0"/>
        <pt x="375" y="814" on="0"/>
        <pt x="411" y="829" on="0"/>
        <pt x="436" y="829" on="1"/>
        <pt x="465" y="829" on="0"/>
        <pt x="531" y="815" on="0"/>
        <pt x="558" y="815" on="1"/>
        <pt x="576" y="815" on="0"/>
        <pt x="616" y="826" on="0"/>
        <pt x="639" y="841" on="1"/>
      </contour>
      <contour>
        <pt x="173" y="251" on="1"/>
        <pt x="173" y="177" on="0"/>
        <pt x="254" y="86" on="0"/>
        <pt x="335" y="86" on="1"/>
        <pt x="401" y="86" on="0"/>
        <pt x="501" y="142" on="0"/>
        <pt x="567" y="231" on="0"/>
        <pt x="600" y="342" on="0"/>
        <pt x="600" y="398" on="1"/>
        <pt x="600" y="435" on="0"/>
        <pt x="580" y="497" on="0"/>
        <pt x="538" y="542" on="0"/>
        <pt x="474" y="567" on="0"/>
        <pt x="429" y="567" on="1"/>
        <pt x="360" y="567" on="0"/>
        <pt x="263" y="510" on="0"/>
        <pt x="202" y="419" on="0"/>
        <pt x="173" y="306" on="0"/>
      </contour>
    </TTGlyph>
    <TTGlyph name="P" xMin="30" yMin="0" xMax="541" yMax="665">
      <contour>
        <pt x="263" y="248" on="1"/>
        <pt x="246" y="248" on="0"/>
        <pt x="213" y="248" on="0"/>
        <pt x="198" y="249" on="1"/>
        <pt x="145" y="0" on="1"/>
        <pt x="30" y="0" on="1"/>
        <pt x="170" y="660" on="1"/>
        <pt x="185" y="661" on="0"/>
        <pt x="225" y="663" on="0"/>
        <pt x="268" y="664" on="0"/>
        <pt x="311" y="665" on="0"/>
        <pt x="330" y="665" on="1"/>
        <pt x="428" y="665" on="0"/>
        <pt x="541" y="578" on="0"/>
        <pt x="541" y="495" on="1"/>
        <pt x="541" y="447" on="0"/>
        <pt x="505" y="358" on="0"/>
        <pt x="435" y="289" on="0"/>
        <pt x="331" y="248" on="0"/>
      </contour>
      <contour>
        <pt x="326" y="569" on="1"/>
        <pt x="310" y="569" on="0"/>
        <pt x="280" y="569" on="0"/>
        <pt x="265" y="568" on="1"/>
        <pt x="218" y="345" on="1"/>
        <pt x="232" y="344" on="0"/>
        <pt x="263" y="344" on="0"/>
        <pt x="280" y="344" on="1"/>
        <pt x="349" y="344" on="0"/>
        <pt x="418" y="425" on="0"/>
        <pt x="418" y="489" on="1"/>
        <pt x="418" y="524" on="0"/>
        <pt x="376" y="569" on="0"/>
      </contour>
    </TTGlyph>
    <TTGlyph name="Q" xMin="54" yMin="-174" xMax="719" yMax="665">
      <contour>
        <pt x="459" y="665" on="1"/>
        <pt x="525" y="665" on="0"/>
        <pt x="622" y="623" on="0"/>
        <pt x="687" y="550" on="0"/>
        <pt x="719" y="453" on="0"/>
        <pt x="719" y="398" on="1"/>
        <pt x="719" y="325" on="0"/>
        <pt x="665" y="182" on="0"/>
        <pt x="564" y="67" on="0"/>
        <pt x="419" y="-7" on="0"/>
        <pt x="327" y="-11" on="1"/>
        <pt x="362" y="-15" on="0"/>
        <pt x="423" y="-39" on="0"/>
        <pt x="483" y="-64" on="0"/>
        <pt x="546" y="-84" on="0"/>
        <pt x="584" y="-84" on="1"/>
        <pt x="629" y="-84" on="0"/>
        <pt x="685" y="-64" on="1"/>
        <pt x="638" y="-162" on="1"/>
        <pt x="618" y="-169" on="0"/>
        <pt x="582" y="-174" on="0"/>
        <pt x="565" y="-174" on="1"/>
        <pt x="523" y="-174" on="0"/>
        <pt x="452" y="-147" on="0"/>
        <pt x="384" y="-116" on="0"/>
        <pt x="317" y="-89" on="0"/>
        <pt x="280" y="-89" on="1"/>
        <pt x="258" y="-89" on="0"/>
        <pt x="188" y="-105" on="0"/>
        <pt x="152" y="-128" on="1"/>
        <pt x="148" y="-56" on="1"/>
        <pt x="180" y="-34" on="0"/>
        <pt x="250" y="-13" on="0"/>
        <pt x="279" y="-11" on="1"/>
        <pt x="220" y="-7" on="0"/>
        <pt x="136" y="38" on="0"/>
        <pt x="80" y="108" on="0"/>
        <pt x="54" y="198" on="0"/>
        <pt x="54" y="249" on="1"/>
        <pt x="54" y="331" on="0"/>
        <pt x="112" y="481" on="0"/>
        <pt x="219" y="596" on="0"/>
        <pt x="368" y="665" on="0"/>
      </contour>
      <contour>
        <pt x="173" y="251" on="1"/>
        <pt x="173" y="177" on="0"/>
        <pt x="254" y="86" on="0"/>
        <pt x="335" y="86" on="1"/>
        <pt x="401" y="86" on="0"/>
        <pt x="501" y="142" on="0"/>
        <pt x="567" y="231" on="0"/>
        <pt x="600" y="342" on="0"/>
        <pt x="600" y="398" on="1"/>
        <pt x="600" y="435" on="0"/>
        <pt x="580" y="497" on="0"/>
        <pt x="538" y="542" on="0"/>
        <pt x="474" y="567" on="0"/>
        <pt x="429" y="567" on="1"/>
        <pt x="360" y="567" on="0"/>
        <pt x="263" y="510" on="0"/>
        <pt x="202" y="419" on="0"/>
        <pt x="173" y="306" on="0"/>
      </contour>
    </TTGlyph>
    <TTGlyph name="R" xMin="30" yMin="0" xMax="555" yMax="665">
      <contour>
        <pt x="252" y="282" on="1"/>
        <pt x="241" y="282" on="0"/>
        <pt x="218" y="282" on="0"/>
        <pt x="205" y="283" on="1"/>
        <pt x="145" y="0" on="1"/>
        <pt x="30" y="0" on="1"/>
        <pt x="170" y="660" on="1"/>
        <pt x="186" y="661" on="0"/>
        <pt x="228" y="663" on="0"/>
        <pt x="270" y="664" on="0"/>
        <pt x="307" y="665" on="0"/>
        <pt x="318" y="665" on="1"/>
        <pt x="430" y="665" on="0"/>
        <pt x="545" y="586" on="0"/>
        <pt x="545" y="511" on="1"/>
        <pt x="545" y="478" on="0"/>
        <pt x="526" y="413" on="0"/>
        <pt x="486" y="356" on="0"/>
        <pt x="421" y="310" on="0"/>
        <pt x="376" y="297" on="1"/>
        <pt x="555" y="0" on="1"/>
        <pt x="422" y="0" on="1"/>
      </contour>
      <contour>
        <pt x="308" y="569" on="1"/>
        <pt x="300" y="569" on="0"/>
        <pt x="278" y="569" on="0"/>
        <pt x="265" y="568" on="1"/>
        <pt x="225" y="378" on="1"/>
        <pt x="287" y="378" on="1"/>
        <pt x="353" y="378" on="0"/>
        <pt x="423" y="448" on="0"/>
        <pt x="423" y="503" on="1"/>
        <pt x="423" y="536" on="0"/>
        <pt x="371" y="569" on="0"/>
      </contour>
    </TTGlyph>
    <TTGlyph name="S" xMin="-4" yMin="-12" xMax="544" yMax="665">
      <contour>
        <pt x="222" y="488" on="1"/>
        <pt x="222" y="471" on="0"/>
        <pt x="238" y="445" on="0"/>
        <pt x="267" y="425" on="0"/>
        <pt x="307" y="408" on="0"/>
        <pt x="331" y="399" on="1"/>
        <pt x="360" y="388" on="0"/>
        <pt x="417" y="359" on="0"/>
        <pt x="462" y="318" on="0"/>
        <pt x="490" y="260" on="0"/>
        <pt x="490" y="220" on="1"/>
        <pt x="490" y="156" on="0"/>
        <pt x="441" y="67" on="0"/>
        <pt x="361" y="12" on="0"/>
        <pt x="259" y="-12" on="0"/>
        <pt x="206" y="-12" on="1"/>
        <pt x="140" y="-12" on="0"/>
        <pt x="32" y="20" on="0"/>
        <pt x="-4" y="43" on="1"/>
        <pt x="49" y="151" on="1"/>
        <pt x="81" y="122" on="0"/>
        <pt x="166" y="84" on="0"/>
        <pt x="226" y="84" on="1"/>
        <pt x="300" y="84" on="0"/>
        <pt x="368" y="140" on="0"/>
        <pt x="368" y="183" on="1"/>
        <pt x="368" y="207" on="0"/>
        <pt x="345" y="243" on="0"/>
        <pt x="311" y="268" on="0"/>
        <pt x="272" y="284" on="0"/>
        <pt x="257" y="290" on="1"/>
        <pt x="231" y="299" on="0"/>
        <pt x="178" y="323" on="0"/>
        <pt x="133" y="360" on="0"/>
        <pt x="105" y="414" on="0"/>
        <pt x="105" y="454" on="1"/>
        <pt x="105" y="511" on="0"/>
        <pt x="145" y="592" on="0"/>
        <pt x="214" y="642" on="0"/>
        <pt x="307" y="665" on="0"/>
        <pt x="359" y="665" on="1"/>
        <pt x="414" y="665" on="0"/>
        <pt x="513" y="643" on="0"/>
        <pt x="544" y="627" on="1"/>
        <pt x="495" y="521" on="1"/>
        <pt x="464" y="544" on="0"/>
        <pt x="375" y="570" on="0"/>
        <pt x="335" y="570" on="1"/>
        <pt x="284" y="570" on="0"/>
        <pt x="222" y="530" on="0"/>
      </contour>
    </TTGlyph>
    <TTGlyph name="Scaron" xMin="-4" yMin="-12" xMax="544" yMax="843">
      <contour>
        <pt x="222" y="488" on="1"/>
        <pt x="222" y="471" on="0"/>
        <pt x="238" y="445" on="0"/>
        <pt x="267" y="425" on="0"/>
        <pt x="307" y="408" on="0"/>
        <pt x="331" y="399" on="1"/>
        <pt x="360" y="388" on="0"/>
        <pt x="417" y="359" on="0"/>
        <pt x="462" y="318" on="0"/>
        <pt x="490" y="260" on="0"/>
        <pt x="490" y="220" on="1"/>
        <pt x="490" y="156" on="0"/>
        <pt x="441" y="67" on="0"/>
        <pt x="361" y="12" on="0"/>
        <pt x="259" y="-12" on="0"/>
        <pt x="206" y="-12" on="1"/>
        <pt x="140" y="-12" on="0"/>
        <pt x="32" y="20" on="0"/>
        <pt x="-4" y="43" on="1"/>
        <pt x="49" y="151" on="1"/>
        <pt x="81" y="122" on="0"/>
        <pt x="166" y="84" on="0"/>
        <pt x="226" y="84" on="1"/>
        <pt x="300" y="84" on="0"/>
        <pt x="368" y="140" on="0"/>
        <pt x="368" y="183" on="1"/>
        <pt x="368" y="207" on="0"/>
        <pt x="345" y="243" on="0"/>
        <pt x="311" y="268" on="0"/>
        <pt x="272" y="284" on="0"/>
        <pt x="257" y="290" on="1"/>
        <pt x="231" y="299" on="0"/>
        <pt x="178" y="323" on="0"/>
        <pt x="133" y="360" on="0"/>
        <pt x="105" y="414" on="0"/>
        <pt x="105" y="454" on="1"/>
        <pt x="105" y="511" on="0"/>
        <pt x="145" y="592" on="0"/>
        <pt x="214" y="642" on="0"/>
        <pt x="307" y="665" on="0"/>
        <pt x="359" y="665" on="1"/>
        <pt x="414" y="665" on="0"/>
        <pt x="513" y="643" on="0"/>
        <pt x="544" y="627" on="1"/>
        <pt x="495" y="521" on="1"/>
        <pt x="464" y="544" on="0"/>
        <pt x="375" y="570" on="0"/>
        <pt x="335" y="570" on="1"/>
        <pt x="284" y="570" on="0"/>
        <pt x="222" y="530" on="0"/>
      </contour>
      <contour>
        <pt x="364" y="705" on="1"/>
        <pt x="275" y="804" on="1"/>
        <pt x="273" y="811" on="1"/>
        <pt x="295" y="840" on="1"/>
        <pt x="303" y="843" on="1"/>
        <pt x="388" y="802" on="1"/>
        <pt x="491" y="843" on="1"/>
        <pt x="497" y="840" on="1"/>
        <pt x="507" y="811" on="1"/>
        <pt x="503" y="804" on="1"/>
        <pt x="372" y="705" on="1"/>
      </contour>
    </TTGlyph>
    <TTGlyph name="T" xMin="81" yMin="0" xMax="599" yMax="660">
      <contour>
        <pt x="578" y="560" on="1"/>
        <pt x="387" y="560" on="1"/>
        <pt x="268" y="0" on="1"/>
        <pt x="153" y="0" on="1"/>
        <pt x="272" y="560" on="1"/>
        <pt x="81" y="560" on="1"/>
        <pt x="102" y="660" on="1"/>
        <pt x="599" y="660" on="1"/>
      </contour>
    </TTGlyph>
    <TTGlyph name="Thorn" xMin="30" yMin="0" xMax="517" yMax="660">
      <contour>
        <pt x="262" y="550" on="1"/>
        <pt x="306" y="550" on="1"/>
        <pt x="404" y="550" on="0"/>
        <pt x="517" y="463" on="0"/>
        <pt x="517" y="380" on="1"/>
        <pt x="517" y="332" on="0"/>
        <pt x="481" y="243" on="0"/>
        <pt x="411" y="174" on="0"/>
        <pt x="307" y="133" on="0"/>
        <pt x="238" y="133" on="1"/>
        <pt x="221" y="133" on="0"/>
        <pt x="188" y="133" on="0"/>
        <pt x="173" y="134" on="1"/>
        <pt x="145" y="0" on="1"/>
        <pt x="30" y="0" on="1"/>
        <pt x="170" y="660" on="1"/>
        <pt x="285" y="660" on="1"/>
      </contour>
      <contour>
        <pt x="302" y="454" on="1"/>
        <pt x="286" y="454" on="0"/>
        <pt x="256" y="454" on="0"/>
        <pt x="241" y="453" on="1"/>
        <pt x="194" y="230" on="1"/>
        <pt x="208" y="229" on="0"/>
        <pt x="239" y="229" on="0"/>
        <pt x="256" y="229" on="1"/>
        <pt x="325" y="229" on="0"/>
        <pt x="393" y="310" on="0"/>
        <pt x="393" y="374" on="1"/>
        <pt x="393" y="409" on="0"/>
        <pt x="353" y="454" on="0"/>
      </contour>
    </TTGlyph>
    <TTGlyph name="U" xMin="65" yMin="-11" xMax="707" yMax="660">
      <contour>
        <pt x="192" y="256" on="1"/>
        <pt x="188" y="240" on="0"/>
        <pt x="185" y="211" on="0"/>
        <pt x="185" y="198" on="1"/>
        <pt x="185" y="138" on="0"/>
        <pt x="253" y="86" on="0"/>
        <pt x="315" y="86" on="1"/>
        <pt x="390" y="86" on="0"/>
        <pt x="491" y="165" on="0"/>
        <pt x="511" y="256" on="1"/>
        <pt x="597" y="660" on="1"/>
        <pt x="707" y="660" on="1"/>
        <pt x="616" y="232" on="1"/>
        <pt x="605" y="183" on="0"/>
        <pt x="555" y="95" on="0"/>
        <pt x="473" y="28" on="0"/>
        <pt x="360" y="-11" on="0"/>
        <pt x="288" y="-11" on="1"/>
        <pt x="228" y="-11" on="0"/>
        <pt x="143" y="17" on="0"/>
        <pt x="89" y="65" on="0"/>
        <pt x="65" y="131" on="0"/>
        <pt x="65" y="169" on="1"/>
        <pt x="65" y="201" on="0"/>
        <pt x="72" y="232" on="1"/>
        <pt x="163" y="660" on="1"/>
        <pt x="278" y="660" on="1"/>
      </contour>
    </TTGlyph>
    <TTGlyph name="Uacute" xMin="65" yMin="-11" xMax="707" yMax="848">
      <contour>
        <pt x="192" y="256" on="1"/>
        <pt x="188" y="240" on="0"/>
        <pt x="185" y="211" on="0"/>
        <pt x="185" y="198" on="1"/>
        <pt x="185" y="138" on="0"/>
        <pt x="253" y="86" on="0"/>
        <pt x="315" y="86" on="1"/>
        <pt x="390" y="86" on="0"/>
        <pt x="491" y="165" on="0"/>
        <pt x="511" y="256" on="1"/>
        <pt x="597" y="660" on="1"/>
        <pt x="707" y="660" on="1"/>
        <pt x="616" y="232" on="1"/>
        <pt x="605" y="183" on="0"/>
        <pt x="555" y="95" on="0"/>
        <pt x="473" y="28" on="0"/>
        <pt x="360" y="-11" on="0"/>
        <pt x="288" y="-11" on="1"/>
        <pt x="228" y="-11" on="0"/>
        <pt x="143" y="17" on="0"/>
        <pt x="89" y="65" on="0"/>
        <pt x="65" y="131" on="0"/>
        <pt x="65" y="169" on="1"/>
        <pt x="65" y="201" on="0"/>
        <pt x="72" y="232" on="1"/>
        <pt x="163" y="660" on="1"/>
        <pt x="278" y="660" on="1"/>
      </contour>
      <contour>
        <pt x="363" y="701" on="1"/>
        <pt x="355" y="737" on="1"/>
        <pt x="360" y="744" on="1"/>
        <pt x="561" y="845" on="1"/>
        <pt x="567" y="848" on="0"/>
        <pt x="572" y="848" on="1"/>
        <pt x="583" y="848" on="0"/>
        <pt x="592" y="823" on="0"/>
        <pt x="592" y="809" on="1"/>
        <pt x="592" y="795" on="0"/>
        <pt x="582" y="770" on="0"/>
        <pt x="572" y="767" on="1"/>
        <pt x="370" y="698" on="1"/>
      </contour>
    </TTGlyph>
    <TTGlyph name="Ucircumflex" xMin="65" yMin="-11" xMax="707" yMax="842">
      <contour>
        <pt x="192" y="256" on="1"/>
        <pt x="188" y="240" on="0"/>
        <pt x="185" y="211" on="0"/>
        <pt x="185" y="198" on="1"/>
        <pt x="185" y="138" on="0"/>
        <pt x="253" y="86" on="0"/>
        <pt x="315" y="86" on="1"/>
        <pt x="390" y="86" on="0"/>
        <pt x="491" y="165" on="0"/>
        <pt x="511" y="256" on="1"/>
        <pt x="597" y="660" on="1"/>
        <pt x="707" y="660" on="1"/>
        <pt x="616" y="232" on="1"/>
        <pt x="605" y="183" on="0"/>
        <pt x="555" y="95" on="0"/>
        <pt x="473" y="28" on="0"/>
        <pt x="360" y="-11" on="0"/>
        <pt x="288" y="-11" on="1"/>
        <pt x="228" y="-11" on="0"/>
        <pt x="143" y="17" on="0"/>
        <pt x="89" y="65" on="0"/>
        <pt x="65" y="131" on="0"/>
        <pt x="65" y="169" on="1"/>
        <pt x="65" y="201" on="0"/>
        <pt x="72" y="232" on="1"/>
        <pt x="163" y="660" on="1"/>
        <pt x="278" y="660" on="1"/>
      </contour>
      <contour>
        <pt x="474" y="842" on="1"/>
        <pt x="562" y="743" on="1"/>
        <pt x="564" y="736" on="1"/>
        <pt x="542" y="707" on="1"/>
        <pt x="534" y="704" on="1"/>
        <pt x="449" y="745" on="1"/>
        <pt x="346" y="704" on="1"/>
        <pt x="340" y="707" on="1"/>
        <pt x="330" y="736" on="1"/>
        <pt x="334" y="743" on="1"/>
        <pt x="466" y="842" on="1"/>
      </contour>
    </TTGlyph>
    <TTGlyph name="Udieresis" xMin="65" yMin="-11" xMax="707" yMax="842">
      <contour>
        <pt x="192" y="256" on="1"/>
        <pt x="188" y="240" on="0"/>
        <pt x="185" y="211" on="0"/>
        <pt x="185" y="198" on="1"/>
        <pt x="185" y="138" on="0"/>
        <pt x="253" y="86" on="0"/>
        <pt x="315" y="86" on="1"/>
        <pt x="390" y="86" on="0"/>
        <pt x="491" y="165" on="0"/>
        <pt x="511" y="256" on="1"/>
        <pt x="597" y="660" on="1"/>
        <pt x="707" y="660" on="1"/>
        <pt x="616" y="232" on="1"/>
        <pt x="605" y="183" on="0"/>
        <pt x="555" y="95" on="0"/>
        <pt x="473" y="28" on="0"/>
        <pt x="360" y="-11" on="0"/>
        <pt x="288" y="-11" on="1"/>
        <pt x="228" y="-11" on="0"/>
        <pt x="143" y="17" on="0"/>
        <pt x="89" y="65" on="0"/>
        <pt x="65" y="131" on="0"/>
        <pt x="65" y="169" on="1"/>
        <pt x="65" y="201" on="0"/>
        <pt x="72" y="232" on="1"/>
        <pt x="163" y="660" on="1"/>
        <pt x="278" y="660" on="1"/>
      </contour>
      <contour>
        <pt x="346" y="774" on="1"/>
        <pt x="346" y="787" on="0"/>
        <pt x="358" y="811" on="0"/>
        <pt x="378" y="830" on="0"/>
        <pt x="404" y="842" on="0"/>
        <pt x="417" y="842" on="1"/>
        <pt x="437" y="842" on="0"/>
        <pt x="464" y="811" on="0"/>
        <pt x="464" y="791" on="1"/>
        <pt x="464" y="778" on="0"/>
        <pt x="451" y="755" on="0"/>
        <pt x="430" y="737" on="0"/>
        <pt x="404" y="726" on="0"/>
        <pt x="392" y="726" on="1"/>
        <pt x="372" y="726" on="0"/>
        <pt x="346" y="754" on="0"/>
      </contour>
      <contour>
        <pt x="482" y="774" on="1"/>
        <pt x="482" y="787" on="0"/>
        <pt x="494" y="811" on="0"/>
        <pt x="514" y="830" on="0"/>
        <pt x="540" y="842" on="0"/>
        <pt x="553" y="842" on="1"/>
        <pt x="573" y="842" on="0"/>
        <pt x="600" y="811" on="0"/>
        <pt x="600" y="791" on="1"/>
        <pt x="600" y="778" on="0"/>
        <pt x="587" y="755" on="0"/>
        <pt x="566" y="737" on="0"/>
        <pt x="540" y="726" on="0"/>
        <pt x="528" y="726" on="1"/>
        <pt x="508" y="726" on="0"/>
        <pt x="482" y="754" on="0"/>
      </contour>
    </TTGlyph>
    <TTGlyph name="Ugrave" xMin="65" yMin="-11" xMax="707" yMax="848">
      <contour>
        <pt x="192" y="256" on="1"/>
        <pt x="188" y="240" on="0"/>
        <pt x="185" y="211" on="0"/>
        <pt x="185" y="198" on="1"/>
        <pt x="185" y="138" on="0"/>
        <pt x="253" y="86" on="0"/>
        <pt x="315" y="86" on="1"/>
        <pt x="390" y="86" on="0"/>
        <pt x="491" y="165" on="0"/>
        <pt x="511" y="256" on="1"/>
        <pt x="597" y="660" on="1"/>
        <pt x="707" y="660" on="1"/>
        <pt x="616" y="232" on="1"/>
        <pt x="605" y="183" on="0"/>
        <pt x="555" y="95" on="0"/>
        <pt x="473" y="28" on="0"/>
        <pt x="360" y="-11" on="0"/>
        <pt x="288" y="-11" on="1"/>
        <pt x="228" y="-11" on="0"/>
        <pt x="143" y="17" on="0"/>
        <pt x="89" y="65" on="0"/>
        <pt x="65" y="131" on="0"/>
        <pt x="65" y="169" on="1"/>
        <pt x="65" y="201" on="0"/>
        <pt x="72" y="232" on="1"/>
        <pt x="163" y="660" on="1"/>
        <pt x="278" y="660" on="1"/>
      </contour>
      <contour>
        <pt x="518" y="698" on="1"/>
        <pt x="346" y="767" on="1"/>
        <pt x="337" y="770" on="0"/>
        <pt x="337" y="786" on="1"/>
        <pt x="337" y="795" on="0"/>
        <pt x="345" y="817" on="0"/>
        <pt x="357" y="836" on="0"/>
        <pt x="372" y="848" on="0"/>
        <pt x="380" y="848" on="1"/>
        <pt x="384" y="848" on="0"/>
        <pt x="389" y="845" on="1"/>
        <pt x="548" y="744" on="1"/>
        <pt x="549" y="737" on="1"/>
        <pt x="527" y="701" on="1"/>
      </contour>
    </TTGlyph>
    <TTGlyph name="V" xMin="69" yMin="0" xMax="714" yMax="660">
      <contour>
        <pt x="69" y="660" on="1"/>
        <pt x="194" y="660" on="1"/>
        <pt x="294" y="140" on="1"/>
        <pt x="594" y="660" on="1"/>
        <pt x="714" y="660" on="1"/>
        <pt x="310" y="0" on="1"/>
        <pt x="219" y="0" on="1"/>
      </contour>
    </TTGlyph>
    <TTGlyph name="W" xMin="79" yMin="0" xMax="1119" yMax="660">
      <contour>
        <pt x="734" y="0" on="1"/>
        <pt x="639" y="0" on="1"/>
        <pt x="566" y="502" on="1"/>
        <pt x="280" y="0" on="1"/>
        <pt x="185" y="0" on="1"/>
        <pt x="79" y="660" on="1"/>
        <pt x="204" y="660" on="1"/>
        <pt x="265" y="148" on="1"/>
        <pt x="543" y="660" on="1"/>
        <pt x="656" y="660" on="1"/>
        <pt x="717" y="148" on="1"/>
        <pt x="994" y="660" on="1"/>
        <pt x="1119" y="660" on="1"/>
      </contour>
    </TTGlyph>
    <TTGlyph name="X" xMin="-47" yMin="0" xMax="695" yMax="660">
      <contour>
        <pt x="315" y="267" on="1"/>
        <pt x="79" y="0" on="1"/>
        <pt x="-47" y="0" on="1"/>
        <pt x="269" y="340" on="1"/>
        <pt x="108" y="660" on="1"/>
        <pt x="237" y="660" on="1"/>
        <pt x="349" y="402" on="1"/>
        <pt x="569" y="660" on="1"/>
        <pt x="695" y="660" on="1"/>
        <pt x="397" y="339" on="1"/>
        <pt x="568" y="0" on="1"/>
        <pt x="439" y="0" on="1"/>
      </contour>
    </TTGlyph>
    <TTGlyph name="Y" xMin="67" yMin="0" xMax="654" yMax="660">
      <contour>
        <pt x="67" y="660" on="1"/>
        <pt x="196" y="660" on="1"/>
        <pt x="301" y="361" on="1"/>
        <pt x="527" y="660" on="1"/>
        <pt x="654" y="660" on="1"/>
        <pt x="336" y="271" on="1"/>
        <pt x="279" y="0" on="1"/>
        <pt x="164" y="0" on="1"/>
        <pt x="220" y="267" on="1"/>
      </contour>
    </TTGlyph>
    <TTGlyph name="Yacute" xMin="67" yMin="0" xMax="654" yMax="848">
      <contour>
        <pt x="67" y="660" on="1"/>
        <pt x="196" y="660" on="1"/>
        <pt x="301" y="361" on="1"/>
        <pt x="527" y="660" on="1"/>
        <pt x="654" y="660" on="1"/>
        <pt x="336" y="271" on="1"/>
        <pt x="279" y="0" on="1"/>
        <pt x="164" y="0" on="1"/>
        <pt x="220" y="267" on="1"/>
      </contour>
      <contour>
        <pt x="314" y="701" on="1"/>
        <pt x="306" y="737" on="1"/>
        <pt x="311" y="744" on="1"/>
        <pt x="512" y="845" on="1"/>
        <pt x="518" y="848" on="0"/>
        <pt x="523" y="848" on="1"/>
        <pt x="534" y="848" on="0"/>
        <pt x="544" y="823" on="0"/>
        <pt x="544" y="809" on="1"/>
        <pt x="544" y="795" on="0"/>
        <pt x="533" y="770" on="0"/>
        <pt x="523" y="767" on="1"/>
        <pt x="321" y="698" on="1"/>
      </contour>
    </TTGlyph>
    <TTGlyph name="Ydieresis" xMin="67" yMin="0" xMax="654" yMax="842">
      <contour>
        <pt x="264" y="774" on="1"/>
        <pt x="264" y="787" on="0"/>
        <pt x="276" y="811" on="0"/>
        <pt x="296" y="830" on="0"/>
        <pt x="322" y="842" on="0"/>
        <pt x="335" y="842" on="1"/>
        <pt x="355" y="842" on="0"/>
        <pt x="382" y="811" on="0"/>
        <pt x="382" y="791" on="1"/>
        <pt x="382" y="778" on="0"/>
        <pt x="369" y="755" on="0"/>
        <pt x="348" y="737" on="0"/>
        <pt x="322" y="726" on="0"/>
        <pt x="310" y="726" on="1"/>
        <pt x="290" y="726" on="0"/>
        <pt x="264" y="754" on="0"/>
      </contour>
      <contour>
        <pt x="400" y="774" on="1"/>
        <pt x="400" y="787" on="0"/>
        <pt x="412" y="811" on="0"/>
        <pt x="432" y="830" on="0"/>
        <pt x="458" y="842" on="0"/>
        <pt x="471" y="842" on="1"/>
        <pt x="491" y="842" on="0"/>
        <pt x="518" y="811" on="0"/>
        <pt x="518" y="791" on="1"/>
        <pt x="518" y="778" on="0"/>
        <pt x="505" y="755" on="0"/>
        <pt x="484" y="737" on="0"/>
        <pt x="458" y="726" on="0"/>
        <pt x="446" y="726" on="1"/>
        <pt x="426" y="726" on="0"/>
        <pt x="400" y="754" on="0"/>
      </contour>
      <contour>
        <pt x="67" y="660" on="1"/>
        <pt x="196" y="660" on="1"/>
        <pt x="301" y="361" on="1"/>
        <pt x="527" y="660" on="1"/>
        <pt x="654" y="660" on="1"/>
        <pt x="336" y="271" on="1"/>
        <pt x="279" y="0" on="1"/>
        <pt x="164" y="0" on="1"/>
        <pt x="220" y="267" on="1"/>
      </contour>
    </TTGlyph>
    <TTGlyph name="Z" xMin="-15" yMin="0" xMax="578" yMax="660">
      <contour>
        <pt x="453" y="0" on="1"/>
        <pt x="-15" y="0" on="1"/>
        <pt x="6" y="100" on="1"/>
        <pt x="432" y="560" on="1"/>
        <pt x="119" y="560" on="1"/>
        <pt x="140" y="660" on="1"/>
        <pt x="578" y="660" on="1"/>
        <pt x="557" y="560" on="1"/>
        <pt x="131" y="100" on="1"/>
        <pt x="474" y="100" on="1"/>
      </contour>
    </TTGlyph>
    <TTGlyph name="Zcaron" xMin="-15" yMin="0" xMax="578" yMax="843">
      <contour>
        <pt x="362" y="705" on="1"/>
        <pt x="273" y="804" on="1"/>
        <pt x="271" y="811" on="1"/>
        <pt x="294" y="840" on="1"/>
        <pt x="301" y="843" on="1"/>
        <pt x="386" y="802" on="1"/>
        <pt x="489" y="843" on="1"/>
        <pt x="496" y="840" on="1"/>
        <pt x="505" y="811" on="1"/>
        <pt x="501" y="804" on="1"/>
        <pt x="370" y="705" on="1"/>
      </contour>
      <contour>
        <pt x="453" y="0" on="1"/>
        <pt x="-15" y="0" on="1"/>
        <pt x="6" y="100" on="1"/>
        <pt x="432" y="560" on="1"/>
        <pt x="119" y="560" on="1"/>
        <pt x="140" y="660" on="1"/>
        <pt x="578" y="660" on="1"/>
        <pt x="557" y="560" on="1"/>
        <pt x="131" y="100" on="1"/>
        <pt x="474" y="100" on="1"/>
      </contour>
    </TTGlyph>
    <TTGlyph name="a" xMin="28" yMin="-12" xMax="547" yMax="475">
      <contour>
        <pt x="547" y="460" on="1"/>
        <pt x="449" y="0" on="1"/>
        <pt x="361" y="0" on="1"/>
        <pt x="366" y="63" on="1"/>
        <pt x="362" y="63" on="1"/>
        <pt x="327" y="32" on="0"/>
        <pt x="247" y="-12" on="0"/>
        <pt x="193" y="-12" on="1"/>
        <pt x="154" y="-12" on="0"/>
        <pt x="92" y="17" on="0"/>
        <pt x="50" y="68" on="0"/>
        <pt x="28" y="138" on="0"/>
        <pt x="28" y="179" on="1"/>
        <pt x="28" y="233" on="0"/>
        <pt x="64" y="339" on="0"/>
        <pt x="132" y="423" on="0"/>
        <pt x="231" y="475" on="0"/>
        <pt x="294" y="475" on="1"/>
        <pt x="342" y="475" on="0"/>
        <pt x="419" y="443" on="0"/>
        <pt x="436" y="414" on="1"/>
        <pt x="440" y="414" on="1"/>
        <pt x="461" y="460" on="1"/>
      </contour>
      <contour>
        <pt x="225" y="71" on="1"/>
        <pt x="241" y="71" on="0"/>
        <pt x="279" y="80" on="0"/>
        <pt x="318" y="96" on="0"/>
        <pt x="354" y="119" on="0"/>
        <pt x="368" y="134" on="1"/>
        <pt x="409" y="326" on="1"/>
        <pt x="386" y="363" on="0"/>
        <pt x="330" y="390" on="0"/>
        <pt x="301" y="390" on="1"/>
        <pt x="262" y="390" on="0"/>
        <pt x="202" y="355" on="0"/>
        <pt x="160" y="298" on="0"/>
        <pt x="138" y="227" on="0"/>
        <pt x="138" y="190" on="1"/>
        <pt x="138" y="167" on="0"/>
        <pt x="148" y="124" on="0"/>
        <pt x="169" y="91" on="0"/>
        <pt x="202" y="71" on="0"/>
      </contour>
    </TTGlyph>
    <TTGlyph name="aacute" xMin="28" yMin="-12" xMax="547" yMax="682">
      <contour>
        <pt x="308" y="535" on="1"/>
        <pt x="300" y="571" on="1"/>
        <pt x="305" y="578" on="1"/>
        <pt x="506" y="679" on="1"/>
        <pt x="512" y="682" on="0"/>
        <pt x="517" y="682" on="1"/>
        <pt x="528" y="682" on="0"/>
        <pt x="538" y="657" on="0"/>
        <pt x="538" y="643" on="1"/>
        <pt x="538" y="629" on="0"/>
        <pt x="527" y="604" on="0"/>
        <pt x="517" y="601" on="1"/>
        <pt x="315" y="532" on="1"/>
      </contour>
      <contour>
        <pt x="547" y="460" on="1"/>
        <pt x="449" y="0" on="1"/>
        <pt x="361" y="0" on="1"/>
        <pt x="366" y="63" on="1"/>
        <pt x="362" y="63" on="1"/>
        <pt x="327" y="32" on="0"/>
        <pt x="247" y="-12" on="0"/>
        <pt x="193" y="-12" on="1"/>
        <pt x="154" y="-12" on="0"/>
        <pt x="92" y="17" on="0"/>
        <pt x="50" y="68" on="0"/>
        <pt x="28" y="138" on="0"/>
        <pt x="28" y="179" on="1"/>
        <pt x="28" y="233" on="0"/>
        <pt x="64" y="339" on="0"/>
        <pt x="132" y="423" on="0"/>
        <pt x="231" y="475" on="0"/>
        <pt x="294" y="475" on="1"/>
        <pt x="342" y="475" on="0"/>
        <pt x="419" y="443" on="0"/>
        <pt x="436" y="414" on="1"/>
        <pt x="440" y="414" on="1"/>
        <pt x="461" y="460" on="1"/>
      </contour>
      <contour>
        <pt x="225" y="71" on="1"/>
        <pt x="241" y="71" on="0"/>
        <pt x="279" y="80" on="0"/>
        <pt x="318" y="96" on="0"/>
        <pt x="354" y="119" on="0"/>
        <pt x="368" y="134" on="1"/>
        <pt x="409" y="326" on="1"/>
        <pt x="386" y="363" on="0"/>
        <pt x="330" y="390" on="0"/>
        <pt x="301" y="390" on="1"/>
        <pt x="262" y="390" on="0"/>
        <pt x="202" y="355" on="0"/>
        <pt x="160" y="298" on="0"/>
        <pt x="138" y="227" on="0"/>
        <pt x="138" y="190" on="1"/>
        <pt x="138" y="167" on="0"/>
        <pt x="148" y="124" on="0"/>
        <pt x="169" y="91" on="0"/>
        <pt x="202" y="71" on="0"/>
      </contour>
    </TTGlyph>
    <TTGlyph name="acircumflex" xMin="28" yMin="-12" xMax="547" yMax="673">
      <contour>
        <pt x="389" y="673" on="1"/>
        <pt x="478" y="574" on="1"/>
        <pt x="480" y="567" on="1"/>
        <pt x="457" y="538" on="1"/>
        <pt x="450" y="535" on="1"/>
        <pt x="365" y="576" on="1"/>
        <pt x="262" y="535" on="1"/>
        <pt x="255" y="538" on="1"/>
        <pt x="246" y="567" on="1"/>
        <pt x="250" y="574" on="1"/>
        <pt x="381" y="673" on="1"/>
      </contour>
      <contour>
        <pt x="547" y="460" on="1"/>
        <pt x="449" y="0" on="1"/>
        <pt x="361" y="0" on="1"/>
        <pt x="366" y="63" on="1"/>
        <pt x="362" y="63" on="1"/>
        <pt x="327" y="32" on="0"/>
        <pt x="247" y="-12" on="0"/>
        <pt x="193" y="-12" on="1"/>
        <pt x="154" y="-12" on="0"/>
        <pt x="92" y="17" on="0"/>
        <pt x="50" y="68" on="0"/>
        <pt x="28" y="138" on="0"/>
        <pt x="28" y="179" on="1"/>
        <pt x="28" y="233" on="0"/>
        <pt x="64" y="339" on="0"/>
        <pt x="132" y="423" on="0"/>
        <pt x="231" y="475" on="0"/>
        <pt x="294" y="475" on="1"/>
        <pt x="342" y="475" on="0"/>
        <pt x="419" y="443" on="0"/>
        <pt x="436" y="414" on="1"/>
        <pt x="440" y="414" on="1"/>
        <pt x="461" y="460" on="1"/>
      </contour>
      <contour>
        <pt x="225" y="71" on="1"/>
        <pt x="241" y="71" on="0"/>
        <pt x="279" y="80" on="0"/>
        <pt x="318" y="96" on="0"/>
        <pt x="354" y="119" on="0"/>
        <pt x="368" y="134" on="1"/>
        <pt x="409" y="326" on="1"/>
        <pt x="386" y="363" on="0"/>
        <pt x="330" y="390" on="0"/>
        <pt x="301" y="390" on="1"/>
        <pt x="262" y="390" on="0"/>
        <pt x="202" y="355" on="0"/>
        <pt x="160" y="298" on="0"/>
        <pt x="138" y="227" on="0"/>
        <pt x="138" y="190" on="1"/>
        <pt x="138" y="167" on="0"/>
        <pt x="148" y="124" on="0"/>
        <pt x="169" y="91" on="0"/>
        <pt x="202" y="71" on="0"/>
      </contour>
    </TTGlyph>
    <TTGlyph name="acute" xMin="122" yMin="533" xMax="359" yMax="683">
      <contour>
        <pt x="129" y="536" on="1"/>
        <pt x="122" y="572" on="1"/>
        <pt x="127" y="579" on="1"/>
        <pt x="328" y="680" on="1"/>
        <pt x="334" y="683" on="0"/>
        <pt x="339" y="683" on="1"/>
        <pt x="350" y="683" on="0"/>
        <pt x="359" y="658" on="0"/>
        <pt x="359" y="644" on="1"/>
        <pt x="359" y="630" on="0"/>
        <pt x="348" y="605" on="0"/>
        <pt x="338" y="602" on="1"/>
        <pt x="136" y="533" on="1"/>
      </contour>
    </TTGlyph>
    <TTGlyph name="adieresis" xMin="28" yMin="-12" xMax="547" yMax="671">
      <contour>
        <pt x="255" y="603" on="1"/>
        <pt x="255" y="616" on="0"/>
        <pt x="267" y="640" on="0"/>
        <pt x="287" y="659" on="0"/>
        <pt x="313" y="671" on="0"/>
        <pt x="326" y="671" on="1"/>
        <pt x="346" y="671" on="0"/>
        <pt x="373" y="640" on="0"/>
        <pt x="373" y="620" on="1"/>
        <pt x="373" y="607" on="0"/>
        <pt x="360" y="584" on="0"/>
        <pt x="339" y="566" on="0"/>
        <pt x="313" y="555" on="0"/>
        <pt x="301" y="555" on="1"/>
        <pt x="281" y="555" on="0"/>
        <pt x="255" y="583" on="0"/>
      </contour>
      <contour>
        <pt x="391" y="603" on="1"/>
        <pt x="391" y="616" on="0"/>
        <pt x="403" y="640" on="0"/>
        <pt x="423" y="659" on="0"/>
        <pt x="449" y="671" on="0"/>
        <pt x="462" y="671" on="1"/>
        <pt x="482" y="671" on="0"/>
        <pt x="509" y="640" on="0"/>
        <pt x="509" y="620" on="1"/>
        <pt x="509" y="607" on="0"/>
        <pt x="496" y="584" on="0"/>
        <pt x="475" y="566" on="0"/>
        <pt x="449" y="555" on="0"/>
        <pt x="437" y="555" on="1"/>
        <pt x="417" y="555" on="0"/>
        <pt x="391" y="583" on="0"/>
      </contour>
      <contour>
        <pt x="547" y="460" on="1"/>
        <pt x="449" y="0" on="1"/>
        <pt x="361" y="0" on="1"/>
        <pt x="366" y="63" on="1"/>
        <pt x="362" y="63" on="1"/>
        <pt x="327" y="32" on="0"/>
        <pt x="247" y="-12" on="0"/>
        <pt x="193" y="-12" on="1"/>
        <pt x="154" y="-12" on="0"/>
        <pt x="92" y="17" on="0"/>
        <pt x="50" y="68" on="0"/>
        <pt x="28" y="138" on="0"/>
        <pt x="28" y="179" on="1"/>
        <pt x="28" y="233" on="0"/>
        <pt x="64" y="339" on="0"/>
        <pt x="132" y="423" on="0"/>
        <pt x="231" y="475" on="0"/>
        <pt x="294" y="475" on="1"/>
        <pt x="342" y="475" on="0"/>
        <pt x="419" y="443" on="0"/>
        <pt x="436" y="414" on="1"/>
        <pt x="440" y="414" on="1"/>
        <pt x="461" y="460" on="1"/>
      </contour>
      <contour>
        <pt x="225" y="71" on="1"/>
        <pt x="241" y="71" on="0"/>
        <pt x="279" y="80" on="0"/>
        <pt x="318" y="96" on="0"/>
        <pt x="354" y="119" on="0"/>
        <pt x="368" y="134" on="1"/>
        <pt x="409" y="326" on="1"/>
        <pt x="386" y="363" on="0"/>
        <pt x="330" y="390" on="0"/>
        <pt x="301" y="390" on="1"/>
        <pt x="262" y="390" on="0"/>
        <pt x="202" y="355" on="0"/>
        <pt x="160" y="298" on="0"/>
        <pt x="138" y="227" on="0"/>
        <pt x="138" y="190" on="1"/>
        <pt x="138" y="167" on="0"/>
        <pt x="148" y="124" on="0"/>
        <pt x="169" y="91" on="0"/>
        <pt x="202" y="71" on="0"/>
      </contour>
    </TTGlyph>
    <TTGlyph name="ae" xMin="-1" yMin="-12" xMax="772" yMax="475">
      <contour>
        <pt x="619" y="475" on="1"/>
        <pt x="694" y="475" on="0"/>
        <pt x="772" y="406" on="0"/>
        <pt x="772" y="343" on="1"/>
        <pt x="772" y="324" on="0"/>
        <pt x="764" y="286" on="0"/>
        <pt x="752" y="253" on="0"/>
        <pt x="737" y="227" on="0"/>
        <pt x="730" y="220" on="1"/>
        <pt x="439" y="220" on="1"/>
        <pt x="436" y="203" on="0"/>
        <pt x="436" y="187" on="1"/>
        <pt x="436" y="139" on="0"/>
        <pt x="487" y="75" on="0"/>
        <pt x="544" y="75" on="1"/>
        <pt x="581" y="75" on="0"/>
        <pt x="669" y="103" on="0"/>
        <pt x="704" y="124" on="1"/>
        <pt x="704" y="42" on="1"/>
        <pt x="689" y="34" on="0"/>
        <pt x="646" y="15" on="0"/>
        <pt x="595" y="-1" on="0"/>
        <pt x="538" y="-12" on="0"/>
        <pt x="508" y="-12" on="1"/>
        <pt x="446" y="-12" on="0"/>
        <pt x="365" y="35" on="0"/>
        <pt x="345" y="74" on="1"/>
        <pt x="292" y="26" on="0"/>
        <pt x="173" y="-12" on="0"/>
        <pt x="113" y="-12" on="1"/>
        <pt x="55" y="-12" on="0"/>
        <pt x="-1" y="48" on="0"/>
        <pt x="-1" y="93" on="1"/>
        <pt x="-1" y="137" on="0"/>
        <pt x="29" y="201" on="0"/>
        <pt x="78" y="246" on="0"/>
        <pt x="141" y="275" on="0"/>
        <pt x="206" y="290" on="0"/>
        <pt x="267" y="296" on="0"/>
        <pt x="291" y="296" on="1"/>
        <pt x="333" y="296" on="1"/>
        <pt x="335" y="305" on="1"/>
        <pt x="338" y="318" on="0"/>
        <pt x="338" y="330" on="1"/>
        <pt x="338" y="386" on="0"/>
        <pt x="256" y="386" on="1"/>
        <pt x="212" y="386" on="0"/>
        <pt x="142" y="368" on="0"/>
        <pt x="107" y="353" on="1"/>
        <pt x="104" y="436" on="1"/>
        <pt x="183" y="475" on="0"/>
        <pt x="281" y="475" on="1"/>
        <pt x="303" y="475" on="0"/>
        <pt x="349" y="469" on="0"/>
        <pt x="391" y="454" on="0"/>
        <pt x="425" y="429" on="0"/>
        <pt x="436" y="410" on="1"/>
        <pt x="473" y="440" on="0"/>
        <pt x="565" y="475" on="0"/>
      </contour>
      <contour>
        <pt x="171" y="77" on="1"/>
        <pt x="185" y="77" on="0"/>
        <pt x="219" y="84" on="0"/>
        <pt x="253" y="99" on="0"/>
        <pt x="286" y="120" on="0"/>
        <pt x="299" y="134" on="1"/>
        <pt x="318" y="227" on="1"/>
        <pt x="311" y="227" on="1"/>
        <pt x="278" y="227" on="0"/>
        <pt x="211" y="220" on="0"/>
        <pt x="155" y="198" on="0"/>
        <pt x="120" y="155" on="0"/>
        <pt x="120" y="119" on="1"/>
        <pt x="120" y="99" on="0"/>
        <pt x="147" y="77" on="0"/>
      </contour>
      <contour>
        <pt x="598" y="389" on="1"/>
        <pt x="553" y="389" on="0"/>
        <pt x="485" y="338" on="0"/>
        <pt x="464" y="298" on="1"/>
        <pt x="632" y="298" on="1"/>
        <pt x="653" y="298" on="0"/>
        <pt x="656" y="299" on="1"/>
        <pt x="658" y="304" on="0"/>
        <pt x="662" y="316" on="0"/>
        <pt x="662" y="330" on="1"/>
        <pt x="662" y="359" on="0"/>
        <pt x="625" y="389" on="0"/>
      </contour>
    </TTGlyph>
    <TTGlyph name="agrave" xMin="28" yMin="-12" xMax="547" yMax="681">
      <contour>
        <pt x="418" y="531" on="1"/>
        <pt x="246" y="600" on="1"/>
        <pt x="237" y="603" on="0"/>
        <pt x="237" y="619" on="1"/>
        <pt x="237" y="628" on="0"/>
        <pt x="245" y="650" on="0"/>
        <pt x="257" y="669" on="0"/>
        <pt x="272" y="681" on="0"/>
        <pt x="280" y="681" on="1"/>
        <pt x="284" y="681" on="0"/>
        <pt x="289" y="678" on="1"/>
        <pt x="448" y="577" on="1"/>
        <pt x="449" y="570" on="1"/>
        <pt x="427" y="534" on="1"/>
      </contour>
      <contour>
        <pt x="547" y="460" on="1"/>
        <pt x="449" y="0" on="1"/>
        <pt x="361" y="0" on="1"/>
        <pt x="366" y="63" on="1"/>
        <pt x="362" y="63" on="1"/>
        <pt x="327" y="32" on="0"/>
        <pt x="247" y="-12" on="0"/>
        <pt x="193" y="-12" on="1"/>
        <pt x="154" y="-12" on="0"/>
        <pt x="92" y="17" on="0"/>
        <pt x="50" y="68" on="0"/>
        <pt x="28" y="138" on="0"/>
        <pt x="28" y="179" on="1"/>
        <pt x="28" y="233" on="0"/>
        <pt x="64" y="339" on="0"/>
        <pt x="132" y="423" on="0"/>
        <pt x="231" y="475" on="0"/>
        <pt x="294" y="475" on="1"/>
        <pt x="342" y="475" on="0"/>
        <pt x="419" y="443" on="0"/>
        <pt x="436" y="414" on="1"/>
        <pt x="440" y="414" on="1"/>
        <pt x="461" y="460" on="1"/>
      </contour>
      <contour>
        <pt x="225" y="71" on="1"/>
        <pt x="241" y="71" on="0"/>
        <pt x="279" y="80" on="0"/>
        <pt x="318" y="96" on="0"/>
        <pt x="354" y="119" on="0"/>
        <pt x="368" y="134" on="1"/>
        <pt x="409" y="326" on="1"/>
        <pt x="386" y="363" on="0"/>
        <pt x="330" y="390" on="0"/>
        <pt x="301" y="390" on="1"/>
        <pt x="262" y="390" on="0"/>
        <pt x="202" y="355" on="0"/>
        <pt x="160" y="298" on="0"/>
        <pt x="138" y="227" on="0"/>
        <pt x="138" y="190" on="1"/>
        <pt x="138" y="167" on="0"/>
        <pt x="148" y="124" on="0"/>
        <pt x="169" y="91" on="0"/>
        <pt x="202" y="71" on="0"/>
      </contour>
    </TTGlyph>
    <TTGlyph name="ampersand" xMin="28" yMin="-12" xMax="703" yMax="665">
      <contour>
        <pt x="703" y="442" on="1"/>
        <pt x="687" y="365" on="1"/>
        <pt x="541" y="354" on="1"/>
        <pt x="553" y="316" on="0"/>
        <pt x="553" y="275" on="1"/>
        <pt x="553" y="201" on="0"/>
        <pt x="510" y="137" on="1"/>
        <pt x="614" y="0" on="1"/>
        <pt x="489" y="0" on="1"/>
        <pt x="441" y="62" on="1"/>
        <pt x="398" y="28" on="0"/>
        <pt x="287" y="-12" on="0"/>
        <pt x="221" y="-12" on="1"/>
        <pt x="172" y="-12" on="0"/>
        <pt x="99" y="14" on="0"/>
        <pt x="51" y="58" on="0"/>
        <pt x="28" y="115" on="0"/>
        <pt x="28" y="146" on="1"/>
        <pt x="28" y="176" on="0"/>
        <pt x="52" y="242" on="0"/>
        <pt x="98" y="302" on="0"/>
        <pt x="165" y="354" on="0"/>
        <pt x="207" y="371" on="1"/>
        <pt x="173" y="424" on="0"/>
        <pt x="173" y="483" on="1"/>
        <pt x="173" y="527" on="0"/>
        <pt x="204" y="595" on="0"/>
        <pt x="255" y="641" on="0"/>
        <pt x="321" y="665" on="0"/>
        <pt x="357" y="665" on="1"/>
        <pt x="391" y="665" on="0"/>
        <pt x="461" y="642" on="0"/>
        <pt x="491" y="621" on="1"/>
        <pt x="442" y="525" on="1"/>
        <pt x="435" y="533" on="0"/>
        <pt x="412" y="550" on="0"/>
        <pt x="386" y="563" on="0"/>
        <pt x="358" y="572" on="0"/>
        <pt x="345" y="572" on="1"/>
        <pt x="316" y="572" on="0"/>
        <pt x="272" y="530" on="0"/>
        <pt x="272" y="491" on="1"/>
        <pt x="272" y="465" on="0"/>
        <pt x="296" y="421" on="0"/>
        <pt x="313" y="398" on="1"/>
        <pt x="449" y="218" on="1"/>
        <pt x="458" y="243" on="0"/>
        <pt x="458" y="272" on="1"/>
        <pt x="458" y="289" on="0"/>
        <pt x="450" y="327" on="0"/>
        <pt x="442" y="346" on="1"/>
        <pt x="392" y="343" on="1"/>
        <pt x="406" y="405" on="1"/>
      </contour>
      <contour>
        <pt x="250" y="84" on="1"/>
        <pt x="291" y="84" on="0"/>
        <pt x="360" y="109" on="0"/>
        <pt x="388" y="132" on="1"/>
        <pt x="254" y="307" on="1"/>
        <pt x="230" y="301" on="0"/>
        <pt x="190" y="273" on="0"/>
        <pt x="163" y="234" on="0"/>
        <pt x="148" y="189" on="0"/>
        <pt x="148" y="168" on="1"/>
        <pt x="148" y="126" on="0"/>
        <pt x="205" y="84" on="0"/>
      </contour>
    </TTGlyph>
    <TTGlyph name="aring" xMin="28" yMin="-12" xMax="547" yMax="693">
      <contour>
        <pt x="403" y="693" on="1"/>
        <pt x="441" y="693" on="0"/>
        <pt x="480" y="649" on="0"/>
        <pt x="480" y="621" on="1"/>
        <pt x="480" y="604" on="0"/>
        <pt x="464" y="571" on="0"/>
        <pt x="435" y="544" on="0"/>
        <pt x="394" y="528" on="0"/>
        <pt x="369" y="528" on="1"/>
        <pt x="328" y="528" on="0"/>
        <pt x="292" y="571" on="0"/>
        <pt x="292" y="597" on="1"/>
        <pt x="292" y="615" on="0"/>
        <pt x="309" y="649" on="0"/>
        <pt x="338" y="676" on="0"/>
        <pt x="379" y="693" on="0"/>
      </contour>
      <contour>
        <pt x="379" y="572" on="1"/>
        <pt x="396" y="572" on="0"/>
        <pt x="421" y="600" on="0"/>
        <pt x="421" y="615" on="1"/>
        <pt x="421" y="628" on="0"/>
        <pt x="407" y="649" on="0"/>
        <pt x="393" y="649" on="1"/>
        <pt x="374" y="649" on="0"/>
        <pt x="350" y="619" on="0"/>
        <pt x="350" y="604" on="1"/>
        <pt x="350" y="592" on="0"/>
        <pt x="365" y="572" on="0"/>
      </contour>
      <contour>
        <pt x="547" y="460" on="1"/>
        <pt x="449" y="0" on="1"/>
        <pt x="361" y="0" on="1"/>
        <pt x="366" y="63" on="1"/>
        <pt x="362" y="63" on="1"/>
        <pt x="327" y="32" on="0"/>
        <pt x="247" y="-12" on="0"/>
        <pt x="193" y="-12" on="1"/>
        <pt x="154" y="-12" on="0"/>
        <pt x="92" y="17" on="0"/>
        <pt x="50" y="68" on="0"/>
        <pt x="28" y="138" on="0"/>
        <pt x="28" y="179" on="1"/>
        <pt x="28" y="233" on="0"/>
        <pt x="64" y="339" on="0"/>
        <pt x="132" y="423" on="0"/>
        <pt x="231" y="475" on="0"/>
        <pt x="294" y="475" on="1"/>
        <pt x="342" y="475" on="0"/>
        <pt x="419" y="443" on="0"/>
        <pt x="436" y="414" on="1"/>
        <pt x="440" y="414" on="1"/>
        <pt x="461" y="460" on="1"/>
      </contour>
      <contour>
        <pt x="225" y="71" on="1"/>
        <pt x="241" y="71" on="0"/>
        <pt x="279" y="80" on="0"/>
        <pt x="318" y="96" on="0"/>
        <pt x="354" y="119" on="0"/>
        <pt x="368" y="134" on="1"/>
        <pt x="409" y="326" on="1"/>
        <pt x="386" y="363" on="0"/>
        <pt x="330" y="390" on="0"/>
        <pt x="301" y="390" on="1"/>
        <pt x="262" y="390" on="0"/>
        <pt x="202" y="355" on="0"/>
        <pt x="160" y="298" on="0"/>
        <pt x="138" y="227" on="0"/>
        <pt x="138" y="190" on="1"/>
        <pt x="138" y="167" on="0"/>
        <pt x="148" y="124" on="0"/>
        <pt x="169" y="91" on="0"/>
        <pt x="202" y="71" on="0"/>
      </contour>
    </TTGlyph>
    <TTGlyph name="asciicircum" xMin="178" yMin="535" xMax="412" yMax="673">
      <contour>
        <pt x="322" y="673" on="1"/>
        <pt x="410" y="574" on="1"/>
        <pt x="412" y="567" on="1"/>
        <pt x="390" y="538" on="1"/>
        <pt x="382" y="535" on="1"/>
        <pt x="297" y="576" on="1"/>
        <pt x="194" y="535" on="1"/>
        <pt x="188" y="538" on="1"/>
        <pt x="178" y="567" on="1"/>
        <pt x="182" y="574" on="1"/>
        <pt x="314" y="673" on="1"/>
      </contour>
    </TTGlyph>
    <TTGlyph name="asciitilde" xMin="49" yMin="183" xMax="414" yMax="308">
      <contour>
        <pt x="414" y="288" on="1"/>
        <pt x="413" y="283" on="0"/>
        <pt x="398" y="254" on="0"/>
        <pt x="369" y="221" on="0"/>
        <pt x="329" y="196" on="0"/>
        <pt x="304" y="196" on="1"/>
        <pt x="296" y="196" on="0"/>
        <pt x="247" y="199" on="0"/>
        <pt x="189" y="202" on="0"/>
        <pt x="134" y="205" on="0"/>
        <pt x="120" y="205" on="1"/>
        <pt x="97" y="205" on="0"/>
        <pt x="70" y="195" on="0"/>
        <pt x="58" y="183" on="1"/>
        <pt x="49" y="202" on="1"/>
        <pt x="50" y="210" on="0"/>
        <pt x="68" y="241" on="0"/>
        <pt x="98" y="271" on="0"/>
        <pt x="139" y="294" on="0"/>
        <pt x="164" y="294" on="1"/>
        <pt x="173" y="294" on="0"/>
        <pt x="214" y="291" on="0"/>
        <pt x="264" y="288" on="0"/>
        <pt x="315" y="285" on="0"/>
        <pt x="335" y="285" on="1"/>
        <pt x="354" y="285" on="0"/>
        <pt x="390" y="292" on="0"/>
        <pt x="407" y="308" on="1"/>
      </contour>
    </TTGlyph>
    <TTGlyph name="asterisk" xMin="98" yMin="374" xMax="450" yMax="702">
      <contour>
        <pt x="307" y="578" on="1"/>
        <pt x="417" y="665" on="1"/>
        <pt x="450" y="576" on="1"/>
        <pt x="322" y="538" on="1"/>
        <pt x="434" y="500" on="1"/>
        <pt x="363" y="411" on="1"/>
        <pt x="290" y="497" on="1"/>
        <pt x="290" y="374" on="1"/>
        <pt x="188" y="374" on="1"/>
        <pt x="241" y="497" on="1"/>
        <pt x="131" y="411" on="1"/>
        <pt x="98" y="500" on="1"/>
        <pt x="225" y="538" on="1"/>
        <pt x="114" y="576" on="1"/>
        <pt x="185" y="665" on="1"/>
        <pt x="258" y="578" on="1"/>
        <pt x="258" y="702" on="1"/>
        <pt x="360" y="702" on="1"/>
      </contour>
    </TTGlyph>
    <TTGlyph name="at" xMin="24" yMin="-101" xMax="687" yMax="548">
      <contour>
        <pt x="421" y="320" on="1"/>
        <pt x="413" y="324" on="0"/>
        <pt x="403" y="324" on="1"/>
        <pt x="380" y="324" on="0"/>
        <pt x="339" y="291" on="0"/>
        <pt x="308" y="245" on="0"/>
        <pt x="289" y="194" on="0"/>
        <pt x="289" y="175" on="1"/>
        <pt x="289" y="150" on="0"/>
        <pt x="305" y="150" on="1"/>
        <pt x="314" y="150" on="0"/>
        <pt x="338" y="165" on="0"/>
        <pt x="363" y="192" on="0"/>
        <pt x="386" y="227" on="0"/>
        <pt x="394" y="248" on="1"/>
      </contour>
      <contour>
        <pt x="509" y="-23" on="1"/>
        <pt x="497" y="-32" on="0"/>
        <pt x="448" y="-59" on="0"/>
        <pt x="382" y="-84" on="0"/>
        <pt x="304" y="-101" on="0"/>
        <pt x="263" y="-101" on="1"/>
        <pt x="212" y="-101" on="0"/>
        <pt x="124" y="-69" on="0"/>
        <pt x="60" y="-9" on="0"/>
        <pt x="24" y="76" on="0"/>
        <pt x="24" y="128" on="1"/>
        <pt x="24" y="167" on="0"/>
        <pt x="50" y="260" on="0"/>
        <pt x="101" y="354" on="0"/>
        <pt x="176" y="441" on="0"/>
        <pt x="273" y="508" on="0"/>
        <pt x="391" y="548" on="0"/>
        <pt x="460" y="548" on="1"/>
        <pt x="521" y="548" on="0"/>
        <pt x="607" y="513" on="0"/>
        <pt x="662" y="455" on="0"/>
        <pt x="687" y="382" on="0"/>
        <pt x="687" y="345" on="1"/>
        <pt x="687" y="292" on="0"/>
        <pt x="642" y="195" on="0"/>
        <pt x="569" y="119" on="0"/>
        <pt x="478" y="74" on="0"/>
        <pt x="432" y="74" on="1"/>
        <pt x="403" y="74" on="0"/>
        <pt x="368" y="101" on="0"/>
        <pt x="368" y="127" on="1"/>
        <pt x="368" y="136" on="0"/>
        <pt x="371" y="147" on="1"/>
        <pt x="347" y="113" on="0"/>
        <pt x="280" y="73" on="0"/>
        <pt x="254" y="73" on="1"/>
        <pt x="229" y="73" on="0"/>
        <pt x="190" y="118" on="0"/>
        <pt x="190" y="163" on="1"/>
        <pt x="190" y="213" on="0"/>
        <pt x="236" y="296" on="0"/>
        <pt x="305" y="356" on="0"/>
        <pt x="387" y="389" on="0"/>
        <pt x="424" y="389" on="1"/>
        <pt x="437" y="389" on="0"/>
        <pt x="467" y="384" on="0"/>
        <pt x="495" y="375" on="0"/>
        <pt x="518" y="360" on="0"/>
        <pt x="523" y="350" on="1"/>
        <pt x="462" y="208" on="1"/>
        <pt x="456" y="194" on="0"/>
        <pt x="448" y="166" on="0"/>
        <pt x="448" y="161" on="1"/>
        <pt x="448" y="155" on="0"/>
        <pt x="454" y="145" on="0"/>
        <pt x="465" y="145" on="1"/>
        <pt x="485" y="145" on="0"/>
        <pt x="527" y="180" on="0"/>
        <pt x="562" y="234" on="0"/>
        <pt x="584" y="301" on="0"/>
        <pt x="584" y="333" on="1"/>
        <pt x="584" y="360" on="0"/>
        <pt x="569" y="409" on="0"/>
        <pt x="535" y="448" on="0"/>
        <pt x="481" y="471" on="0"/>
        <pt x="443" y="471" on="1"/>
        <pt x="372" y="471" on="0"/>
        <pt x="256" y="406" on="0"/>
        <pt x="173" y="306" on="0"/>
        <pt x="127" y="187" on="0"/>
        <pt x="127" y="132" on="1"/>
        <pt x="127" y="91" on="0"/>
        <pt x="152" y="33" on="0"/>
        <pt x="197" y="-5" on="0"/>
        <pt x="258" y="-23" on="0"/>
        <pt x="294" y="-23" on="1"/>
        <pt x="333" y="-23" on="0"/>
        <pt x="406" y="-6" on="0"/>
        <pt x="466" y="19" on="0"/>
        <pt x="512" y="47" on="0"/>
        <pt x="526" y="57" on="1"/>
      </contour>
    </TTGlyph>
    <TTGlyph name="atilde" xMin="28" yMin="-12" xMax="547" yMax="681">
      <contour>
        <pt x="545" y="658" on="1"/>
        <pt x="539" y="642" on="0"/>
        <pt x="519" y="609" on="0"/>
        <pt x="492" y="583" on="0"/>
        <pt x="457" y="566" on="0"/>
        <pt x="435" y="566" on="1"/>
        <pt x="423" y="566" on="0"/>
        <pt x="393" y="570" on="0"/>
        <pt x="358" y="576" on="0"/>
        <pt x="322" y="580" on="0"/>
        <pt x="305" y="580" on="1"/>
        <pt x="282" y="580" on="0"/>
        <pt x="242" y="569" on="0"/>
        <pt x="225" y="555" on="1"/>
        <pt x="217" y="578" on="1"/>
        <pt x="226" y="596" on="0"/>
        <pt x="247" y="629" on="0"/>
        <pt x="274" y="654" on="0"/>
        <pt x="309" y="669" on="0"/>
        <pt x="334" y="669" on="1"/>
        <pt x="363" y="669" on="0"/>
        <pt x="429" y="655" on="0"/>
        <pt x="456" y="655" on="1"/>
        <pt x="474" y="655" on="0"/>
        <pt x="515" y="666" on="0"/>
        <pt x="538" y="681" on="1"/>
      </contour>
      <contour>
        <pt x="547" y="460" on="1"/>
        <pt x="449" y="0" on="1"/>
        <pt x="361" y="0" on="1"/>
        <pt x="366" y="63" on="1"/>
        <pt x="362" y="63" on="1"/>
        <pt x="327" y="32" on="0"/>
        <pt x="247" y="-12" on="0"/>
        <pt x="193" y="-12" on="1"/>
        <pt x="154" y="-12" on="0"/>
        <pt x="92" y="17" on="0"/>
        <pt x="50" y="68" on="0"/>
        <pt x="28" y="138" on="0"/>
        <pt x="28" y="179" on="1"/>
        <pt x="28" y="233" on="0"/>
        <pt x="64" y="339" on="0"/>
        <pt x="132" y="423" on="0"/>
        <pt x="231" y="475" on="0"/>
        <pt x="294" y="475" on="1"/>
        <pt x="342" y="475" on="0"/>
        <pt x="419" y="443" on="0"/>
        <pt x="436" y="414" on="1"/>
        <pt x="440" y="414" on="1"/>
        <pt x="461" y="460" on="1"/>
      </contour>
      <contour>
        <pt x="225" y="71" on="1"/>
        <pt x="241" y="71" on="0"/>
        <pt x="279" y="80" on="0"/>
        <pt x="318" y="96" on="0"/>
        <pt x="354" y="119" on="0"/>
        <pt x="368" y="134" on="1"/>
        <pt x="409" y="326" on="1"/>
        <pt x="386" y="363" on="0"/>
        <pt x="330" y="390" on="0"/>
        <pt x="301" y="390" on="1"/>
        <pt x="262" y="390" on="0"/>
        <pt x="202" y="355" on="0"/>
        <pt x="160" y="298" on="0"/>
        <pt x="138" y="227" on="0"/>
        <pt x="138" y="190" on="1"/>
        <pt x="138" y="167" on="0"/>
        <pt x="148" y="124" on="0"/>
        <pt x="169" y="91" on="0"/>
        <pt x="202" y="71" on="0"/>
      </contour>
    </TTGlyph>
    <TTGlyph name="b" xMin="11" yMin="-12" xMax="531" yMax="740">
      <contour>
        <pt x="261" y="-12" on="1"/>
        <pt x="207" y="-12" on="0"/>
        <pt x="146" y="32" on="0"/>
        <pt x="124" y="63" on="1"/>
        <pt x="120" y="63" on="1"/>
        <pt x="99" y="0" on="1"/>
        <pt x="11" y="0" on="1"/>
        <pt x="168" y="740" on="1"/>
        <pt x="277" y="740" on="1"/>
        <pt x="208" y="414" on="1"/>
        <pt x="237" y="443" on="0"/>
        <pt x="320" y="475" on="0"/>
        <pt x="368" y="475" on="1"/>
        <pt x="411" y="475" on="0"/>
        <pt x="472" y="445" on="0"/>
        <pt x="512" y="394" on="0"/>
        <pt x="531" y="328" on="0"/>
        <pt x="531" y="291" on="1"/>
        <pt x="531" y="229" on="0"/>
        <pt x="489" y="119" on="0"/>
        <pt x="416" y="36" on="0"/>
        <pt x="317" y="-12" on="0"/>
      </contour>
      <contour>
        <pt x="265" y="71" on="1"/>
        <pt x="301" y="71" on="0"/>
        <pt x="358" y="109" on="0"/>
        <pt x="398" y="168" on="0"/>
        <pt x="420" y="239" on="0"/>
        <pt x="420" y="273" on="1"/>
        <pt x="420" y="321" on="0"/>
        <pt x="374" y="390" on="0"/>
        <pt x="324" y="390" on="1"/>
        <pt x="295" y="390" on="0"/>
        <pt x="227" y="363" on="0"/>
        <pt x="189" y="326" on="1"/>
        <pt x="148" y="134" on="1"/>
        <pt x="156" y="119" on="0"/>
        <pt x="183" y="96" on="0"/>
        <pt x="214" y="80" on="0"/>
        <pt x="249" y="71" on="0"/>
      </contour>
    </TTGlyph>
    <TTGlyph name="backslash" xMin="120" yMin="-57" xMax="350" yMax="702">
      <contour>
        <pt x="120" y="702" on="1"/>
        <pt x="233" y="702" on="1"/>
        <pt x="350" y="-57" on="1"/>
        <pt x="237" y="-57" on="1"/>
      </contour>
    </TTGlyph>
    <TTGlyph name="bar" xMin="-5" yMin="-114" xMax="284" yMax="768">
      <contour>
        <pt x="97" y="-114" on="1"/>
        <pt x="-5" y="-114" on="1"/>
        <pt x="182" y="768" on="1"/>
        <pt x="284" y="768" on="1"/>
      </contour>
    </TTGlyph>
    <TTGlyph name="braceleft" xMin="35" yMin="-106" xMax="346" yMax="760">
      <contour>
        <pt x="338" y="709" on="1"/>
        <pt x="313" y="706" on="0"/>
        <pt x="293" y="664" on="0"/>
        <pt x="288" y="641" on="1"/>
        <pt x="285" y="629" on="0"/>
        <pt x="278" y="589" on="0"/>
        <pt x="270" y="547" on="0"/>
        <pt x="262" y="508" on="0"/>
        <pt x="260" y="498" on="1"/>
        <pt x="245" y="426" on="0"/>
        <pt x="183" y="340" on="0"/>
        <pt x="129" y="327" on="1"/>
        <pt x="164" y="318" on="0"/>
        <pt x="196" y="259" on="0"/>
        <pt x="196" y="214" on="1"/>
        <pt x="196" y="188" on="0"/>
        <pt x="182" y="120" on="0"/>
        <pt x="164" y="54" on="0"/>
        <pt x="150" y="-2" on="0"/>
        <pt x="150" y="-15" on="1"/>
        <pt x="150" y="-29" on="0"/>
        <pt x="161" y="-53" on="0"/>
        <pt x="175" y="-55" on="1"/>
        <pt x="162" y="-106" on="1"/>
        <pt x="127" y="-106" on="0"/>
        <pt x="81" y="-92" on="0"/>
        <pt x="53" y="-67" on="0"/>
        <pt x="41" y="-32" on="0"/>
        <pt x="41" y="-10" on="1"/>
        <pt x="41" y="13" on="0"/>
        <pt x="56" y="80" on="0"/>
        <pt x="74" y="149" on="0"/>
        <pt x="89" y="212" on="0"/>
        <pt x="89" y="230" on="1"/>
        <pt x="89" y="242" on="0"/>
        <pt x="84" y="267" on="0"/>
        <pt x="72" y="288" on="0"/>
        <pt x="51" y="301" on="0"/>
        <pt x="35" y="302" on="1"/>
        <pt x="46" y="352" on="1"/>
        <pt x="73" y="353" on="0"/>
        <pt x="107" y="379" on="0"/>
        <pt x="128" y="413" on="0"/>
        <pt x="138" y="450" on="0"/>
        <pt x="141" y="463" on="1"/>
        <pt x="145" y="484" on="0"/>
        <pt x="155" y="530" on="0"/>
        <pt x="163" y="572" on="0"/>
        <pt x="170" y="606" on="0"/>
        <pt x="172" y="617" on="1"/>
        <pt x="179" y="649" on="0"/>
        <pt x="200" y="702" on="0"/>
        <pt x="239" y="739" on="0"/>
        <pt x="299" y="760" on="0"/>
        <pt x="346" y="760" on="1"/>
      </contour>
    </TTGlyph>
    <TTGlyph name="braceright" xMin="-33" yMin="-106" xMax="278" yMax="760">
      <contour>
        <pt x="-24" y="-55" on="1"/>
        <pt x="1" y="-52" on="0"/>
        <pt x="20" y="-10" on="0"/>
        <pt x="25" y="13" on="1"/>
        <pt x="28" y="25" on="0"/>
        <pt x="36" y="65" on="0"/>
        <pt x="44" y="107" on="0"/>
        <pt x="52" y="145" on="0"/>
        <pt x="54" y="156" on="1"/>
        <pt x="69" y="228" on="0"/>
        <pt x="130" y="314" on="0"/>
        <pt x="184" y="327" on="1"/>
        <pt x="149" y="336" on="0"/>
        <pt x="118" y="395" on="0"/>
        <pt x="118" y="440" on="1"/>
        <pt x="118" y="466" on="0"/>
        <pt x="132" y="534" on="0"/>
        <pt x="149" y="600" on="0"/>
        <pt x="163" y="655" on="0"/>
        <pt x="163" y="669" on="1"/>
        <pt x="163" y="683" on="0"/>
        <pt x="153" y="707" on="0"/>
        <pt x="138" y="709" on="1"/>
        <pt x="151" y="760" on="1"/>
        <pt x="186" y="760" on="0"/>
        <pt x="232" y="746" on="0"/>
        <pt x="260" y="721" on="0"/>
        <pt x="272" y="686" on="0"/>
        <pt x="272" y="664" on="1"/>
        <pt x="272" y="641" on="0"/>
        <pt x="257" y="574" on="0"/>
        <pt x="239" y="505" on="0"/>
        <pt x="224" y="442" on="0"/>
        <pt x="224" y="424" on="1"/>
        <pt x="224" y="412" on="0"/>
        <pt x="229" y="387" on="0"/>
        <pt x="241" y="366" on="0"/>
        <pt x="262" y="353" on="0"/>
        <pt x="278" y="352" on="1"/>
        <pt x="268" y="302" on="1"/>
        <pt x="241" y="300" on="0"/>
        <pt x="206" y="275" on="0"/>
        <pt x="185" y="241" on="0"/>
        <pt x="175" y="204" on="0"/>
        <pt x="172" y="191" on="1"/>
        <pt x="167" y="170" on="0"/>
        <pt x="158" y="124" on="0"/>
        <pt x="150" y="82" on="0"/>
        <pt x="143" y="47" on="0"/>
        <pt x="141" y="37" on="1"/>
        <pt x="134" y="5" on="0"/>
        <pt x="113" y="-48" on="0"/>
        <pt x="74" y="-86" on="0"/>
        <pt x="13" y="-106" on="0"/>
        <pt x="-33" y="-106" on="1"/>
      </contour>
    </TTGlyph>
    <TTGlyph name="bracketleft" xMin="0" yMin="-95" xMax="339" yMax="749">
      <contour>
        <pt x="160" y="-95" on="1"/>
        <pt x="0" y="-95" on="1"/>
        <pt x="179" y="749" on="1"/>
        <pt x="339" y="749" on="1"/>
        <pt x="324" y="677" on="1"/>
        <pt x="269" y="677" on="1"/>
        <pt x="120" y="-23" on="1"/>
        <pt x="175" y="-23" on="1"/>
      </contour>
    </TTGlyph>
    <TTGlyph name="bracketright" xMin="-34" yMin="-95" xMax="305" yMax="749">
      <contour>
        <pt x="145" y="749" on="1"/>
        <pt x="305" y="749" on="1"/>
        <pt x="126" y="-95" on="1"/>
        <pt x="-34" y="-95" on="1"/>
        <pt x="-19" y="-23" on="1"/>
        <pt x="36" y="-23" on="1"/>
        <pt x="185" y="677" on="1"/>
        <pt x="130" y="677" on="1"/>
      </contour>
    </TTGlyph>
    <TTGlyph name="brokenbar" xMin="-3" yMin="-114" xMax="286" yMax="768">
      <contour>
        <pt x="181" y="274" on="1"/>
        <pt x="99" y="-114" on="1"/>
        <pt x="-3" y="-114" on="1"/>
        <pt x="79" y="274" on="1"/>
      </contour>
      <contour>
        <pt x="102" y="380" on="1"/>
        <pt x="184" y="768" on="1"/>
        <pt x="286" y="768" on="1"/>
        <pt x="204" y="380" on="1"/>
      </contour>
    </TTGlyph>
    <TTGlyph name="bullet" xMin="82" yMin="172" xMax="229" yMax="316">
      <contour>
        <pt x="82" y="231" on="1"/>
        <pt x="82" y="247" on="0"/>
        <pt x="97" y="277" on="0"/>
        <pt x="122" y="301" on="0"/>
        <pt x="154" y="316" on="0"/>
        <pt x="170" y="316" on="1"/>
        <pt x="195" y="316" on="0"/>
        <pt x="229" y="278" on="0"/>
        <pt x="229" y="253" on="1"/>
        <pt x="229" y="237" on="0"/>
        <pt x="213" y="208" on="0"/>
        <pt x="187" y="185" on="0"/>
        <pt x="155" y="172" on="0"/>
        <pt x="140" y="172" on="1"/>
        <pt x="114" y="172" on="0"/>
        <pt x="82" y="206" on="0"/>
      </contour>
    </TTGlyph>
    <TTGlyph name="c" xMin="28" yMin="-12" xMax="484" yMax="475">
      <contour>
        <pt x="441" y="346" on="1"/>
        <pt x="422" y="363" on="0"/>
        <pt x="346" y="389" on="0"/>
        <pt x="309" y="389" on="1"/>
        <pt x="265" y="389" on="0"/>
        <pt x="204" y="353" on="0"/>
        <pt x="166" y="297" on="0"/>
        <pt x="149" y="229" on="0"/>
        <pt x="149" y="198" on="1"/>
        <pt x="149" y="147" on="0"/>
        <pt x="197" y="77" on="0"/>
        <pt x="249" y="77" on="1"/>
        <pt x="285" y="77" on="0"/>
        <pt x="372" y="106" on="0"/>
        <pt x="405" y="132" on="1"/>
        <pt x="405" y="38" on="1"/>
        <pt x="373" y="20" on="0"/>
        <pt x="269" y="-12" on="0"/>
        <pt x="214" y="-12" on="1"/>
        <pt x="166" y="-12" on="0"/>
        <pt x="96" y="18" on="0"/>
        <pt x="50" y="71" on="0"/>
        <pt x="28" y="141" on="0"/>
        <pt x="28" y="180" on="1"/>
        <pt x="28" y="234" on="0"/>
        <pt x="64" y="340" on="0"/>
        <pt x="138" y="423" on="0"/>
        <pt x="250" y="475" on="0"/>
        <pt x="325" y="475" on="1"/>
        <pt x="373" y="475" on="0"/>
        <pt x="460" y="453" on="0"/>
        <pt x="484" y="435" on="1"/>
      </contour>
    </TTGlyph>
    <TTGlyph name="caron" xMin="136" yMin="535" xMax="370" yMax="673">
      <contour>
        <pt x="226" y="535" on="1"/>
        <pt x="138" y="634" on="1"/>
        <pt x="136" y="641" on="1"/>
        <pt x="158" y="670" on="1"/>
        <pt x="166" y="673" on="1"/>
        <pt x="251" y="632" on="1"/>
        <pt x="354" y="673" on="1"/>
        <pt x="360" y="670" on="1"/>
        <pt x="370" y="641" on="1"/>
        <pt x="366" y="634" on="1"/>
        <pt x="234" y="535" on="1"/>
      </contour>
    </TTGlyph>
    <TTGlyph name="ccedilla" xMin="28" yMin="-218" xMax="484" yMax="475">
      <contour>
        <pt x="441" y="346" on="1"/>
        <pt x="422" y="363" on="0"/>
        <pt x="346" y="389" on="0"/>
        <pt x="309" y="389" on="1"/>
        <pt x="265" y="389" on="0"/>
        <pt x="204" y="353" on="0"/>
        <pt x="166" y="297" on="0"/>
        <pt x="149" y="229" on="0"/>
        <pt x="149" y="198" on="1"/>
        <pt x="149" y="147" on="0"/>
        <pt x="197" y="77" on="0"/>
        <pt x="249" y="77" on="1"/>
        <pt x="285" y="77" on="0"/>
        <pt x="372" y="106" on="0"/>
        <pt x="405" y="132" on="1"/>
        <pt x="405" y="38" on="1"/>
        <pt x="376" y="21" on="0"/>
        <pt x="285" y="-8" on="0"/>
        <pt x="235" y="-11" on="1"/>
        <pt x="211" y="-41" on="1"/>
        <pt x="219" y="-39" on="0"/>
        <pt x="235" y="-37" on="0"/>
        <pt x="241" y="-37" on="1"/>
        <pt x="270" y="-37" on="0"/>
        <pt x="304" y="-74" on="0"/>
        <pt x="304" y="-103" on="1"/>
        <pt x="304" y="-126" on="0"/>
        <pt x="280" y="-167" on="0"/>
        <pt x="240" y="-199" on="0"/>
        <pt x="186" y="-218" on="0"/>
        <pt x="156" y="-218" on="1"/>
        <pt x="130" y="-218" on="0"/>
        <pt x="84" y="-207" on="0"/>
        <pt x="65" y="-199" on="1"/>
        <pt x="66" y="-193" on="1"/>
        <pt x="104" y="-145" on="1"/>
        <pt x="111" y="-145" on="1"/>
        <pt x="121" y="-150" on="0"/>
        <pt x="154" y="-157" on="0"/>
        <pt x="171" y="-157" on="1"/>
        <pt x="191" y="-157" on="0"/>
        <pt x="222" y="-142" on="0"/>
        <pt x="222" y="-121" on="1"/>
        <pt x="222" y="-107" on="0"/>
        <pt x="201" y="-96" on="0"/>
        <pt x="186" y="-96" on="1"/>
        <pt x="174" y="-96" on="0"/>
        <pt x="148" y="-100" on="0"/>
        <pt x="137" y="-103" on="1"/>
        <pt x="123" y="-77" on="1"/>
        <pt x="182" y="-10" on="1"/>
        <pt x="142" y="-5" on="0"/>
        <pt x="84" y="28" on="0"/>
        <pt x="46" y="79" on="0"/>
        <pt x="28" y="144" on="0"/>
        <pt x="28" y="180" on="1"/>
        <pt x="28" y="234" on="0"/>
        <pt x="64" y="340" on="0"/>
        <pt x="138" y="423" on="0"/>
        <pt x="250" y="475" on="0"/>
        <pt x="325" y="475" on="1"/>
        <pt x="373" y="475" on="0"/>
        <pt x="460" y="453" on="0"/>
        <pt x="484" y="435" on="1"/>
      </contour>
    </TTGlyph>
    <TTGlyph name="cedilla" xMin="-41" yMin="-218" xMax="198" yMax="0">
      <contour>
        <pt x="-41" y="-193" on="1"/>
        <pt x="-3" y="-145" on="1"/>
        <pt x="4" y="-145" on="1"/>
        <pt x="15" y="-150" on="0"/>
        <pt x="48" y="-157" on="0"/>
        <pt x="65" y="-157" on="1"/>
        <pt x="85" y="-157" on="0"/>
        <pt x="116" y="-142" on="0"/>
        <pt x="116" y="-121" on="1"/>
        <pt x="116" y="-107" on="0"/>
        <pt x="94" y="-96" on="0"/>
        <pt x="80" y="-96" on="1"/>
        <pt x="68" y="-96" on="0"/>
        <pt x="41" y="-100" on="0"/>
        <pt x="30" y="-103" on="1"/>
        <pt x="17" y="-77" on="1"/>
        <pt x="84" y="0" on="1"/>
        <pt x="138" y="0" on="1"/>
        <pt x="105" y="-41" on="1"/>
        <pt x="120" y="-37" on="0"/>
        <pt x="134" y="-37" on="1"/>
        <pt x="164" y="-37" on="0"/>
        <pt x="198" y="-74" on="0"/>
        <pt x="198" y="-103" on="1"/>
        <pt x="198" y="-126" on="0"/>
        <pt x="174" y="-167" on="0"/>
        <pt x="133" y="-199" on="0"/>
        <pt x="80" y="-218" on="0"/>
        <pt x="50" y="-218" on="1"/>
        <pt x="24" y="-218" on="0"/>
        <pt x="-22" y="-207" on="0"/>
        <pt x="-41" y="-199" on="1"/>
      </contour>
    </TTGlyph>
    <TTGlyph name="cent" xMin="26" yMin="-137" xMax="478" yMax="577">
      <contour>
        <pt x="370" y="441" on="1"/>
        <pt x="404" y="436" on="0"/>
        <pt x="461" y="418" on="0"/>
        <pt x="478" y="405" on="1"/>
        <pt x="432" y="312" on="1"/>
        <pt x="421" y="325" on="0"/>
        <pt x="377" y="346" on="0"/>
        <pt x="351" y="352" on="1"/>
        <pt x="293" y="79" on="1"/>
        <pt x="323" y="86" on="0"/>
        <pt x="382" y="113" on="0"/>
        <pt x="405" y="131" on="1"/>
        <pt x="405" y="38" on="1"/>
        <pt x="382" y="24" on="0"/>
        <pt x="314" y="0" on="0"/>
        <pt x="275" y="-6" on="1"/>
        <pt x="247" y="-137" on="1"/>
        <pt x="155" y="-137" on="1"/>
        <pt x="182" y="-10" on="1"/>
        <pt x="141" y="-6" on="0"/>
        <pt x="83" y="26" on="0"/>
        <pt x="44" y="75" on="0"/>
        <pt x="26" y="136" on="0"/>
        <pt x="26" y="171" on="1"/>
        <pt x="26" y="218" on="0"/>
        <pt x="57" y="310" on="0"/>
        <pt x="119" y="385" on="0"/>
        <pt x="214" y="437" on="0"/>
        <pt x="278" y="443" on="1"/>
        <pt x="307" y="577" on="1"/>
        <pt x="399" y="577" on="1"/>
      </contour>
      <contour>
        <pt x="136" y="193" on="1"/>
        <pt x="136" y="155" on="0"/>
        <pt x="169" y="96" on="0"/>
        <pt x="201" y="82" on="1"/>
        <pt x="259" y="354" on="1"/>
        <pt x="231" y="347" on="0"/>
        <pt x="185" y="314" on="0"/>
        <pt x="153" y="270" on="0"/>
        <pt x="136" y="218" on="0"/>
      </contour>
    </TTGlyph>
    <TTGlyph name="circumflex" xMin="121" yMin="535" xMax="355" yMax="673">
      <contour>
        <pt x="265" y="673" on="1"/>
        <pt x="353" y="574" on="1"/>
        <pt x="355" y="567" on="1"/>
        <pt x="333" y="538" on="1"/>
        <pt x="325" y="535" on="1"/>
        <pt x="240" y="576" on="1"/>
        <pt x="137" y="535" on="1"/>
        <pt x="131" y="538" on="1"/>
        <pt x="121" y="567" on="1"/>
        <pt x="125" y="574" on="1"/>
        <pt x="257" y="673" on="1"/>
      </contour>
    </TTGlyph>
    <TTGlyph name="colon" xMin="18" yMin="-12" xMax="234" yMax="455">
      <contour>
        <pt x="18" y="47" on="1"/>
        <pt x="18" y="63" on="0"/>
        <pt x="33" y="93" on="0"/>
        <pt x="58" y="117" on="0"/>
        <pt x="89" y="132" on="0"/>
        <pt x="106" y="132" on="1"/>
        <pt x="131" y="132" on="0"/>
        <pt x="165" y="94" on="0"/>
        <pt x="165" y="69" on="1"/>
        <pt x="165" y="53" on="0"/>
        <pt x="149" y="24" on="0"/>
        <pt x="123" y="1" on="0"/>
        <pt x="91" y="-12" on="0"/>
        <pt x="75" y="-12" on="1"/>
        <pt x="49" y="-12" on="0"/>
        <pt x="18" y="22" on="0"/>
      </contour>
      <contour>
        <pt x="87" y="370" on="1"/>
        <pt x="87" y="386" on="0"/>
        <pt x="102" y="416" on="0"/>
        <pt x="127" y="440" on="0"/>
        <pt x="158" y="455" on="0"/>
        <pt x="175" y="455" on="1"/>
        <pt x="200" y="455" on="0"/>
        <pt x="234" y="417" on="0"/>
        <pt x="234" y="392" on="1"/>
        <pt x="234" y="376" on="0"/>
        <pt x="217" y="347" on="0"/>
        <pt x="191" y="324" on="0"/>
        <pt x="159" y="311" on="0"/>
        <pt x="144" y="311" on="1"/>
        <pt x="118" y="311" on="0"/>
        <pt x="87" y="345" on="0"/>
      </contour>
    </TTGlyph>
    <TTGlyph name="comma" xMin="-31" yMin="-143" xMax="161" yMax="132">
      <contour>
        <pt x="-31" y="-118" on="1"/>
        <pt x="38" y="-5" on="1"/>
        <pt x="13" y="-5" on="1"/>
        <pt x="42" y="132" on="1"/>
        <pt x="161" y="132" on="1"/>
        <pt x="129" y="-20" on="1"/>
        <pt x="0" y="-143" on="1"/>
      </contour>
    </TTGlyph>
    <TTGlyph name="copyright" xMin="64" yMin="52" xMax="684" yMax="654">
      <contour>
        <pt x="437" y="654" on="1"/>
        <pt x="492" y="654" on="0"/>
        <pt x="583" y="615" on="0"/>
        <pt x="648" y="548" on="0"/>
        <pt x="684" y="457" on="0"/>
        <pt x="684" y="405" on="1"/>
        <pt x="684" y="333" on="0"/>
        <pt x="620" y="205" on="0"/>
        <pt x="515" y="108" on="0"/>
        <pt x="378" y="52" on="0"/>
        <pt x="305" y="52" on="1"/>
        <pt x="252" y="52" on="0"/>
        <pt x="163" y="91" on="0"/>
        <pt x="99" y="159" on="0"/>
        <pt x="64" y="251" on="0"/>
        <pt x="64" y="303" on="1"/>
        <pt x="64" y="373" on="0"/>
        <pt x="127" y="501" on="0"/>
        <pt x="232" y="597" on="0"/>
        <pt x="366" y="654" on="0"/>
      </contour>
      <contour>
        <pt x="488" y="427" on="1"/>
        <pt x="476" y="436" on="0"/>
        <pt x="419" y="451" on="0"/>
        <pt x="393" y="451" on="1"/>
        <pt x="364" y="451" on="0"/>
        <pt x="323" y="429" on="0"/>
        <pt x="296" y="394" on="0"/>
        <pt x="283" y="352" on="0"/>
        <pt x="283" y="333" on="1"/>
        <pt x="283" y="301" on="0"/>
        <pt x="317" y="254" on="0"/>
        <pt x="354" y="254" on="1"/>
        <pt x="382" y="254" on="0"/>
        <pt x="444" y="276" on="0"/>
        <pt x="466" y="290" on="1"/>
        <pt x="463" y="219" on="1"/>
        <pt x="440" y="206" on="0"/>
        <pt x="368" y="184" on="0"/>
        <pt x="330" y="184" on="1"/>
        <pt x="296" y="184" on="0"/>
        <pt x="247" y="205" on="0"/>
        <pt x="215" y="242" on="0"/>
        <pt x="200" y="291" on="0"/>
        <pt x="200" y="318" on="1"/>
        <pt x="200" y="356" on="0"/>
        <pt x="225" y="430" on="0"/>
        <pt x="276" y="489" on="0"/>
        <pt x="354" y="525" on="0"/>
        <pt x="407" y="525" on="1"/>
        <pt x="440" y="525" on="0"/>
        <pt x="502" y="510" on="0"/>
        <pt x="519" y="497" on="1"/>
      </contour>
      <contour>
        <pt x="428" y="600" on="1"/>
        <pt x="369" y="600" on="0"/>
        <pt x="260" y="554" on="0"/>
        <pt x="176" y="474" on="0"/>
        <pt x="126" y="369" on="0"/>
        <pt x="126" y="309" on="1"/>
        <pt x="126" y="266" on="0"/>
        <pt x="153" y="192" on="0"/>
        <pt x="202" y="137" on="0"/>
        <pt x="272" y="106" on="0"/>
        <pt x="314" y="106" on="1"/>
        <pt x="374" y="106" on="0"/>
        <pt x="485" y="152" on="0"/>
        <pt x="569" y="232" on="0"/>
        <pt x="619" y="338" on="0"/>
        <pt x="619" y="398" on="1"/>
        <pt x="619" y="440" on="0"/>
        <pt x="592" y="514" on="0"/>
        <pt x="542" y="569" on="0"/>
        <pt x="471" y="600" on="0"/>
      </contour>
    </TTGlyph>
    <TTGlyph name="currency" xMin="1" yMin="-15" xMax="572" yMax="473">
      <contour>
        <pt x="87" y="112" on="1"/>
        <pt x="77" y="129" on="0"/>
        <pt x="68" y="173" on="0"/>
        <pt x="68" y="194" on="1"/>
        <pt x="68" y="228" on="0"/>
        <pt x="94" y="299" on="0"/>
        <pt x="138" y="346" on="1"/>
        <pt x="78" y="418" on="1"/>
        <pt x="145" y="473" on="1"/>
        <pt x="203" y="402" on="1"/>
        <pt x="238" y="422" on="0"/>
        <pt x="298" y="441" on="0"/>
        <pt x="330" y="441" on="1"/>
        <pt x="395" y="441" on="0"/>
        <pt x="440" y="402" on="1"/>
        <pt x="528" y="473" on="1"/>
        <pt x="572" y="419" on="1"/>
        <pt x="485" y="346" on="1"/>
        <pt x="504" y="305" on="0"/>
        <pt x="504" y="262" on="1"/>
        <pt x="504" y="228" on="0"/>
        <pt x="477" y="157" on="0"/>
        <pt x="436" y="112" on="1"/>
        <pt x="494" y="40" on="1"/>
        <pt x="426" y="-15" on="1"/>
        <pt x="367" y="56" on="1"/>
        <pt x="304" y="16" on="0"/>
        <pt x="242" y="16" on="1"/>
        <pt x="211" y="16" on="0"/>
        <pt x="158" y="35" on="0"/>
        <pt x="131" y="56" on="1"/>
        <pt x="43" y="-15" on="1"/>
        <pt x="1" y="40" on="1"/>
      </contour>
      <contour>
        <pt x="315" y="363" on="1"/>
        <pt x="284" y="363" on="0"/>
        <pt x="225" y="338" on="0"/>
        <pt x="178" y="295" on="0"/>
        <pt x="150" y="238" on="0"/>
        <pt x="150" y="205" on="1"/>
        <pt x="150" y="158" on="0"/>
        <pt x="210" y="95" on="0"/>
        <pt x="259" y="95" on="1"/>
        <pt x="290" y="95" on="0"/>
        <pt x="349" y="120" on="0"/>
        <pt x="395" y="163" on="0"/>
        <pt x="422" y="221" on="0"/>
        <pt x="422" y="253" on="1"/>
        <pt x="422" y="299" on="0"/>
        <pt x="364" y="363" on="0"/>
      </contour>
    </TTGlyph>
    <TTGlyph name="d" xMin="28" yMin="-12" xMax="606" yMax="740">
      <contour>
        <pt x="193" y="-12" on="1"/>
        <pt x="154" y="-12" on="0"/>
        <pt x="92" y="17" on="0"/>
        <pt x="50" y="68" on="0"/>
        <pt x="28" y="138" on="0"/>
        <pt x="28" y="179" on="1"/>
        <pt x="28" y="233" on="0"/>
        <pt x="64" y="339" on="0"/>
        <pt x="132" y="423" on="0"/>
        <pt x="231" y="475" on="0"/>
        <pt x="294" y="475" on="1"/>
        <pt x="342" y="475" on="0"/>
        <pt x="411" y="443" on="0"/>
        <pt x="428" y="414" on="1"/>
        <pt x="497" y="740" on="1"/>
        <pt x="606" y="740" on="1"/>
        <pt x="449" y="0" on="1"/>
        <pt x="361" y="0" on="1"/>
        <pt x="366" y="63" on="1"/>
        <pt x="362" y="63" on="1"/>
        <pt x="327" y="32" on="0"/>
        <pt x="247" y="-12" on="0"/>
      </contour>
      <contour>
        <pt x="225" y="71" on="1"/>
        <pt x="241" y="71" on="0"/>
        <pt x="279" y="80" on="0"/>
        <pt x="318" y="96" on="0"/>
        <pt x="354" y="119" on="0"/>
        <pt x="368" y="134" on="1"/>
        <pt x="409" y="326" on="1"/>
        <pt x="386" y="363" on="0"/>
        <pt x="330" y="390" on="0"/>
        <pt x="301" y="390" on="1"/>
        <pt x="262" y="390" on="0"/>
        <pt x="202" y="355" on="0"/>
        <pt x="160" y="298" on="0"/>
        <pt x="138" y="227" on="0"/>
        <pt x="138" y="190" on="1"/>
        <pt x="138" y="167" on="0"/>
        <pt x="148" y="124" on="0"/>
        <pt x="169" y="91" on="0"/>
        <pt x="202" y="71" on="0"/>
      </contour>
    </TTGlyph>
    <TTGlyph name="dagger" xMin="65" yMin="109" xMax="481" yMax="692">
      <contour>
        <pt x="134" y="109" on="1"/>
        <pt x="202" y="325" on="1"/>
        <pt x="222" y="419" on="1"/>
        <pt x="212" y="419" on="1"/>
        <pt x="65" y="407" on="1"/>
        <pt x="87" y="510" on="1"/>
        <pt x="229" y="498" on="1"/>
        <pt x="239" y="498" on="1"/>
        <pt x="259" y="692" on="1"/>
        <pt x="389" y="692" on="1"/>
        <pt x="325" y="498" on="1"/>
        <pt x="334" y="498" on="1"/>
        <pt x="481" y="510" on="1"/>
        <pt x="459" y="407" on="1"/>
        <pt x="317" y="419" on="1"/>
        <pt x="308" y="419" on="1"/>
        <pt x="288" y="325" on="1"/>
        <pt x="264" y="109" on="1"/>
      </contour>
    </TTGlyph>
    <TTGlyph name="daggerdbl" xMin="18" yMin="-71" xMax="497" yMax="692">
      <contour>
        <pt x="227" y="419" on="1"/>
        <pt x="81" y="407" on="1"/>
        <pt x="103" y="510" on="1"/>
        <pt x="244" y="498" on="1"/>
        <pt x="254" y="498" on="1"/>
        <pt x="273" y="692" on="1"/>
        <pt x="403" y="692" on="1"/>
        <pt x="340" y="498" on="1"/>
        <pt x="349" y="498" on="1"/>
        <pt x="497" y="510" on="1"/>
        <pt x="475" y="407" on="1"/>
        <pt x="333" y="419" on="1"/>
        <pt x="323" y="419" on="1"/>
        <pt x="277" y="202" on="1"/>
        <pt x="287" y="202" on="1"/>
        <pt x="434" y="214" on="1"/>
        <pt x="412" y="111" on="1"/>
        <pt x="270" y="123" on="1"/>
        <pt x="261" y="123" on="1"/>
        <pt x="241" y="-71" on="1"/>
        <pt x="111" y="-71" on="1"/>
        <pt x="175" y="123" on="1"/>
        <pt x="165" y="123" on="1"/>
        <pt x="18" y="111" on="1"/>
        <pt x="40" y="214" on="1"/>
        <pt x="181" y="202" on="1"/>
        <pt x="191" y="202" on="1"/>
        <pt x="237" y="419" on="1"/>
      </contour>
    </TTGlyph>
    <TTGlyph name="degree" xMin="96" yMin="399" xMax="377" yMax="658">
      <contour>
        <pt x="263" y="658" on="1"/>
        <pt x="322" y="658" on="0"/>
        <pt x="377" y="597" on="0"/>
        <pt x="377" y="552" on="1"/>
        <pt x="377" y="523" on="0"/>
        <pt x="356" y="468" on="0"/>
        <pt x="314" y="425" on="0"/>
        <pt x="251" y="399" on="0"/>
        <pt x="208" y="399" on="1"/>
        <pt x="178" y="399" on="0"/>
        <pt x="135" y="415" on="0"/>
        <pt x="108" y="443" on="0"/>
        <pt x="96" y="479" on="0"/>
        <pt x="96" y="500" on="1"/>
        <pt x="96" y="531" on="0"/>
        <pt x="119" y="588" on="0"/>
        <pt x="163" y="632" on="0"/>
        <pt x="225" y="658" on="0"/>
      </contour>
      <contour>
        <pt x="221" y="460" on="1"/>
        <pt x="242" y="460" on="0"/>
        <pt x="273" y="475" on="0"/>
        <pt x="293" y="498" on="0"/>
        <pt x="302" y="528" on="0"/>
        <pt x="302" y="543" on="1"/>
        <pt x="302" y="563" on="0"/>
        <pt x="278" y="594" on="0"/>
        <pt x="250" y="594" on="1"/>
        <pt x="229" y="594" on="0"/>
        <pt x="198" y="580" on="0"/>
        <pt x="178" y="558" on="0"/>
        <pt x="168" y="530" on="0"/>
        <pt x="168" y="516" on="1"/>
        <pt x="168" y="493" on="0"/>
        <pt x="193" y="460" on="0"/>
      </contour>
    </TTGlyph>
    <TTGlyph name="dieresis" xMin="130" yMin="561" xMax="384" yMax="677">
      <contour>
        <pt x="130" y="609" on="1"/>
        <pt x="130" y="622" on="0"/>
        <pt x="142" y="646" on="0"/>
        <pt x="162" y="665" on="0"/>
        <pt x="188" y="677" on="0"/>
        <pt x="201" y="677" on="1"/>
        <pt x="221" y="677" on="0"/>
        <pt x="248" y="646" on="0"/>
        <pt x="248" y="626" on="1"/>
        <pt x="248" y="613" on="0"/>
        <pt x="235" y="590" on="0"/>
        <pt x="214" y="572" on="0"/>
        <pt x="189" y="561" on="0"/>
        <pt x="176" y="561" on="1"/>
        <pt x="156" y="561" on="0"/>
        <pt x="130" y="589" on="0"/>
      </contour>
      <contour>
        <pt x="266" y="609" on="1"/>
        <pt x="266" y="622" on="0"/>
        <pt x="278" y="646" on="0"/>
        <pt x="298" y="665" on="0"/>
        <pt x="324" y="677" on="0"/>
        <pt x="337" y="677" on="1"/>
        <pt x="357" y="677" on="0"/>
        <pt x="384" y="646" on="0"/>
        <pt x="384" y="626" on="1"/>
        <pt x="384" y="613" on="0"/>
        <pt x="371" y="590" on="0"/>
        <pt x="350" y="572" on="0"/>
        <pt x="324" y="561" on="0"/>
        <pt x="312" y="561" on="1"/>
        <pt x="292" y="561" on="0"/>
        <pt x="266" y="589" on="0"/>
      </contour>
    </TTGlyph>
    <TTGlyph name="divide" xMin="32" yMin="-7" xMax="463" yMax="485">
      <contour>
        <pt x="463" y="280" on="1"/>
        <pt x="446" y="198" on="1"/>
        <pt x="32" y="198" on="1"/>
        <pt x="49" y="280" on="1"/>
      </contour>
      <contour>
        <pt x="148" y="52" on="1"/>
        <pt x="148" y="68" on="0"/>
        <pt x="163" y="98" on="0"/>
        <pt x="188" y="122" on="0"/>
        <pt x="219" y="137" on="0"/>
        <pt x="236" y="137" on="1"/>
        <pt x="261" y="137" on="0"/>
        <pt x="295" y="99" on="0"/>
        <pt x="295" y="74" on="1"/>
        <pt x="295" y="58" on="0"/>
        <pt x="278" y="29" on="0"/>
        <pt x="252" y="6" on="0"/>
        <pt x="220" y="-7" on="0"/>
        <pt x="205" y="-7" on="1"/>
        <pt x="179" y="-7" on="0"/>
        <pt x="148" y="27" on="0"/>
      </contour>
      <contour>
        <pt x="222" y="400" on="1"/>
        <pt x="222" y="416" on="0"/>
        <pt x="237" y="446" on="0"/>
        <pt x="262" y="470" on="0"/>
        <pt x="293" y="485" on="0"/>
        <pt x="310" y="485" on="1"/>
        <pt x="335" y="485" on="0"/>
        <pt x="369" y="447" on="0"/>
        <pt x="369" y="422" on="1"/>
        <pt x="369" y="406" on="0"/>
        <pt x="353" y="377" on="0"/>
        <pt x="327" y="354" on="0"/>
        <pt x="295" y="341" on="0"/>
        <pt x="279" y="341" on="1"/>
        <pt x="253" y="341" on="0"/>
        <pt x="222" y="375" on="0"/>
      </contour>
    </TTGlyph>
    <TTGlyph name="dollar" xMin="-10" yMin="-96" xMax="524" yMax="750">
      <contour>
        <pt x="390" y="662" on="1"/>
        <pt x="431" y="658" on="0"/>
        <pt x="500" y="639" on="0"/>
        <pt x="524" y="627" on="1"/>
        <pt x="475" y="521" on="1"/>
        <pt x="454" y="537" on="0"/>
        <pt x="398" y="560" on="0"/>
        <pt x="369" y="565" on="1"/>
        <pt x="332" y="392" on="1"/>
        <pt x="358" y="381" on="0"/>
        <pt x="408" y="352" on="0"/>
        <pt x="447" y="312" on="0"/>
        <pt x="470" y="258" on="0"/>
        <pt x="470" y="221" on="1"/>
        <pt x="470" y="165" on="0"/>
        <pt x="433" y="84" on="0"/>
        <pt x="372" y="28" on="0"/>
        <pt x="291" y="-3" on="0"/>
        <pt x="247" y="-8" on="1"/>
        <pt x="229" y="-96" on="1"/>
        <pt x="149" y="-96" on="1"/>
        <pt x="167" y="-11" on="1"/>
        <pt x="111" y="-8" on="0"/>
        <pt x="21" y="23" on="0"/>
        <pt x="-10" y="43" on="1"/>
        <pt x="41" y="146" on="1"/>
        <pt x="67" y="121" on="0"/>
        <pt x="139" y="88" on="0"/>
        <pt x="187" y="84" on="1"/>
        <pt x="232" y="293" on="1"/>
        <pt x="209" y="301" on="0"/>
        <pt x="162" y="325" on="0"/>
        <pt x="123" y="361" on="0"/>
        <pt x="98" y="414" on="0"/>
        <pt x="98" y="452" on="1"/>
        <pt x="98" y="506" on="0"/>
        <pt x="131" y="582" on="0"/>
        <pt x="189" y="633" on="0"/>
        <pt x="266" y="660" on="0"/>
        <pt x="311" y="663" on="1"/>
        <pt x="329" y="750" on="1"/>
        <pt x="409" y="750" on="1"/>
      </contour>
      <contour>
        <pt x="354" y="185" on="1"/>
        <pt x="354" y="211" on="0"/>
        <pt x="325" y="249" on="0"/>
        <pt x="305" y="261" on="1"/>
        <pt x="268" y="90" on="1"/>
        <pt x="312" y="101" on="0"/>
        <pt x="354" y="152" on="0"/>
      </contour>
      <contour>
        <pt x="209" y="487" on="1"/>
        <pt x="209" y="464" on="0"/>
        <pt x="236" y="434" on="0"/>
        <pt x="259" y="422" on="1"/>
        <pt x="290" y="567" on="1"/>
        <pt x="254" y="561" on="0"/>
        <pt x="209" y="522" on="0"/>
      </contour>
    </TTGlyph>
    <TTGlyph name="dotlessi" xMin="10" yMin="0" xMax="208" yMax="460">
      <contour>
        <pt x="110" y="0" on="1"/>
        <pt x="10" y="0" on="1"/>
        <pt x="108" y="460" on="1"/>
        <pt x="208" y="460" on="1"/>
      </contour>
    </TTGlyph>
    <TTGlyph name="e" xMin="26" yMin="-12" xMax="475" yMax="475">
      <contour>
        <pt x="322" y="475" on="1"/>
        <pt x="397" y="475" on="0"/>
        <pt x="475" y="406" on="0"/>
        <pt x="475" y="343" on="1"/>
        <pt x="475" y="324" on="0"/>
        <pt x="467" y="286" on="0"/>
        <pt x="454" y="253" on="0"/>
        <pt x="439" y="227" on="0"/>
        <pt x="433" y="220" on="1"/>
        <pt x="140" y="220" on="1"/>
        <pt x="139" y="214" on="0"/>
        <pt x="139" y="202" on="0"/>
        <pt x="139" y="196" on="1"/>
        <pt x="139" y="171" on="0"/>
        <pt x="152" y="127" on="0"/>
        <pt x="178" y="94" on="0"/>
        <pt x="219" y="75" on="0"/>
        <pt x="247" y="75" on="1"/>
        <pt x="284" y="75" on="0"/>
        <pt x="372" y="103" on="0"/>
        <pt x="407" y="124" on="1"/>
        <pt x="407" y="42" on="1"/>
        <pt x="392" y="34" on="0"/>
        <pt x="349" y="15" on="0"/>
        <pt x="298" y="-1" on="0"/>
        <pt x="241" y="-12" on="0"/>
        <pt x="211" y="-12" on="1"/>
        <pt x="164" y="-12" on="0"/>
        <pt x="95" y="19" on="0"/>
        <pt x="49" y="71" on="0"/>
        <pt x="26" y="141" on="0"/>
        <pt x="26" y="180" on="1"/>
        <pt x="26" y="236" on="0"/>
        <pt x="68" y="342" on="0"/>
        <pt x="146" y="425" on="0"/>
        <pt x="255" y="475" on="0"/>
      </contour>
      <contour>
        <pt x="300" y="389" on="1"/>
        <pt x="256" y="389" on="0"/>
        <pt x="184" y="340" on="0"/>
        <pt x="163" y="298" on="1"/>
        <pt x="358" y="298" on="1"/>
        <pt x="361" y="305" on="0"/>
        <pt x="366" y="320" on="0"/>
        <pt x="366" y="328" on="1"/>
        <pt x="366" y="355" on="0"/>
        <pt x="330" y="389" on="0"/>
      </contour>
    </TTGlyph>
    <TTGlyph name="eacute" xMin="26" yMin="-12" xMax="487" yMax="682">
      <contour>
        <pt x="322" y="475" on="1"/>
        <pt x="397" y="475" on="0"/>
        <pt x="475" y="406" on="0"/>
        <pt x="475" y="343" on="1"/>
        <pt x="475" y="324" on="0"/>
        <pt x="467" y="286" on="0"/>
        <pt x="454" y="253" on="0"/>
        <pt x="439" y="227" on="0"/>
        <pt x="433" y="220" on="1"/>
        <pt x="140" y="220" on="1"/>
        <pt x="139" y="214" on="0"/>
        <pt x="139" y="202" on="0"/>
        <pt x="139" y="196" on="1"/>
        <pt x="139" y="171" on="0"/>
        <pt x="152" y="127" on="0"/>
        <pt x="178" y="94" on="0"/>
        <pt x="219" y="75" on="0"/>
        <pt x="247" y="75" on="1"/>
        <pt x="284" y="75" on="0"/>
        <pt x="372" y="103" on="0"/>
        <pt x="407" y="124" on="1"/>
        <pt x="407" y="42" on="1"/>
        <pt x="392" y="34" on="0"/>
        <pt x="349" y="15" on="0"/>
        <pt x="298" y="-1" on="0"/>
        <pt x="241" y="-12" on="0"/>
        <pt x="211" y="-12" on="1"/>
        <pt x="164" y="-12" on="0"/>
        <pt x="95" y="19" on="0"/>
        <pt x="49" y="71" on="0"/>
        <pt x="26" y="141" on="0"/>
        <pt x="26" y="180" on="1"/>
        <pt x="26" y="236" on="0"/>
        <pt x="68" y="342" on="0"/>
        <pt x="146" y="425" on="0"/>
        <pt x="255" y="475" on="0"/>
      </contour>
      <contour>
        <pt x="300" y="389" on="1"/>
        <pt x="253" y="389" on="0"/>
        <pt x="183" y="337" on="0"/>
        <pt x="163" y="298" on="1"/>
        <pt x="358" y="298" on="1"/>
        <pt x="360" y="303" on="0"/>
        <pt x="365" y="315" on="0"/>
        <pt x="365" y="330" on="1"/>
        <pt x="365" y="359" on="0"/>
        <pt x="327" y="389" on="0"/>
      </contour>
      <contour>
        <pt x="257" y="535" on="1"/>
        <pt x="249" y="571" on="1"/>
        <pt x="254" y="578" on="1"/>
        <pt x="455" y="679" on="1"/>
        <pt x="461" y="682" on="0"/>
        <pt x="466" y="682" on="1"/>
        <pt x="477" y="682" on="0"/>
        <pt x="487" y="657" on="0"/>
        <pt x="487" y="643" on="1"/>
        <pt x="487" y="629" on="0"/>
        <pt x="476" y="604" on="0"/>
        <pt x="466" y="601" on="1"/>
        <pt x="264" y="532" on="1"/>
      </contour>
    </TTGlyph>
    <TTGlyph name="ecircumflex" xMin="26" yMin="-12" xMax="475" yMax="673">
      <contour>
        <pt x="322" y="475" on="1"/>
        <pt x="397" y="475" on="0"/>
        <pt x="475" y="406" on="0"/>
        <pt x="475" y="343" on="1"/>
        <pt x="475" y="324" on="0"/>
        <pt x="467" y="286" on="0"/>
        <pt x="454" y="253" on="0"/>
        <pt x="439" y="227" on="0"/>
        <pt x="433" y="220" on="1"/>
        <pt x="140" y="220" on="1"/>
        <pt x="139" y="214" on="0"/>
        <pt x="139" y="202" on="0"/>
        <pt x="139" y="196" on="1"/>
        <pt x="139" y="171" on="0"/>
        <pt x="152" y="127" on="0"/>
        <pt x="178" y="94" on="0"/>
        <pt x="219" y="75" on="0"/>
        <pt x="247" y="75" on="1"/>
        <pt x="284" y="75" on="0"/>
        <pt x="372" y="103" on="0"/>
        <pt x="407" y="124" on="1"/>
        <pt x="407" y="42" on="1"/>
        <pt x="392" y="34" on="0"/>
        <pt x="349" y="15" on="0"/>
        <pt x="298" y="-1" on="0"/>
        <pt x="241" y="-12" on="0"/>
        <pt x="211" y="-12" on="1"/>
        <pt x="164" y="-12" on="0"/>
        <pt x="95" y="19" on="0"/>
        <pt x="49" y="71" on="0"/>
        <pt x="26" y="141" on="0"/>
        <pt x="26" y="180" on="1"/>
        <pt x="26" y="236" on="0"/>
        <pt x="68" y="342" on="0"/>
        <pt x="146" y="425" on="0"/>
        <pt x="255" y="475" on="0"/>
      </contour>
      <contour>
        <pt x="355" y="673" on="1"/>
        <pt x="444" y="574" on="1"/>
        <pt x="445" y="567" on="1"/>
        <pt x="423" y="538" on="1"/>
        <pt x="415" y="535" on="1"/>
        <pt x="330" y="576" on="1"/>
        <pt x="227" y="535" on="1"/>
        <pt x="221" y="538" on="1"/>
        <pt x="211" y="567" on="1"/>
        <pt x="216" y="574" on="1"/>
        <pt x="347" y="673" on="1"/>
      </contour>
      <contour>
        <pt x="300" y="389" on="1"/>
        <pt x="253" y="389" on="0"/>
        <pt x="183" y="337" on="0"/>
        <pt x="163" y="298" on="1"/>
        <pt x="358" y="298" on="1"/>
        <pt x="360" y="303" on="0"/>
        <pt x="365" y="315" on="0"/>
        <pt x="365" y="330" on="1"/>
        <pt x="365" y="359" on="0"/>
        <pt x="327" y="389" on="0"/>
      </contour>
    </TTGlyph>
    <TTGlyph name="edieresis" xMin="26" yMin="-12" xMax="475" yMax="671">
      <contour>
        <pt x="322" y="475" on="1"/>
        <pt x="397" y="475" on="0"/>
        <pt x="475" y="406" on="0"/>
        <pt x="475" y="343" on="1"/>
        <pt x="475" y="324" on="0"/>
        <pt x="467" y="286" on="0"/>
        <pt x="454" y="253" on="0"/>
        <pt x="439" y="227" on="0"/>
        <pt x="433" y="220" on="1"/>
        <pt x="140" y="220" on="1"/>
        <pt x="139" y="214" on="0"/>
        <pt x="139" y="202" on="0"/>
        <pt x="139" y="196" on="1"/>
        <pt x="139" y="171" on="0"/>
        <pt x="152" y="127" on="0"/>
        <pt x="178" y="94" on="0"/>
        <pt x="219" y="75" on="0"/>
        <pt x="247" y="75" on="1"/>
        <pt x="284" y="75" on="0"/>
        <pt x="372" y="103" on="0"/>
        <pt x="407" y="124" on="1"/>
        <pt x="407" y="42" on="1"/>
        <pt x="392" y="34" on="0"/>
        <pt x="349" y="15" on="0"/>
        <pt x="298" y="-1" on="0"/>
        <pt x="241" y="-12" on="0"/>
        <pt x="211" y="-12" on="1"/>
        <pt x="164" y="-12" on="0"/>
        <pt x="95" y="19" on="0"/>
        <pt x="49" y="71" on="0"/>
        <pt x="26" y="141" on="0"/>
        <pt x="26" y="180" on="1"/>
        <pt x="26" y="236" on="0"/>
        <pt x="68" y="342" on="0"/>
        <pt x="146" y="425" on="0"/>
        <pt x="255" y="475" on="0"/>
      </contour>
      <contour>
        <pt x="300" y="389" on="1"/>
        <pt x="253" y="389" on="0"/>
        <pt x="183" y="337" on="0"/>
        <pt x="163" y="298" on="1"/>
        <pt x="358" y="298" on="1"/>
        <pt x="360" y="303" on="0"/>
        <pt x="365" y="315" on="0"/>
        <pt x="365" y="330" on="1"/>
        <pt x="365" y="359" on="0"/>
        <pt x="327" y="389" on="0"/>
      </contour>
      <contour>
        <pt x="210" y="603" on="1"/>
        <pt x="210" y="616" on="0"/>
        <pt x="222" y="640" on="0"/>
        <pt x="242" y="659" on="0"/>
        <pt x="267" y="671" on="0"/>
        <pt x="280" y="671" on="1"/>
        <pt x="300" y="671" on="0"/>
        <pt x="328" y="640" on="0"/>
        <pt x="328" y="620" on="1"/>
        <pt x="328" y="607" on="0"/>
        <pt x="315" y="584" on="0"/>
        <pt x="294" y="566" on="0"/>
        <pt x="268" y="555" on="0"/>
        <pt x="256" y="555" on="1"/>
        <pt x="236" y="555" on="0"/>
        <pt x="210" y="583" on="0"/>
      </contour>
      <contour>
        <pt x="346" y="603" on="1"/>
        <pt x="346" y="616" on="0"/>
        <pt x="358" y="640" on="0"/>
        <pt x="378" y="659" on="0"/>
        <pt x="403" y="671" on="0"/>
        <pt x="416" y="671" on="1"/>
        <pt x="436" y="671" on="0"/>
        <pt x="464" y="640" on="0"/>
        <pt x="464" y="620" on="1"/>
        <pt x="464" y="607" on="0"/>
        <pt x="451" y="584" on="0"/>
        <pt x="430" y="566" on="0"/>
        <pt x="404" y="555" on="0"/>
        <pt x="392" y="555" on="1"/>
        <pt x="372" y="555" on="0"/>
        <pt x="346" y="583" on="0"/>
      </contour>
    </TTGlyph>
    <TTGlyph name="egrave" xMin="26" yMin="-12" xMax="475" yMax="681">
      <contour>
        <pt x="322" y="475" on="1"/>
        <pt x="397" y="475" on="0"/>
        <pt x="475" y="406" on="0"/>
        <pt x="475" y="343" on="1"/>
        <pt x="475" y="324" on="0"/>
        <pt x="467" y="286" on="0"/>
        <pt x="454" y="253" on="0"/>
        <pt x="439" y="227" on="0"/>
        <pt x="433" y="220" on="1"/>
        <pt x="140" y="220" on="1"/>
        <pt x="139" y="214" on="0"/>
        <pt x="139" y="202" on="0"/>
        <pt x="139" y="196" on="1"/>
        <pt x="139" y="171" on="0"/>
        <pt x="152" y="127" on="0"/>
        <pt x="178" y="94" on="0"/>
        <pt x="219" y="75" on="0"/>
        <pt x="247" y="75" on="1"/>
        <pt x="284" y="75" on="0"/>
        <pt x="372" y="103" on="0"/>
        <pt x="407" y="124" on="1"/>
        <pt x="407" y="42" on="1"/>
        <pt x="392" y="34" on="0"/>
        <pt x="349" y="15" on="0"/>
        <pt x="298" y="-1" on="0"/>
        <pt x="241" y="-12" on="0"/>
        <pt x="211" y="-12" on="1"/>
        <pt x="164" y="-12" on="0"/>
        <pt x="95" y="19" on="0"/>
        <pt x="49" y="71" on="0"/>
        <pt x="26" y="141" on="0"/>
        <pt x="26" y="180" on="1"/>
        <pt x="26" y="236" on="0"/>
        <pt x="68" y="342" on="0"/>
        <pt x="146" y="425" on="0"/>
        <pt x="255" y="475" on="0"/>
      </contour>
      <contour>
        <pt x="386" y="531" on="1"/>
        <pt x="213" y="600" on="1"/>
        <pt x="205" y="603" on="0"/>
        <pt x="205" y="619" on="1"/>
        <pt x="205" y="628" on="0"/>
        <pt x="212" y="650" on="0"/>
        <pt x="224" y="669" on="0"/>
        <pt x="240" y="681" on="0"/>
        <pt x="248" y="681" on="1"/>
        <pt x="251" y="681" on="0"/>
        <pt x="257" y="678" on="1"/>
        <pt x="415" y="577" on="1"/>
        <pt x="417" y="570" on="1"/>
        <pt x="394" y="534" on="1"/>
      </contour>
      <contour>
        <pt x="300" y="389" on="1"/>
        <pt x="253" y="389" on="0"/>
        <pt x="183" y="337" on="0"/>
        <pt x="163" y="298" on="1"/>
        <pt x="358" y="298" on="1"/>
        <pt x="360" y="303" on="0"/>
        <pt x="365" y="315" on="0"/>
        <pt x="365" y="330" on="1"/>
        <pt x="365" y="359" on="0"/>
        <pt x="327" y="389" on="0"/>
      </contour>
    </TTGlyph>
    <TTGlyph name="eight" xMin="28" yMin="-12" xMax="515" yMax="665">
      <contour>
        <pt x="392" y="362" on="1"/>
        <pt x="437" y="351" on="0"/>
        <pt x="481" y="280" on="0"/>
        <pt x="481" y="229" on="1"/>
        <pt x="481" y="182" on="0"/>
        <pt x="448" y="95" on="0"/>
        <pt x="380" y="28" on="0"/>
        <pt x="279" y="-12" on="0"/>
        <pt x="211" y="-12" on="1"/>
        <pt x="161" y="-12" on="0"/>
        <pt x="91" y="14" on="0"/>
        <pt x="48" y="57" on="0"/>
        <pt x="28" y="114" on="0"/>
        <pt x="28" y="146" on="1"/>
        <pt x="28" y="225" on="0"/>
        <pt x="117" y="340" on="0"/>
        <pt x="192" y="361" on="1"/>
        <pt x="193" y="365" on="1"/>
        <pt x="166" y="376" on="0"/>
        <pt x="130" y="432" on="0"/>
        <pt x="130" y="474" on="1"/>
        <pt x="130" y="515" on="0"/>
        <pt x="162" y="585" on="0"/>
        <pt x="221" y="636" on="0"/>
        <pt x="304" y="665" on="0"/>
        <pt x="356" y="665" on="1"/>
        <pt x="432" y="665" on="0"/>
        <pt x="515" y="595" on="0"/>
        <pt x="515" y="537" on="1"/>
        <pt x="515" y="506" on="0"/>
        <pt x="495" y="452" on="0"/>
        <pt x="461" y="408" on="0"/>
        <pt x="417" y="375" on="0"/>
        <pt x="393" y="366" on="1"/>
      </contour>
      <contour>
        <pt x="364" y="215" on="1"/>
        <pt x="364" y="234" on="0"/>
        <pt x="355" y="269" on="0"/>
        <pt x="334" y="296" on="0"/>
        <pt x="302" y="313" on="0"/>
        <pt x="280" y="313" on="1"/>
        <pt x="246" y="313" on="0"/>
        <pt x="195" y="283" on="0"/>
        <pt x="160" y="237" on="0"/>
        <pt x="143" y="184" on="0"/>
        <pt x="143" y="160" on="1"/>
        <pt x="143" y="118" on="0"/>
        <pt x="189" y="75" on="0"/>
        <pt x="230" y="75" on="1"/>
        <pt x="287" y="75" on="0"/>
        <pt x="364" y="149" on="0"/>
      </contour>
      <contour>
        <pt x="398" y="513" on="1"/>
        <pt x="398" y="542" on="0"/>
        <pt x="367" y="576" on="0"/>
        <pt x="336" y="576" on="1"/>
        <pt x="291" y="576" on="0"/>
        <pt x="239" y="519" on="0"/>
        <pt x="239" y="471" on="1"/>
        <pt x="239" y="440" on="0"/>
        <pt x="271" y="403" on="0"/>
        <pt x="300" y="403" on="1"/>
        <pt x="321" y="403" on="0"/>
        <pt x="357" y="420" on="0"/>
        <pt x="383" y="449" on="0"/>
        <pt x="398" y="489" on="0"/>
      </contour>
    </TTGlyph>
    <TTGlyph name="ellipsis" xMin="10" yMin="-12" xMax="536" yMax="132">
      <contour>
        <pt x="389" y="47" on="1"/>
        <pt x="389" y="63" on="0"/>
        <pt x="404" y="93" on="0"/>
        <pt x="429" y="117" on="0"/>
        <pt x="461" y="132" on="0"/>
        <pt x="477" y="132" on="1"/>
        <pt x="502" y="132" on="0"/>
        <pt x="536" y="94" on="0"/>
        <pt x="536" y="69" on="1"/>
        <pt x="536" y="53" on="0"/>
        <pt x="519" y="24" on="0"/>
        <pt x="493" y="1" on="0"/>
        <pt x="461" y="-12" on="0"/>
        <pt x="446" y="-12" on="1"/>
        <pt x="420" y="-12" on="0"/>
        <pt x="389" y="22" on="0"/>
      </contour>
      <contour>
        <pt x="10" y="47" on="1"/>
        <pt x="10" y="63" on="0"/>
        <pt x="25" y="93" on="0"/>
        <pt x="50" y="117" on="0"/>
        <pt x="81" y="132" on="0"/>
        <pt x="98" y="132" on="1"/>
        <pt x="123" y="132" on="0"/>
        <pt x="157" y="94" on="0"/>
        <pt x="157" y="69" on="1"/>
        <pt x="157" y="53" on="0"/>
        <pt x="141" y="24" on="0"/>
        <pt x="115" y="1" on="0"/>
        <pt x="83" y="-12" on="0"/>
        <pt x="67" y="-12" on="1"/>
        <pt x="41" y="-12" on="0"/>
        <pt x="10" y="22" on="0"/>
      </contour>
      <contour>
        <pt x="200" y="47" on="1"/>
        <pt x="200" y="63" on="0"/>
        <pt x="215" y="93" on="0"/>
        <pt x="240" y="117" on="0"/>
        <pt x="272" y="132" on="0"/>
        <pt x="288" y="132" on="1"/>
        <pt x="313" y="132" on="0"/>
        <pt x="347" y="94" on="0"/>
        <pt x="347" y="69" on="1"/>
        <pt x="347" y="53" on="0"/>
        <pt x="331" y="24" on="0"/>
        <pt x="305" y="1" on="0"/>
        <pt x="273" y="-12" on="0"/>
        <pt x="257" y="-12" on="1"/>
        <pt x="231" y="-12" on="0"/>
        <pt x="200" y="22" on="0"/>
      </contour>
    </TTGlyph>
    <TTGlyph name="emdash" xMin="50" yMin="198" xMax="709" yMax="280">
      <contour>
        <pt x="709" y="280" on="1"/>
        <pt x="692" y="198" on="1"/>
        <pt x="50" y="198" on="1"/>
        <pt x="67" y="280" on="1"/>
      </contour>
    </TTGlyph>
    <TTGlyph name="endash" xMin="50" yMin="198" xMax="481" yMax="280">
      <contour>
        <pt x="481" y="280" on="1"/>
        <pt x="464" y="198" on="1"/>
        <pt x="50" y="198" on="1"/>
        <pt x="67" y="280" on="1"/>
      </contour>
    </TTGlyph>
    <TTGlyph name="equal" xMin="37" yMin="122" xMax="425" yMax="356">
      <contour>
        <pt x="392" y="204" on="1"/>
        <pt x="375" y="122" on="1"/>
        <pt x="37" y="122" on="1"/>
        <pt x="54" y="204" on="1"/>
      </contour>
      <contour>
        <pt x="425" y="356" on="1"/>
        <pt x="407" y="274" on="1"/>
        <pt x="69" y="274" on="1"/>
        <pt x="87" y="356" on="1"/>
      </contour>
    </TTGlyph>
    <TTGlyph name="eth" xMin="27" yMin="-12" xMax="620" yMax="740">
      <contour>
        <pt x="273" y="607" on="1"/>
        <pt x="376" y="632" on="1"/>
        <pt x="357" y="667" on="0"/>
        <pt x="310" y="723" on="0"/>
        <pt x="284" y="740" on="1"/>
        <pt x="431" y="740" on="1"/>
        <pt x="459" y="707" on="0"/>
        <pt x="482" y="659" on="1"/>
        <pt x="613" y="692" on="1"/>
        <pt x="620" y="624" on="1"/>
        <pt x="505" y="596" on="1"/>
        <pt x="518" y="554" on="0"/>
        <pt x="532" y="459" on="0"/>
        <pt x="532" y="408" on="1"/>
        <pt x="532" y="367" on="0"/>
        <pt x="522" y="273" on="0"/>
        <pt x="495" y="180" on="0"/>
        <pt x="450" y="93" on="0"/>
        <pt x="380" y="27" on="0"/>
        <pt x="282" y="-12" on="0"/>
        <pt x="217" y="-12" on="1"/>
        <pt x="165" y="-12" on="0"/>
        <pt x="92" y="20" on="0"/>
        <pt x="47" y="73" on="0"/>
        <pt x="27" y="141" on="0"/>
        <pt x="27" y="178" on="1"/>
        <pt x="27" y="235" on="0"/>
        <pt x="67" y="342" on="0"/>
        <pt x="139" y="425" on="0"/>
        <pt x="242" y="475" on="0"/>
        <pt x="305" y="475" on="1"/>
        <pt x="356" y="475" on="0"/>
        <pt x="417" y="440" on="0"/>
        <pt x="428" y="410" on="1"/>
        <pt x="431" y="411" on="1"/>
        <pt x="431" y="416" on="0"/>
        <pt x="432" y="424" on="0"/>
        <pt x="432" y="429" on="1"/>
        <pt x="432" y="461" on="0"/>
        <pt x="417" y="534" on="0"/>
        <pt x="403" y="571" on="1"/>
        <pt x="280" y="542" on="1"/>
      </contour>
      <contour>
        <pt x="234" y="71" on="1"/>
        <pt x="271" y="71" on="0"/>
        <pt x="328" y="107" on="0"/>
        <pt x="366" y="164" on="0"/>
        <pt x="386" y="235" on="0"/>
        <pt x="386" y="271" on="1"/>
        <pt x="386" y="295" on="0"/>
        <pt x="376" y="338" on="0"/>
        <pt x="354" y="370" on="0"/>
        <pt x="321" y="389" on="0"/>
        <pt x="297" y="389" on="1"/>
        <pt x="260" y="389" on="0"/>
        <pt x="203" y="353" on="0"/>
        <pt x="165" y="296" on="0"/>
        <pt x="146" y="224" on="0"/>
        <pt x="146" y="188" on="1"/>
        <pt x="146" y="165" on="0"/>
        <pt x="156" y="122" on="0"/>
        <pt x="177" y="90" on="0"/>
        <pt x="211" y="71" on="0"/>
      </contour>
    </TTGlyph>
    <TTGlyph name="exclam" xMin="16" yMin="-12" xMax="292" yMax="682">
      <contour>
        <pt x="72" y="180" on="1"/>
        <pt x="155" y="682" on="1"/>
        <pt x="292" y="682" on="1"/>
        <pt x="159" y="180" on="1"/>
      </contour>
      <contour>
        <pt x="16" y="47" on="1"/>
        <pt x="16" y="63" on="0"/>
        <pt x="31" y="92" on="0"/>
        <pt x="55" y="115" on="0"/>
        <pt x="86" y="128" on="0"/>
        <pt x="103" y="128" on="1"/>
        <pt x="129" y="128" on="0"/>
        <pt x="163" y="93" on="0"/>
        <pt x="163" y="69" on="1"/>
        <pt x="163" y="53" on="0"/>
        <pt x="146" y="24" on="0"/>
        <pt x="120" y="1" on="0"/>
        <pt x="88" y="-12" on="0"/>
        <pt x="72" y="-12" on="1"/>
        <pt x="47" y="-12" on="0"/>
        <pt x="16" y="23" on="0"/>
      </contour>
    </TTGlyph>
    <TTGlyph name="exclamdown" xMin="-46" yMin="-218" xMax="230" yMax="476">
      <contour>
        <pt x="174" y="284" on="1"/>
        <pt x="91" y="-218" on="1"/>
        <pt x="-46" y="-218" on="1"/>
        <pt x="87" y="284" on="1"/>
      </contour>
      <contour>
        <pt x="230" y="417" on="1"/>
        <pt x="230" y="401" on="0"/>
        <pt x="215" y="372" on="0"/>
        <pt x="190" y="349" on="0"/>
        <pt x="159" y="336" on="0"/>
        <pt x="143" y="336" on="1"/>
        <pt x="117" y="336" on="0"/>
        <pt x="83" y="371" on="0"/>
        <pt x="83" y="395" on="1"/>
        <pt x="83" y="411" on="0"/>
        <pt x="100" y="440" on="0"/>
        <pt x="126" y="463" on="0"/>
        <pt x="158" y="476" on="0"/>
        <pt x="174" y="476" on="1"/>
        <pt x="199" y="476" on="0"/>
        <pt x="230" y="441" on="0"/>
      </contour>
    </TTGlyph>
    <TTGlyph name="f" xMin="-23" yMin="-261" xMax="447" yMax="745">
      <contour>
        <pt x="116" y="393" on="1"/>
        <pt x="59" y="393" on="1"/>
        <pt x="71" y="450" on="1"/>
        <pt x="130" y="459" on="1"/>
        <pt x="142" y="516" on="0"/>
        <pt x="166" y="596" on="0"/>
        <pt x="190" y="651" on="0"/>
        <pt x="212" y="685" on="0"/>
        <pt x="222" y="696" on="1"/>
        <pt x="247" y="722" on="0"/>
        <pt x="317" y="745" on="0"/>
        <pt x="356" y="745" on="1"/>
        <pt x="361" y="745" on="0"/>
        <pt x="383" y="744" on="0"/>
        <pt x="409" y="740" on="0"/>
        <pt x="436" y="731" on="0"/>
        <pt x="447" y="724" on="1"/>
        <pt x="404" y="639" on="1"/>
        <pt x="396" y="645" on="0"/>
        <pt x="354" y="666" on="0"/>
        <pt x="332" y="666" on="1"/>
        <pt x="319" y="666" on="0"/>
        <pt x="298" y="654" on="0"/>
        <pt x="280" y="622" on="0"/>
        <pt x="263" y="568" on="0"/>
        <pt x="254" y="526" on="1"/>
        <pt x="240" y="460" on="1"/>
        <pt x="328" y="460" on="1"/>
        <pt x="314" y="393" on="1"/>
        <pt x="226" y="393" on="1"/>
        <pt x="87" y="-261" on="1"/>
        <pt x="-23" y="-261" on="1"/>
      </contour>
    </TTGlyph>
    <TTGlyph name="fi" xMin="-23" yMin="-260" xMax="507" yMax="745">
      <contour>
        <pt x="116" y="393" on="1"/>
        <pt x="59" y="393" on="1"/>
        <pt x="71" y="450" on="1"/>
        <pt x="130" y="459" on="1"/>
        <pt x="142" y="516" on="0"/>
        <pt x="166" y="596" on="0"/>
        <pt x="190" y="651" on="0"/>
        <pt x="212" y="685" on="0"/>
        <pt x="222" y="696" on="1"/>
        <pt x="247" y="722" on="0"/>
        <pt x="317" y="745" on="0"/>
        <pt x="356" y="745" on="1"/>
        <pt x="368" y="745" on="0"/>
        <pt x="402" y="742" on="0"/>
        <pt x="442" y="731" on="0"/>
        <pt x="486" y="711" on="0"/>
        <pt x="507" y="695" on="1"/>
        <pt x="445" y="614" on="1"/>
        <pt x="433" y="623" on="0"/>
        <pt x="409" y="641" on="0"/>
        <pt x="383" y="656" on="0"/>
        <pt x="351" y="666" on="0"/>
        <pt x="332" y="666" on="1"/>
        <pt x="319" y="666" on="0"/>
        <pt x="298" y="654" on="0"/>
        <pt x="280" y="622" on="0"/>
        <pt x="263" y="568" on="0"/>
        <pt x="254" y="526" on="1"/>
        <pt x="240" y="460" on="1"/>
        <pt x="328" y="460" on="1"/>
        <pt x="314" y="393" on="1"/>
        <pt x="226" y="393" on="1"/>
        <pt x="87" y="-260" on="1"/>
        <pt x="-23" y="-260" on="1"/>
      </contour>
      <contour>
        <pt x="398" y="0" on="1"/>
        <pt x="288" y="0" on="1"/>
        <pt x="386" y="460" on="1"/>
        <pt x="496" y="460" on="1"/>
      </contour>
    </TTGlyph>
    <TTGlyph name="five" xMin="-8" yMin="-12" xMax="536" yMax="665">
      <contour>
        <pt x="81" y="302" on="1"/>
        <pt x="197" y="665" on="1"/>
        <pt x="536" y="665" on="1"/>
        <pt x="513" y="560" on="1"/>
        <pt x="267" y="560" on="1"/>
        <pt x="219" y="402" on="1"/>
        <pt x="241" y="408" on="0"/>
        <pt x="288" y="413" on="0"/>
        <pt x="307" y="413" on="1"/>
        <pt x="386" y="413" on="0"/>
        <pt x="479" y="329" on="0"/>
        <pt x="479" y="253" on="1"/>
        <pt x="479" y="202" on="0"/>
        <pt x="440" y="106" on="0"/>
        <pt x="365" y="33" on="0"/>
        <pt x="253" y="-12" on="0"/>
        <pt x="181" y="-12" on="1"/>
        <pt x="120" y="-12" on="0"/>
        <pt x="24" y="23" on="0"/>
        <pt x="-8" y="55" on="1"/>
        <pt x="41" y="150" on="1"/>
        <pt x="53" y="136" on="0"/>
        <pt x="87" y="113" on="0"/>
        <pt x="128" y="96" on="0"/>
        <pt x="174" y="86" on="0"/>
        <pt x="197" y="86" on="1"/>
        <pt x="227" y="86" on="0"/>
        <pt x="284" y="102" on="0"/>
        <pt x="327" y="138" on="0"/>
        <pt x="354" y="193" on="0"/>
        <pt x="354" y="232" on="1"/>
        <pt x="354" y="267" on="0"/>
        <pt x="308" y="312" on="0"/>
        <pt x="250" y="312" on="1"/>
        <pt x="219" y="312" on="0"/>
        <pt x="142" y="300" on="0"/>
        <pt x="106" y="287" on="1"/>
      </contour>
    </TTGlyph>
    <TTGlyph name="fl" xMin="-23" yMin="-260" xMax="559" yMax="745">
      <contour>
        <pt x="402" y="0" on="1"/>
        <pt x="292" y="0" on="1"/>
        <pt x="429" y="644" on="1"/>
        <pt x="409" y="652" on="0"/>
        <pt x="362" y="666" on="0"/>
        <pt x="332" y="666" on="1"/>
        <pt x="319" y="666" on="0"/>
        <pt x="298" y="654" on="0"/>
        <pt x="280" y="622" on="0"/>
        <pt x="263" y="568" on="0"/>
        <pt x="254" y="526" on="1"/>
        <pt x="240" y="460" on="1"/>
        <pt x="328" y="460" on="1"/>
        <pt x="314" y="393" on="1"/>
        <pt x="226" y="393" on="1"/>
        <pt x="87" y="-260" on="1"/>
        <pt x="-23" y="-260" on="1"/>
        <pt x="116" y="393" on="1"/>
        <pt x="59" y="393" on="1"/>
        <pt x="71" y="450" on="1"/>
        <pt x="130" y="459" on="1"/>
        <pt x="142" y="516" on="0"/>
        <pt x="166" y="596" on="0"/>
        <pt x="190" y="651" on="0"/>
        <pt x="212" y="685" on="0"/>
        <pt x="222" y="696" on="1"/>
        <pt x="247" y="722" on="0"/>
        <pt x="317" y="745" on="0"/>
        <pt x="356" y="745" on="1"/>
        <pt x="379" y="745" on="0"/>
        <pt x="466" y="733" on="0"/>
        <pt x="511" y="716" on="1"/>
        <pt x="559" y="740" on="1"/>
      </contour>
    </TTGlyph>
    <TTGlyph name="florin" xMin="-69" yMin="-257" xMax="710" yMax="745">
      <contour>
        <pt x="415" y="393" on="1"/>
        <pt x="250" y="-3" on="1"/>
        <pt x="200" y="-122" on="0"/>
        <pt x="63" y="-257" on="0"/>
        <pt x="-21" y="-257" on="1"/>
        <pt x="-45" y="-257" on="0"/>
        <pt x="-69" y="-251" on="1"/>
        <pt x="-58" y="-163" on="1"/>
        <pt x="-33" y="-169" on="0"/>
        <pt x="-13" y="-169" on="1"/>
        <pt x="11" y="-169" on="0"/>
        <pt x="48" y="-152" on="0"/>
        <pt x="83" y="-112" on="0"/>
        <pt x="117" y="-47" on="0"/>
        <pt x="137" y="0" on="1"/>
        <pt x="303" y="393" on="1"/>
        <pt x="261" y="393" on="1"/>
        <pt x="273" y="450" on="1"/>
        <pt x="330" y="457" on="1"/>
        <pt x="370" y="550" on="1"/>
        <pt x="394" y="607" on="0"/>
        <pt x="448" y="682" on="0"/>
        <pt x="506" y="727" on="0"/>
        <pt x="566" y="745" on="0"/>
        <pt x="596" y="745" on="1"/>
        <pt x="625" y="745" on="0"/>
        <pt x="682" y="731" on="0"/>
        <pt x="710" y="721" on="1"/>
        <pt x="650" y="635" on="1"/>
        <pt x="626" y="649" on="0"/>
        <pt x="590" y="666" on="0"/>
        <pt x="575" y="666" on="1"/>
        <pt x="562" y="666" on="0"/>
        <pt x="539" y="651" on="0"/>
        <pt x="514" y="618" on="0"/>
        <pt x="487" y="565" on="0"/>
        <pt x="471" y="526" on="1"/>
        <pt x="443" y="460" on="1"/>
        <pt x="530" y="460" on="1"/>
        <pt x="516" y="393" on="1"/>
      </contour>
    </TTGlyph>
    <TTGlyph name="four" xMin="9" yMin="0" xMax="508" yMax="660">
      <contour>
        <pt x="477" y="190" on="1"/>
        <pt x="408" y="190" on="1"/>
        <pt x="368" y="0" on="1"/>
        <pt x="253" y="0" on="1"/>
        <pt x="293" y="190" on="1"/>
        <pt x="9" y="190" on="1"/>
        <pt x="28" y="280" on="1"/>
        <pt x="388" y="660" on="1"/>
        <pt x="508" y="660" on="1"/>
        <pt x="427" y="280" on="1"/>
        <pt x="496" y="280" on="1"/>
      </contour>
      <contour>
        <pt x="312" y="280" on="1"/>
        <pt x="364" y="522" on="1"/>
        <pt x="141" y="280" on="1"/>
      </contour>
    </TTGlyph>
    <TTGlyph name="fourinferior" xMin="-3" yMin="0" xMax="305" yMax="366">
      <contour>
        <pt x="281" y="91" on="1"/>
        <pt x="247" y="91" on="1"/>
        <pt x="228" y="0" on="1"/>
        <pt x="160" y="0" on="1"/>
        <pt x="179" y="91" on="1"/>
        <pt x="-3" y="91" on="1"/>
        <pt x="10" y="153" on="1"/>
        <pt x="202" y="366" on="1"/>
        <pt x="305" y="366" on="1"/>
        <pt x="260" y="153" on="1"/>
        <pt x="294" y="153" on="1"/>
      </contour>
      <contour>
        <pt x="192" y="153" on="1"/>
        <pt x="225" y="307" on="1"/>
        <pt x="82" y="153" on="1"/>
      </contour>
    </TTGlyph>
    <TTGlyph name="foursuperior" xMin="63" yMin="299" xMax="371" yMax="665">
      <contour>
        <pt x="347" y="390" on="1"/>
        <pt x="313" y="390" on="1"/>
        <pt x="294" y="299" on="1"/>
        <pt x="226" y="299" on="1"/>
        <pt x="245" y="390" on="1"/>
        <pt x="63" y="390" on="1"/>
        <pt x="76" y="452" on="1"/>
        <pt x="268" y="665" on="1"/>
        <pt x="371" y="665" on="1"/>
        <pt x="326" y="452" on="1"/>
        <pt x="360" y="452" on="1"/>
      </contour>
      <contour>
        <pt x="258" y="452" on="1"/>
        <pt x="291" y="606" on="1"/>
        <pt x="148" y="452" on="1"/>
      </contour>
    </TTGlyph>
    <TTGlyph name="fraction" xMin="-74" yMin="-24" xMax="631" yMax="691">
      <contour>
        <pt x="16" y="-24" on="1"/>
        <pt x="-74" y="-24" on="1"/>
        <pt x="541" y="691" on="1"/>
        <pt x="631" y="691" on="1"/>
      </contour>
    </TTGlyph>
    <TTGlyph name="g" xMin="-6" yMin="-252" xMax="542" yMax="475">
      <contour>
        <pt x="542" y="461" on="1"/>
        <pt x="441" y="-19" on="1"/>
        <pt x="428" y="-82" on="0"/>
        <pt x="387" y="-170" on="0"/>
        <pt x="325" y="-226" on="0"/>
        <pt x="241" y="-252" on="0"/>
        <pt x="186" y="-252" on="1"/>
        <pt x="160" y="-252" on="0"/>
        <pt x="114" y="-246" on="0"/>
        <pt x="69" y="-234" on="0"/>
        <pt x="21" y="-214" on="0"/>
        <pt x="-6" y="-200" on="1"/>
        <pt x="11" y="-116" on="1"/>
        <pt x="54" y="-142" on="0"/>
        <pt x="155" y="-172" on="0"/>
        <pt x="201" y="-172" on="1"/>
        <pt x="233" y="-172" on="0"/>
        <pt x="280" y="-154" on="0"/>
        <pt x="314" y="-112" on="0"/>
        <pt x="339" y="-41" on="0"/>
        <pt x="350" y="12" on="1"/>
        <pt x="360" y="63" on="1"/>
        <pt x="327" y="32" on="0"/>
        <pt x="245" y="-12" on="0"/>
        <pt x="192" y="-12" on="1"/>
        <pt x="152" y="-12" on="0"/>
        <pt x="90" y="17" on="0"/>
        <pt x="48" y="68" on="0"/>
        <pt x="26" y="138" on="0"/>
        <pt x="26" y="179" on="1"/>
        <pt x="26" y="233" on="0"/>
        <pt x="62" y="339" on="0"/>
        <pt x="130" y="423" on="0"/>
        <pt x="229" y="475" on="0"/>
        <pt x="291" y="475" on="1"/>
        <pt x="339" y="475" on="0"/>
        <pt x="417" y="443" on="0"/>
        <pt x="434" y="414" on="1"/>
        <pt x="438" y="414" on="1"/>
        <pt x="459" y="460" on="1"/>
      </contour>
      <contour>
        <pt x="224" y="71" on="1"/>
        <pt x="239" y="71" on="0"/>
        <pt x="276" y="79" on="0"/>
        <pt x="315" y="96" on="0"/>
        <pt x="351" y="119" on="0"/>
        <pt x="366" y="134" on="1"/>
        <pt x="407" y="326" on="1"/>
        <pt x="384" y="363" on="0"/>
        <pt x="327" y="390" on="0"/>
        <pt x="298" y="390" on="1"/>
        <pt x="260" y="390" on="0"/>
        <pt x="200" y="355" on="0"/>
        <pt x="158" y="299" on="0"/>
        <pt x="136" y="228" on="0"/>
        <pt x="136" y="191" on="1"/>
        <pt x="136" y="167" on="0"/>
        <pt x="146" y="124" on="0"/>
        <pt x="167" y="91" on="0"/>
        <pt x="200" y="71" on="0"/>
      </contour>
    </TTGlyph>
    <TTGlyph name="germandbls" xMin="11" yMin="-27" xMax="503" yMax="736">
      <contour>
        <pt x="111" y="0" on="1"/>
        <pt x="11" y="0" on="1"/>
        <pt x="114" y="486" on="1"/>
        <pt x="126" y="542" on="0"/>
        <pt x="171" y="634" on="0"/>
        <pt x="235" y="700" on="0"/>
        <pt x="317" y="736" on="0"/>
        <pt x="367" y="736" on="1"/>
        <pt x="400" y="736" on="0"/>
        <pt x="450" y="717" on="0"/>
        <pt x="485" y="686" on="0"/>
        <pt x="503" y="644" on="0"/>
        <pt x="503" y="621" on="1"/>
        <pt x="503" y="594" on="0"/>
        <pt x="481" y="547" on="0"/>
        <pt x="447" y="506" on="0"/>
        <pt x="409" y="468" on="0"/>
        <pt x="375" y="433" on="0"/>
        <pt x="353" y="399" on="0"/>
        <pt x="353" y="382" on="1"/>
        <pt x="353" y="365" on="0"/>
        <pt x="375" y="337" on="0"/>
        <pt x="408" y="309" on="0"/>
        <pt x="447" y="280" on="0"/>
        <pt x="480" y="244" on="0"/>
        <pt x="502" y="197" on="0"/>
        <pt x="502" y="166" on="1"/>
        <pt x="502" y="114" on="0"/>
        <pt x="460" y="41" on="0"/>
        <pt x="398" y="-6" on="0"/>
        <pt x="329" y="-27" on="0"/>
        <pt x="302" y="-27" on="1"/>
        <pt x="266" y="-27" on="0"/>
        <pt x="211" y="0" on="0"/>
        <pt x="195" y="17" on="1"/>
        <pt x="246" y="122" on="1"/>
        <pt x="257" y="93" on="0"/>
        <pt x="297" y="55" on="0"/>
        <pt x="327" y="55" on="1"/>
        <pt x="352" y="55" on="0"/>
        <pt x="395" y="104" on="0"/>
        <pt x="395" y="150" on="1"/>
        <pt x="395" y="177" on="0"/>
        <pt x="374" y="216" on="0"/>
        <pt x="343" y="247" on="0"/>
        <pt x="306" y="273" on="0"/>
        <pt x="275" y="302" on="0"/>
        <pt x="254" y="338" on="0"/>
        <pt x="254" y="363" on="1"/>
        <pt x="254" y="406" on="0"/>
        <pt x="298" y="468" on="0"/>
        <pt x="352" y="522" on="0"/>
        <pt x="396" y="575" on="0"/>
        <pt x="396" y="608" on="1"/>
        <pt x="396" y="628" on="0"/>
        <pt x="372" y="655" on="0"/>
        <pt x="346" y="655" on="1"/>
        <pt x="314" y="655" on="0"/>
        <pt x="271" y="627" on="0"/>
        <pt x="241" y="580" on="0"/>
        <pt x="221" y="519" on="0"/>
        <pt x="214" y="486" on="1"/>
      </contour>
    </TTGlyph>
    <TTGlyph name="grave" xMin="133" yMin="533" xMax="345" yMax="683">
      <contour>
        <pt x="314" y="533" on="1"/>
        <pt x="141" y="602" on="1"/>
        <pt x="133" y="605" on="0"/>
        <pt x="133" y="621" on="1"/>
        <pt x="133" y="630" on="0"/>
        <pt x="140" y="652" on="0"/>
        <pt x="152" y="671" on="0"/>
        <pt x="167" y="683" on="0"/>
        <pt x="175" y="683" on="1"/>
        <pt x="179" y="683" on="0"/>
        <pt x="185" y="680" on="1"/>
        <pt x="343" y="579" on="1"/>
        <pt x="345" y="572" on="1"/>
        <pt x="322" y="536" on="1"/>
      </contour>
    </TTGlyph>
    <TTGlyph name="greater" xMin="17" yMin="11" xMax="357" yMax="467">
      <contour>
        <pt x="244" y="243" on="1"/>
        <pt x="75" y="374" on="1"/>
        <pt x="113" y="467" on="1"/>
        <pt x="357" y="273" on="1"/>
        <pt x="343" y="208" on="1"/>
        <pt x="17" y="11" on="1"/>
        <pt x="17" y="105" on="1"/>
        <pt x="243" y="238" on="1"/>
      </contour>
    </TTGlyph>
    <TTGlyph name="guillemotleft" xMin="34" yMin="61" xMax="512" yMax="420">
      <contour>
        <pt x="135" y="238" on="1"/>
        <pt x="242" y="61" on="1"/>
        <pt x="129" y="61" on="1"/>
        <pt x="34" y="239" on="1"/>
        <pt x="35" y="244" on="1"/>
        <pt x="206" y="420" on="1"/>
        <pt x="318" y="420" on="1"/>
        <pt x="136" y="243" on="1"/>
      </contour>
      <contour>
        <pt x="329" y="238" on="1"/>
        <pt x="436" y="61" on="1"/>
        <pt x="323" y="61" on="1"/>
        <pt x="228" y="239" on="1"/>
        <pt x="229" y="244" on="1"/>
        <pt x="400" y="420" on="1"/>
        <pt x="512" y="420" on="1"/>
        <pt x="330" y="243" on="1"/>
      </contour>
    </TTGlyph>
    <TTGlyph name="guillemotright" xMin="1" yMin="61" xMax="480" yMax="420">
      <contour>
        <pt x="379" y="243" on="1"/>
        <pt x="271" y="420" on="1"/>
        <pt x="383" y="420" on="1"/>
        <pt x="480" y="244" on="1"/>
        <pt x="479" y="239" on="1"/>
        <pt x="308" y="61" on="1"/>
        <pt x="195" y="61" on="1"/>
        <pt x="378" y="238" on="1"/>
      </contour>
      <contour>
        <pt x="185" y="243" on="1"/>
        <pt x="77" y="420" on="1"/>
        <pt x="189" y="420" on="1"/>
        <pt x="286" y="244" on="1"/>
        <pt x="285" y="239" on="1"/>
        <pt x="114" y="61" on="1"/>
        <pt x="1" y="61" on="1"/>
        <pt x="184" y="238" on="1"/>
      </contour>
    </TTGlyph>
    <TTGlyph name="guilsinglleft" xMin="34" yMin="61" xMax="318" yMax="420">
      <contour>
        <pt x="135" y="238" on="1"/>
        <pt x="242" y="61" on="1"/>
        <pt x="129" y="61" on="1"/>
        <pt x="34" y="239" on="1"/>
        <pt x="35" y="244" on="1"/>
        <pt x="206" y="420" on="1"/>
        <pt x="318" y="420" on="1"/>
        <pt x="136" y="243" on="1"/>
      </contour>
    </TTGlyph>
    <TTGlyph name="guilsinglright" xMin="1" yMin="61" xMax="286" yMax="420">
      <contour>
        <pt x="185" y="243" on="1"/>
        <pt x="77" y="420" on="1"/>
        <pt x="189" y="420" on="1"/>
        <pt x="286" y="244" on="1"/>
        <pt x="285" y="239" on="1"/>
        <pt x="114" y="61" on="1"/>
        <pt x="1" y="61" on="1"/>
        <pt x="184" y="238" on="1"/>
      </contour>
    </TTGlyph>
    <TTGlyph name="h" xMin="11" yMin="0" xMax="502" yMax="740">
      <contour>
        <pt x="204" y="392" on="1"/>
        <pt x="242" y="436" on="0"/>
        <pt x="325" y="475" on="0"/>
        <pt x="376" y="475" on="1"/>
        <pt x="402" y="475" on="0"/>
        <pt x="448" y="463" on="0"/>
        <pt x="482" y="437" on="0"/>
        <pt x="502" y="394" on="0"/>
        <pt x="502" y="363" on="1"/>
        <pt x="502" y="340" on="0"/>
        <pt x="496" y="313" on="1"/>
        <pt x="429" y="0" on="1"/>
        <pt x="319" y="0" on="1"/>
        <pt x="384" y="304" on="1"/>
        <pt x="387" y="319" on="0"/>
        <pt x="387" y="331" on="1"/>
        <pt x="387" y="358" on="0"/>
        <pt x="359" y="386" on="0"/>
        <pt x="334" y="386" on="1"/>
        <pt x="315" y="386" on="0"/>
        <pt x="272" y="374" on="0"/>
        <pt x="231" y="350" on="0"/>
        <pt x="195" y="316" on="0"/>
        <pt x="184" y="295" on="1"/>
        <pt x="121" y="0" on="1"/>
        <pt x="11" y="0" on="1"/>
        <pt x="168" y="740" on="1"/>
        <pt x="278" y="740" on="1"/>
      </contour>
    </TTGlyph>
    <TTGlyph name="hyphen" xMin="50" yMin="198" xMax="405" yMax="280">
      <contour>
        <pt x="405" y="280" on="1"/>
        <pt x="388" y="198" on="1"/>
        <pt x="50" y="198" on="1"/>
        <pt x="67" y="280" on="1"/>
      </contour>
    </TTGlyph>
    <TTGlyph name="i" xMin="10" yMin="0" xMax="269" yMax="681">
      <contour>
        <pt x="120" y="0" on="1"/>
        <pt x="10" y="0" on="1"/>
        <pt x="108" y="460" on="1"/>
        <pt x="218" y="460" on="1"/>
      </contour>
      <contour>
        <pt x="122" y="596" on="1"/>
        <pt x="122" y="612" on="0"/>
        <pt x="137" y="642" on="0"/>
        <pt x="162" y="666" on="0"/>
        <pt x="193" y="681" on="0"/>
        <pt x="210" y="681" on="1"/>
        <pt x="235" y="681" on="0"/>
        <pt x="269" y="643" on="0"/>
        <pt x="269" y="618" on="1"/>
        <pt x="269" y="602" on="0"/>
        <pt x="252" y="573" on="0"/>
        <pt x="226" y="550" on="0"/>
        <pt x="194" y="537" on="0"/>
        <pt x="179" y="537" on="1"/>
        <pt x="153" y="537" on="0"/>
        <pt x="122" y="571" on="0"/>
      </contour>
    </TTGlyph>
    <TTGlyph name="iacute" xMin="10" yMin="0" xMax="324" yMax="682">
      <contour>
        <pt x="120" y="0" on="1"/>
        <pt x="10" y="0" on="1"/>
        <pt x="108" y="460" on="1"/>
        <pt x="218" y="460" on="1"/>
      </contour>
      <contour>
        <pt x="94" y="535" on="1"/>
        <pt x="86" y="571" on="1"/>
        <pt x="91" y="578" on="1"/>
        <pt x="292" y="679" on="1"/>
        <pt x="298" y="682" on="0"/>
        <pt x="303" y="682" on="1"/>
        <pt x="314" y="682" on="0"/>
        <pt x="324" y="657" on="0"/>
        <pt x="324" y="643" on="1"/>
        <pt x="324" y="629" on="0"/>
        <pt x="313" y="604" on="0"/>
        <pt x="303" y="601" on="1"/>
        <pt x="101" y="532" on="1"/>
      </contour>
    </TTGlyph>
    <TTGlyph name="icircumflex" xMin="10" yMin="0" xMax="300" yMax="673">
      <contour>
        <pt x="120" y="0" on="1"/>
        <pt x="10" y="0" on="1"/>
        <pt x="108" y="460" on="1"/>
        <pt x="218" y="460" on="1"/>
      </contour>
      <contour>
        <pt x="209" y="673" on="1"/>
        <pt x="298" y="574" on="1"/>
        <pt x="300" y="567" on="1"/>
        <pt x="277" y="538" on="1"/>
        <pt x="270" y="535" on="1"/>
        <pt x="184" y="576" on="1"/>
        <pt x="82" y="535" on="1"/>
        <pt x="75" y="538" on="1"/>
        <pt x="66" y="567" on="1"/>
        <pt x="70" y="574" on="1"/>
        <pt x="201" y="673" on="1"/>
      </contour>
    </TTGlyph>
    <TTGlyph name="idieresis" xMin="10" yMin="0" xMax="321" yMax="671">
      <contour>
        <pt x="120" y="0" on="1"/>
        <pt x="10" y="0" on="1"/>
        <pt x="108" y="460" on="1"/>
        <pt x="218" y="460" on="1"/>
      </contour>
      <contour>
        <pt x="67" y="603" on="1"/>
        <pt x="67" y="616" on="0"/>
        <pt x="79" y="640" on="0"/>
        <pt x="99" y="659" on="0"/>
        <pt x="125" y="671" on="0"/>
        <pt x="138" y="671" on="1"/>
        <pt x="158" y="671" on="0"/>
        <pt x="185" y="640" on="0"/>
        <pt x="185" y="620" on="1"/>
        <pt x="185" y="607" on="0"/>
        <pt x="172" y="584" on="0"/>
        <pt x="151" y="566" on="0"/>
        <pt x="125" y="555" on="0"/>
        <pt x="113" y="555" on="1"/>
        <pt x="93" y="555" on="0"/>
        <pt x="67" y="583" on="0"/>
      </contour>
      <contour>
        <pt x="203" y="603" on="1"/>
        <pt x="203" y="616" on="0"/>
        <pt x="215" y="640" on="0"/>
        <pt x="235" y="659" on="0"/>
        <pt x="261" y="671" on="0"/>
        <pt x="274" y="671" on="1"/>
        <pt x="294" y="671" on="0"/>
        <pt x="321" y="640" on="0"/>
        <pt x="321" y="620" on="1"/>
        <pt x="321" y="607" on="0"/>
        <pt x="308" y="584" on="0"/>
        <pt x="287" y="566" on="0"/>
        <pt x="261" y="555" on="0"/>
        <pt x="249" y="555" on="1"/>
        <pt x="229" y="555" on="0"/>
        <pt x="203" y="583" on="0"/>
      </contour>
    </TTGlyph>
    <TTGlyph name="igrave" xMin="10" yMin="0" xMax="261" yMax="681">
      <contour>
        <pt x="120" y="0" on="1"/>
        <pt x="10" y="0" on="1"/>
        <pt x="108" y="460" on="1"/>
        <pt x="218" y="460" on="1"/>
      </contour>
      <contour>
        <pt x="230" y="531" on="1"/>
        <pt x="58" y="600" on="1"/>
        <pt x="49" y="603" on="0"/>
        <pt x="49" y="619" on="1"/>
        <pt x="49" y="628" on="0"/>
        <pt x="57" y="650" on="0"/>
        <pt x="69" y="669" on="0"/>
        <pt x="84" y="681" on="0"/>
        <pt x="92" y="681" on="1"/>
        <pt x="96" y="681" on="0"/>
        <pt x="101" y="678" on="1"/>
        <pt x="260" y="577" on="1"/>
        <pt x="261" y="570" on="1"/>
        <pt x="239" y="534" on="1"/>
      </contour>
    </TTGlyph>
    <TTGlyph name="ij" xMin="10" yMin="-258" xMax="481" yMax="681">
      <contour>
        <pt x="120" y="0" on="1"/>
        <pt x="10" y="0" on="1"/>
        <pt x="108" y="460" on="1"/>
        <pt x="218" y="460" on="1"/>
      </contour>
      <contour>
        <pt x="122" y="596" on="1"/>
        <pt x="122" y="612" on="0"/>
        <pt x="137" y="642" on="0"/>
        <pt x="162" y="666" on="0"/>
        <pt x="193" y="681" on="0"/>
        <pt x="210" y="681" on="1"/>
        <pt x="235" y="681" on="0"/>
        <pt x="269" y="643" on="0"/>
        <pt x="269" y="618" on="1"/>
        <pt x="269" y="602" on="0"/>
        <pt x="252" y="573" on="0"/>
        <pt x="226" y="550" on="0"/>
        <pt x="194" y="537" on="0"/>
        <pt x="179" y="537" on="1"/>
        <pt x="153" y="537" on="0"/>
        <pt x="122" y="571" on="0"/>
      </contour>
      <contour>
        <pt x="332" y="-3" on="1"/>
        <pt x="321" y="-54" on="0"/>
        <pt x="279" y="-146" on="0"/>
        <pt x="220" y="-217" on="0"/>
        <pt x="146" y="-258" on="0"/>
        <pt x="103" y="-258" on="1"/>
        <pt x="95" y="-258" on="0"/>
        <pt x="82" y="-257" on="0"/>
        <pt x="80" y="-255" on="1"/>
        <pt x="76" y="-188" on="1"/>
        <pt x="82" y="-191" on="0"/>
        <pt x="96" y="-191" on="1"/>
        <pt x="126" y="-191" on="0"/>
        <pt x="169" y="-154" on="0"/>
        <pt x="198" y="-97" on="0"/>
        <pt x="217" y="-31" on="0"/>
        <pt x="223" y="-2" on="1"/>
        <pt x="321" y="460" on="1"/>
        <pt x="430" y="460" on="1"/>
      </contour>
      <contour>
        <pt x="335" y="596" on="1"/>
        <pt x="335" y="612" on="0"/>
        <pt x="350" y="642" on="0"/>
        <pt x="375" y="666" on="0"/>
        <pt x="406" y="681" on="0"/>
        <pt x="423" y="681" on="1"/>
        <pt x="448" y="681" on="0"/>
        <pt x="481" y="643" on="0"/>
        <pt x="481" y="618" on="1"/>
        <pt x="481" y="602" on="0"/>
        <pt x="465" y="573" on="0"/>
        <pt x="439" y="550" on="0"/>
        <pt x="407" y="537" on="0"/>
        <pt x="391" y="537" on="1"/>
        <pt x="366" y="537" on="0"/>
        <pt x="335" y="572" on="0"/>
      </contour>
    </TTGlyph>
    <TTGlyph name="j" xMin="-137" yMin="-258" xMax="268" yMax="681">
      <contour>
        <pt x="119" y="-3" on="1"/>
        <pt x="108" y="-54" on="0"/>
        <pt x="66" y="-146" on="0"/>
        <pt x="7" y="-217" on="0"/>
        <pt x="-67" y="-258" on="0"/>
        <pt x="-110" y="-258" on="1"/>
        <pt x="-118" y="-258" on="0"/>
        <pt x="-131" y="-257" on="0"/>
        <pt x="-133" y="-255" on="1"/>
        <pt x="-137" y="-188" on="1"/>
        <pt x="-131" y="-191" on="0"/>
        <pt x="-117" y="-191" on="1"/>
        <pt x="-87" y="-191" on="0"/>
        <pt x="-44" y="-154" on="0"/>
        <pt x="-15" y="-97" on="0"/>
        <pt x="4" y="-31" on="0"/>
        <pt x="10" y="-2" on="1"/>
        <pt x="108" y="460" on="1"/>
        <pt x="217" y="460" on="1"/>
      </contour>
      <contour>
        <pt x="122" y="596" on="1"/>
        <pt x="122" y="612" on="0"/>
        <pt x="137" y="642" on="0"/>
        <pt x="162" y="666" on="0"/>
        <pt x="193" y="681" on="0"/>
        <pt x="210" y="681" on="1"/>
        <pt x="235" y="681" on="0"/>
        <pt x="268" y="643" on="0"/>
        <pt x="268" y="618" on="1"/>
        <pt x="268" y="602" on="0"/>
        <pt x="252" y="573" on="0"/>
        <pt x="226" y="550" on="0"/>
        <pt x="194" y="537" on="0"/>
        <pt x="178" y="537" on="1"/>
        <pt x="153" y="537" on="0"/>
        <pt x="122" y="572" on="0"/>
      </contour>
    </TTGlyph>
    <TTGlyph name="k" xMin="11" yMin="0" xMax="495" yMax="740">
      <contour>
        <pt x="296" y="297" on="1"/>
        <pt x="429" y="0" on="1"/>
        <pt x="309" y="0" on="1"/>
        <pt x="208" y="226" on="1"/>
        <pt x="161" y="187" on="1"/>
        <pt x="121" y="0" on="1"/>
        <pt x="11" y="0" on="1"/>
        <pt x="168" y="740" on="1"/>
        <pt x="278" y="740" on="1"/>
        <pt x="187" y="312" on="1"/>
        <pt x="372" y="460" on="1"/>
        <pt x="495" y="460" on="1"/>
      </contour>
    </TTGlyph>
    <TTGlyph name="kgreenlandic" xMin="10" yMin="0" xMax="494" yMax="460">
      <contour>
        <pt x="295" y="297" on="1"/>
        <pt x="428" y="0" on="1"/>
        <pt x="308" y="0" on="1"/>
        <pt x="207" y="226" on="1"/>
        <pt x="160" y="187" on="1"/>
        <pt x="120" y="0" on="1"/>
        <pt x="10" y="0" on="1"/>
        <pt x="108" y="460" on="1"/>
        <pt x="218" y="460" on="1"/>
        <pt x="186" y="313" on="1"/>
        <pt x="371" y="460" on="1"/>
        <pt x="494" y="460" on="1"/>
      </contour>
    </TTGlyph>
    <TTGlyph name="l" xMin="17" yMin="0" xMax="284" yMax="740">
      <contour>
        <pt x="127" y="0" on="1"/>
        <pt x="17" y="0" on="1"/>
        <pt x="174" y="740" on="1"/>
        <pt x="284" y="740" on="1"/>
      </contour>
    </TTGlyph>
    <TTGlyph name="less" xMin="25" yMin="11" xMax="363" yMax="467">
      <contour>
        <pt x="137" y="238" on="1"/>
        <pt x="307" y="105" on="1"/>
        <pt x="269" y="11" on="1"/>
        <pt x="25" y="208" on="1"/>
        <pt x="39" y="273" on="1"/>
        <pt x="363" y="467" on="1"/>
        <pt x="363" y="374" on="1"/>
        <pt x="138" y="243" on="1"/>
      </contour>
    </TTGlyph>
    <TTGlyph name="logicalnot" xMin="66" yMin="117" xMax="563" yMax="356">
      <contour>
        <pt x="563" y="356" on="1"/>
        <pt x="513" y="117" on="1"/>
        <pt x="420" y="117" on="1"/>
        <pt x="453" y="274" on="1"/>
        <pt x="66" y="274" on="1"/>
        <pt x="83" y="356" on="1"/>
      </contour>
    </TTGlyph>
    <TTGlyph name="m" xMin="10" yMin="0" xMax="789" yMax="475">
      <contour>
        <pt x="308" y="0" on="1"/>
        <pt x="373" y="304" on="1"/>
        <pt x="376" y="320" on="0"/>
        <pt x="376" y="333" on="1"/>
        <pt x="376" y="386" on="0"/>
        <pt x="325" y="386" on="1"/>
        <pt x="309" y="386" on="0"/>
        <pt x="269" y="374" on="0"/>
        <pt x="229" y="351" on="0"/>
        <pt x="194" y="317" on="0"/>
        <pt x="183" y="295" on="1"/>
        <pt x="120" y="0" on="1"/>
        <pt x="10" y="0" on="1"/>
        <pt x="108" y="460" on="1"/>
        <pt x="194" y="460" on="1"/>
        <pt x="184" y="392" on="1"/>
        <pt x="188" y="392" on="1"/>
        <pt x="217" y="434" on="0"/>
        <pt x="313" y="475" on="0"/>
        <pt x="362" y="475" on="1"/>
        <pt x="409" y="475" on="0"/>
        <pt x="478" y="439" on="0"/>
        <pt x="488" y="394" on="1"/>
        <pt x="517" y="435" on="0"/>
        <pt x="612" y="475" on="0"/>
        <pt x="660" y="475" on="1"/>
        <pt x="687" y="475" on="0"/>
        <pt x="734" y="463" on="0"/>
        <pt x="769" y="437" on="0"/>
        <pt x="789" y="394" on="0"/>
        <pt x="789" y="363" on="1"/>
        <pt x="789" y="340" on="0"/>
        <pt x="783" y="313" on="1"/>
        <pt x="716" y="0" on="1"/>
        <pt x="606" y="0" on="1"/>
        <pt x="671" y="304" on="1"/>
        <pt x="674" y="320" on="0"/>
        <pt x="674" y="333" on="1"/>
        <pt x="674" y="386" on="0"/>
        <pt x="623" y="386" on="1"/>
        <pt x="607" y="386" on="0"/>
        <pt x="567" y="374" on="0"/>
        <pt x="527" y="351" on="0"/>
        <pt x="492" y="317" on="0"/>
        <pt x="482" y="295" on="1"/>
        <pt x="482" y="299" on="1"/>
        <pt x="418" y="0" on="1"/>
      </contour>
    </TTGlyph>
    <TTGlyph name="minus" xMin="54" yMin="198" xMax="485" yMax="280">
      <contour>
        <pt x="485" y="280" on="1"/>
        <pt x="468" y="198" on="1"/>
        <pt x="54" y="198" on="1"/>
        <pt x="71" y="280" on="1"/>
      </contour>
    </TTGlyph>
    <TTGlyph name="mu" xMin="-50" yMin="-158" xMax="552" yMax="460">
      <contour>
        <pt x="258" y="460" on="1"/>
        <pt x="194" y="161" on="1"/>
        <pt x="191" y="147" on="0"/>
        <pt x="191" y="137" on="1"/>
        <pt x="191" y="108" on="0"/>
        <pt x="224" y="77" on="0"/>
        <pt x="253" y="77" on="1"/>
        <pt x="288" y="77" on="0"/>
        <pt x="357" y="125" on="0"/>
        <pt x="380" y="169" on="1"/>
        <pt x="441" y="460" on="1"/>
        <pt x="552" y="460" on="1"/>
        <pt x="455" y="0" on="1"/>
        <pt x="369" y="0" on="1"/>
        <pt x="376" y="64" on="1"/>
        <pt x="372" y="64" on="1"/>
        <pt x="356" y="41" on="0"/>
        <pt x="316" y="12" on="0"/>
        <pt x="272" y="-5" on="0"/>
        <pt x="227" y="-12" on="0"/>
        <pt x="206" y="-12" on="1"/>
        <pt x="164" y="-12" on="0"/>
        <pt x="134" y="0" on="1"/>
        <pt x="130" y="-8" on="1"/>
        <pt x="120" y="-29" on="0"/>
        <pt x="101" y="-65" on="0"/>
        <pt x="81" y="-100" on="0"/>
        <pt x="58" y="-137" on="0"/>
        <pt x="44" y="-158" on="1"/>
        <pt x="-50" y="-111" on="1"/>
        <pt x="-25" y="-77" on="0"/>
        <pt x="16" y="-16" on="0"/>
        <pt x="49" y="46" on="0"/>
        <pt x="73" y="110" on="0"/>
        <pt x="81" y="147" on="1"/>
        <pt x="148" y="460" on="1"/>
      </contour>
    </TTGlyph>
    <TTGlyph name="multiply" xMin="30" yMin="73" xMax="409" yMax="405">
      <contour>
        <pt x="208" y="187" on="1"/>
        <pt x="71" y="74" on="1"/>
        <pt x="30" y="126" on="1"/>
        <pt x="167" y="239" on="1"/>
        <pt x="78" y="351" on="1"/>
        <pt x="141" y="403" on="1"/>
        <pt x="230" y="291" on="1"/>
        <pt x="368" y="405" on="1"/>
        <pt x="409" y="353" on="1"/>
        <pt x="271" y="239" on="1"/>
        <pt x="361" y="124" on="1"/>
        <pt x="299" y="73" on="1"/>
      </contour>
    </TTGlyph>
</ttFont>
